<?xml version="1.0" encoding="utf-8"?>
<!-- Generator: Adobe Illustrator 24.0.0, SVG Export Plug-In . SVG Version: 6.00 Build 0)  -->
<svg version="1.2" baseProfile="tiny" id="Layer_1" xmlns="http://www.w3.org/2000/svg" xmlns:xlink="http://www.w3.org/1999/xlink"
	 x="0px" y="0px" viewBox="0 0 100 100" xml:space="preserve">
<path d="M96,26.9C94,14.7,86.1,7.1,74.8,2.8c-8.4-3.2-17.1-3.3-25.8-2C33.3,3,20.9,10.5,12,23.7C3.4,36.6,1.7,50.9,4.6,65.9
	C7,77.9,13.4,87.4,24.1,93.8c6.9,4.1,14.5,6.2,22.5,6.2c10,0,19.8-1.8,29-6.2c1.9-0.9,3-2.3,3-4.5c-0.1-3.8-3.8-6.1-7.6-4.3
	c-8.8,4.2-18.1,5.6-27.8,4.5c-12.3-1.4-21.2-7.5-25.9-19c-3.8-9.4-3.8-19.2-1.5-29c2-8.4,6-15.6,12.6-21.2C39.9,10.5,53.3,8,67.7,11
	c9.4,1.9,15.5,8,17.5,17.5c1.6,7.4,0.4,14.5-2.7,21.4c-2.7,6-8,8.9-13.8,11.9c0.4-2.3,0.6-4.3,1-6.3c1.9-8.3,3.8-16.5,5.6-24.8
	c0.6-2.8-0.8-5.1-3.6-6c-2.6-0.8-4.7,0.1-6.3,2c-6.4-3.2-13.1-3.3-19.5-1C30.9,31.2,24.9,46,27.2,59.1c0.8,4.6,2.7,8.8,6.5,11.7
	c5.9,4.5,12.4,4.1,18.8,1.3c1.8-0.8,3.3-2.1,5-3.2c1.1,3.6,3.2,5.3,6.1,4.9c5.3-0.8,10.5-2.3,15-5.3C93.4,58.9,98.8,43,96,26.9z
	 M62.4,40.4c-0.9,3.7-1.4,7.4-2.6,11c-1.8,5.1-4.8,9.4-10.1,11.6c-6.3,2.6-11.5-0.8-11.8-7.6c0-0.4,0-0.9,0-1.3
	c0.1-6.1,2.3-11.3,6.7-15.5c4.3-4.2,11.4-4.8,16.3-1.4C62.1,37.8,62.8,38.8,62.4,40.4z"/>
</svg>
