<?xml version="1.0" encoding="utf-8"?>
<!-- Generator: Adobe Illustrator 24.0.0, SVG Export Plug-In . SVG Version: 6.00 Build 0)  -->
<svg version="1.2" baseProfile="tiny" id="Layer_1" xmlns="http://www.w3.org/2000/svg" xmlns:xlink="http://www.w3.org/1999/xlink"
	 x="0px" y="0px" viewBox="0 0 100 100" xml:space="preserve">
<path d="M59.3,100c-7,0-14.1,0-21.2,0c0-0.4,0-0.8,0-1.1c0.1-5.5,0.2-11,0.3-16.4c0-1-0.2-1.9-0.8-2.7c-0.8-1.2-1.6-2.3-2.5-3.5
	c-0.1-0.2-0.4-0.2-0.6-0.3c-1.6-0.2-3.2-0.5-4.8-0.6c-0.5-0.1-0.8-0.2-0.8-0.8c0.1-1.1,0-2.2,0-3.3c0-0.5,0.2-0.8,0.7-0.9
	c2.4-0.4,4.8-0.7,7.2-1.1c0.1,0,0.3,0,0.4,0c1.4-0.2,1.5-0.2,1.5-1.7c0-0.7,0.1-1.4,0.1-2.1c0-0.4-0.2-0.9-0.2-1.3
	c-0.1-0.1-0.2-0.1-0.3-0.2c0.8-0.5,1.7-0.9,2.5-1.4c0.6-0.3,1.3-0.6,1.8-1c0.2-0.2,0.4-0.5,0.4-0.8c0.3-2.4,0.5-4.8,0.8-7.2
	c0.2-1.6,0.5-3.3,0.7-4.9c0.1-0.8,0-1.5,0-2.3c0-0.7,0-1.4,0-2.1c0-0.8,0.2-1.7,0.1-2.5c-0.5-3-0.3-5.8,0.5-8.7
	c0.5-1.7,0.6-3.5,0.8-5.2c0.1-0.6-0.2-1.3-0.4-2c0-0.1-0.3-0.3-0.4-0.3c-1.8-0.3-2.9-1.5-4.1-2.7c-0.7-0.7-1.3-0.9-2.2-0.9
	c-1.1,0-2.3-0.1-3.6-0.2c0.5-0.8,0.3-1.7,1.3-1.9c0.1,0,0.2-0.1,0.2-0.2c0.2-1.2,0.5-2.4-0.2-3.4c-0.4-0.5-0.5-1-0.3-1.6
	c0.2-0.4,0.2-0.9-0.5-0.8c0.1-0.8,0.2-1.5,0.9-1.9c0.9-0.4,1.3,0.5,1.9,0.9c0.1,0,0.1,0,0.1,0c1.2-0.8,1.5-0.8,2.4,0.4
	c0.4,0.6,0.8,1.2,1.2,1.8c0.1,0.2,0.3,0.4,0.6,0.7c0.4-0.7,0.6-1.3,1-1.8c0.3-0.4,0.6-0.7,1.1-1c0.8-0.4,1.6-0.7,2.4-1.2
	c1-0.5,1.1-1.6,1.3-2.5c0-0.1,0-0.2,0-0.2c-1.1-0.7-0.5-1.9-0.7-2.9c-0.2-1-0.1-2-0.1-3.1c0-0.5,0-1,0-1.5c-0.1,0-0.2,0-0.2,0
	c0.1-0.1,0.2-0.3,0.3-0.3c1.3-0.6,2.6-1.4,4.1-1.3c1.9,0.1,2.9,1.4,2.6,3.2c-0.1,0.5-0.3,0.9-0.4,1.4c-0.2,1.5-0.5,2.9-0.6,4.4
	c-0.1,0.8,0.4,1.6,1.1,2.1c2,1.5,3.1,3.6,4.3,5.7c0.4,0.8,0.6,1.6,0.2,2.5c-0.1,0.3-0.2,0.6-0.1,0.9c0.4,1.7-0.3,3.3-0.4,4.9
	c0,1-0.7,1.5-1.6,1.8c-1.1,0.5-1.1,0.5-0.8,1.6c0.2,0.9,0.5,1.9,0.7,2.8c0.3,0.9,0.3,1.8-0.1,2.7c-0.7,1.5-0.7,3-0.4,4.6
	c0.2,0.8,0.1,1.6,0,2.4c-0.4,2.1-0.2,4,0.7,5.9c1.4,2.8,1.3,5.6,0.6,8.5c-0.2,0.7-0.3,1.4-0.5,2.1c-0.6,1.8-0.4,3.6-0.1,5.5
	c0.1,0.5,0.6,0.9,1,1.3c0.7,0.6,0.9,1.3,0.9,2.3c-0.1,2.3-0.1,2.3,2.2,2.6c2.3,0.3,4.6,0.6,6.9,0.8C68.7,70,69,70.2,69,71
	c-0.1,1.1-0.1,2.2,0,3.3c0,0.6-0.2,0.8-0.7,0.8c-1.6,0.2-3.2,0.4-4.8,0.5c-0.5,0.1-0.8,0.3-1.1,0.7c-0.7,1.1-1.5,2.2-2.4,3.3
	c-0.7,0.8-0.9,1.7-0.9,2.8c0.1,4.4,0.2,8.7,0.2,13.1C59.3,97.1,59.3,98.5,59.3,100z M49.4,44.5c-0.5,1.6-1.3,3.2-0.9,5
	c0.3,1.7,0.6,3.4-0.8,4.8c0,0,0,0.1-0.1,0.1c-0.6,1.9-1.2,3.8-1.8,5.7c-0.1,0.5-0.2,1.1-0.3,1.7c1.8-0.2,3.5-0.3,5.1-0.4
	C50.3,55.7,49.9,50.1,49.4,44.5z M52.1,44.5c0,0-0.1,0-0.1,0.1c0,1.1,0,2.2,0,3.4c0.1,4.2,0.2,8.4,0.4,12.7c0,0.3-0.1,0.6,0,0.7
	c0.2,0.2,0.5,0.5,0.7,0.5c0.1,0,0.5-0.2,0.5-0.4c0.8-2.5,1.3-5.1,0.7-7.7c-0.4-1.8-0.5-3.5-0.7-5.3c0-0.6-0.3-1.2-0.6-1.8
	c-0.2-0.6-0.6-1.1-0.8-1.6C52.3,44.9,52.2,44.7,52.1,44.5z M40,19.3c0.9,1,2,1.6,3.3,2.2c-0.1-0.5-0.1-0.7-0.1-1
	c0-0.5-0.2-1.1-0.1-1.6c0.1-1.3,0.1-1.4-1.2-2c-0.3,0.3-0.6,0.6-0.9,1c0.3,0.6,0.6,1.2,1,1.8C41.1,20.3,40.6,19.6,40,19.3z
	 M38.4,18.3c-0.4,0.4-0.7,0.7-0.9,1c-0.1,0.1-0.2,0.3-0.2,0.4c0,0.1,0.3,0.3,0.4,0.3c0.6-0.1,1.4-0.1,1.6-0.5
	C39.5,19,38.9,18.6,38.4,18.3z"/>
</svg>
