<?xml version="1.0" encoding="utf-8"?>
<!-- Generator: Adobe Illustrator 24.0.0, SVG Export Plug-In . SVG Version: 6.00 Build 0)  -->
<svg version="1.2" baseProfile="tiny" id="Layer_1" xmlns="http://www.w3.org/2000/svg" xmlns:xlink="http://www.w3.org/1999/xlink"
	 x="0px" y="0px" viewBox="0 0 100 100" xml:space="preserve">
<path d="M60.2,47.1c-0.1-3.5-1-6.9,2.9-8.7c-0.1-0.1,0,0,0.1,0.1c2.6,1.3,2,3.7,2,6c0.1,1.7,0.2,3.4,0.5,5.1c0.1,0.5,0.6,1,1.1,1.7
	c-0.1,0.2-0.4,0.7-0.8,1.5c0.6,0,1.1,0.1,1.6,0.1c6,0,12,0,18,0c0.9,0,1.3-0.2,1.8-1.2c1-1.7,2.4-3.2,3.6-4.9
	c1.8,1.8,3.8,3.1,4.4,5.6c0.1,0.3,0.9,0.4,1.4,0.6c0.1-0.7,0.2-1.2,0.3-1.6c0.7,1.4,1.4,2.8,2.1,4.2c-0.1,1.1-0.4,2.4-0.5,3.6
	c-0.1,2.5-0.2,5,0,7.4c0.1,1.5,0.8,2.9,1,4.3c0.2,1.3,0,2.6,0,4c-9.7,0-19.1,0-28.7,0c0.4,0.9,0.7,1.7,1,2.6c-14.9,0-29.5,0-44.5,0
	c0.3-0.9,0.6-1.6,0.9-2.5c-9.5,0-18.9,0-28.6,0c0.3-1.7-0.5-3.2,0.4-4.8C1,69.5,1,68.3,1,67.2c0-3-0.1-6.1-0.2-9.1
	c0-0.9-0.2-1.7-0.2-2.4c0.7-1.3,1.4-2.7,2.1-4c0.1,0.3,0.2,0.7,0.3,1.2c0.9,0.3,1.2,0,1.7-0.9c1-1.8,2.4-3.3,4-5.4
	c1.5,2.2,2.7,4.1,4,5.9c0.2,0.3,0.7,0.5,1,0.5c6.5,0,13.1,0,19.6,0c0.1,0,0.3-0.1,0.5-0.2c-0.3-0.6-0.6-1.1-0.8-1.7
	c1.3-0.7,1.8-2,1.4-3.5c-0.1-0.6,0.2-1.2,0.2-1.8c0-1.1,0.1-2.2,0-3.3c-0.1-1.5,0-2.8,1.7-3.4c0.2-0.1,0.4-0.5,0.5-0.6
	c3.9,1.6,3,5.1,2.9,8.3c0.2,0.1,0.3,0.1,0.5,0.2c0.3-0.4,0.9-0.9,0.8-1.3c-0.1-2,0.7-4.2-0.8-6.1c-0.2-0.3,0.1-1.2,0.5-1.6
	c0.8-1,1.3-2,0.8-3.3c-0.1-0.3,0.1-1.2,0.2-1.2c1.2-0.2,1.4-1.3,1.8-2.1c1.2-2,2.7-3.6,4.8-4.5c1-0.4,1.1-0.6,0.1-1.3
	c-1.4-0.9-0.2-1.8,0.3-2.5c0.5-0.7,1.3-1.2,2-0.3c0.6,0.7,1.6,1.4,0.8,2.7c-0.4,0.7-0.1,1.2,0.6,1.8c1.4,1.2,2.7,2.6,3.9,4
	c0.6,0.7,0.6,1.9,1.9,2c0.2,0,0.4,0.7,0.3,1c-0.5,1.4-0.2,2.6,0.9,3.5c0.8,0.7,0.2,1.4,0,2.2c-0.4,2-0.3,4.1-0.4,6.2
	C59,46.5,59.5,46.7,60.2,47.1z M64.2,44.7c-0.7-0.5-1.1-1-1.4-1c-0.4,0-0.7,0.5-1.1,0.7c0.3,0.4,0.5,0.9,0.9,1
	C62.9,45.6,63.4,45.2,64.2,44.7z M36.2,43.8c0.2,0.7,0.2,1.3,0.5,1.7c0.1,0.2,1,0.2,1.1,0c0.3-0.4,0.3-1,0.5-1.7
	C37.5,43.8,37.1,43.8,36.2,43.8z"/>
</svg>
