<?xml version="1.0" encoding="utf-8"?>
<!-- Generator: Adobe Illustrator 24.0.0, SVG Export Plug-In . SVG Version: 6.00 Build 0)  -->
<svg version="1.2" baseProfile="tiny" id="Layer_1" xmlns="http://www.w3.org/2000/svg" xmlns:xlink="http://www.w3.org/1999/xlink"
	 x="0px" y="0px" viewBox="0 0 100 100" xml:space="preserve">
<path fill-rule="evenodd" fill="#34387B" d="M8.8,14.3L21.6,1.5c8.9,7.9,20.5,7.4,28.3,0c8.5,6.7,18,8.1,28.5,0l12.8,12.8
	c-6.7,4.7-11.6,16-9.4,27c1.3,6.3,2.1,12.2,2.1,18.3c-0.4,13.6-7.1,23.7-20,29.3c-7.1,3.1-11.1,6.4-14,10.5
	c-4-5.7-9.4-8.4-14.1-10.6C23,83.2,16.3,73.5,15.8,59.7c-0.1-6.4,1.2-12.4,2.2-18.3C20.4,26.6,14.9,20.3,8.8,14.3L8.8,14.3z"/>
<path fill-rule="evenodd" fill="#C22026" d="M15.8,59.7C16.3,73.5,23,83.2,35.7,89c4.7,2.2,10.1,4.9,14.1,10.6
	c2.9-4.1,7-7.5,14-10.5c13-5.6,19.6-15.8,20-29.3l-4.6-5.4H20.5L15.8,59.7L15.8,59.7z"/>
<path fill-rule="evenodd" fill="#FFFFFF" d="M74.2,67.4c-2.5,1.6-5.7-1.7-8.6-2c-3.5-0.3-5.7,2.2-7.3,2.3c0,0,0,0-0.1,0
	c-0.2-1.6,0.2-2.9,1.4-3.9c0.7-0.6,1.6-1.1,2.5-1.4l-6.8-4v0c-0.1,0-0.1,0.1-0.2,0.1c0.4-0.3,0.9-0.6,1.4-0.9l-6.2-3.6h2.3v-8.4
	c-0.3-3.4-5.5-3-5.5,0.1v6.4l-1.4-0.8v-0.1c-0.1,0-0.1,0-0.2,0l-0.3-0.2h0.1v-4.7h-1.3v4.7h1.1c-0.1,0.1-0.1,0.1-0.2,0.2
	c-1.3,0-2.6,0-3.9,0v1c1.1,0,2.1,0,3.1,0c-0.1,0.1-0.2,0.3-0.3,0.4v-0.2H43v1.6h0.1c-1.1,2.1-1.3,4.2-1.1,6.3l-6-4.8v0
	c-4,3.7-4,7.7,0.9,11.7c-2.4-0.2-4.8,0.1-7.4,0.5c-1.9,0.3-4-0.1-5.5-0.9c-3.6-1.9-5.4-0.7-7-0.4l0,0c0.3,1.5,0.8,3,1.3,4.4
	c2.9-0.5,4.3,0,7.8,1.8c2,1.1,5.3-1.4,6.6-1.6c3.8-0.3,7.4,0.4,11.3,0.7c2.3,0.2,3.6-1.3,5.2-1.4c2.7,1.8,5.8,2.9,8.9,3.1
	c-1-0.4-1.9-0.8-2.7-1.3c0.5,0.2,1.1,0.3,1.6,0.4c4.3,0.6,8.8-1.1,13-0.1c2.1,0.5,3.9,0.3,5.3-0.9c2.4-2.2,5.4-0.8,6.1-0.8
	c0.5-1.5,1-3,1.3-4.6C79.9,64.8,77.2,65.4,74.2,67.4z M53,61c-0.2,0.4-0.5,0.8-0.6,1.2c0.2,1.6,0.6,3,1,4.2c-0.6-0.2-1.2-0.3-2-0.3
	c0,0,0,0,0,0C51.4,64.3,52,62.5,53,61z M40,67.8c-1.2-2-0.9-3.9,0.9-5.3c0.4-0.3,0.9-0.6,1.4-0.9c0.5,2,1.6,4,3.1,5.7
	c-0.1,0-0.1,0-0.2,0.1C43.7,68,41.9,68.2,40,67.8z M79,76c-1.6,2.5-3.7,5.1-6.5,7.4c-2.8,0-4.7-1.8-7.5-2.1
	c-1.1-0.1-2.3,0.4-3.5,0.9c-1.5,0.7-3.3,1.5-5,1.5c-1.4,0-2.3-1.2-3.4-1.8c-1-0.5-2-0.8-3-0.8c-0.2,0-0.4,0-0.6,0
	c-1,0.1-2,0.4-2.9,1c-1.1,0.6-1.9,1.6-3.3,1.7c-0.7,0.1-1.4,0-2-0.3c-1.6-0.7-4.3-2.8-6.7-2.3c-2.6,0.5-3.9,2.4-6.9,2.4
	c-3.1-2.4-5.1-4.8-6.6-7.2l0,0c2.7-0.4,3.9,2.5,6.3,2.2c2.6-0.3,5.3-2.4,7.6-2.2l36.9,2.1c1.5-0.1,2.6-0.6,4-1.5
	C77.3,76,77.7,76,79,76z M41.7,51.2h-1.1v-4.7h1.1V51.2z M41.6,45.2h-1.1v0V41c0.3,0,0.8,0.1,1.1,0.2L41.6,45.2z M41.8,45.2v-3.9
	c0.4,0.1,0.6,0.3,0.9,0.5v3.3H41.8z M43.9,43.1v2.1H43v-3.2C43.4,42.4,43.6,42.7,43.9,43.1z M38.1,54.2h-8.6v-3.9h8.6V54.2z
	 M38.1,45.1h-8.8v-4.4h8.8V45.1z M44.1,45.2v-1.9c0.4,0.6,0.7,1.2,1,1.9H44.1z M40.5,33.3v-1.7h4.1v1.7H40.5z M39.3,54.2h-0.9v-3.9
	h0.9V54.2z M40.5,51.4h0.3v1h-0.3V51.4z M40.5,46.4v-0.9h0.3v0.9H40.5z M49.7,39.7H27.6v-6.3h3.6v4h7v-3.9c2.1,0,4.2,0,6.2,0v0h0.7
	l0,3.9h2.6v0h1.9l0,0V39.7z M45.8,46.4c-1.5,0-3.1,0-4.7,0v-0.9c1.6,0,3.2,0,4.7,0V46.4z M49.7,31.5h-9.3v-5.9h4.1v2.9h3.4v-2.9h1.9
	V31.5z M45.4,45.2C45.4,45.2,45.4,45.2,45.4,45.2c-0.2-0.5-0.4-0.7-0.6-1.2c0.6-1.6,1.5-2.6,3-3.3c0.4-0.1,0.8-0.3,1.2-0.3l0.2,1.1
	l0,0C47.4,41.7,45.9,43,45.4,45.2z M41.9,51.2v-4.7h0.9v4.7H41.9z M41.7,54.2h-1.1v-1.6h1.1V54.2z M43,51.2v-4.7h0.9v4.7H43z
	 M39.3,50h-5.5v-4.7h5.5V50z M59.4,41h0.9v13.2h-0.9C59.4,49.8,59.4,45.4,59.4,41z M58.7,52.4c-1.6,0-3.1,0-4.7,0v-1h4.7V52.4z
	 M60.5,40.8l-1,0c-2,0.2-3.1,1-4.3,3c-0.4-1.2-1.4-2.4-2.7-3h9v4.4h-0.9V40.8z M55.9,54.2v-1.6h0.8v1.6H55.9z M56.9,54.2v-1.6h0.9
	v1.6H56.9z M60.5,54.2v-3.9h0.9v3.9H60.5z M61.4,37.4h7.1v-4h3.6v6.3c-7.4,0-14.8,0-22.2,0v-2.3h1.9v0h2.7l0-3.9h0.5v0
	c2.1,0,4.2,0,6.2,0V37.4z M33.6,50H26v-4.7h7.6V50z M66,50h-5.5l0-4.7H66V50z M54.3,54.2v-1.6h1.3v1.6H54.3z M61.8,18.2
	c-8,0-15.9,0-23.8,0v-7.5h4.5V14H47v-3.3h5.7V14h4.5v-3.3h4.6V18.2z M29.2,45.1h-6.3c0.2-1,0.5-1.9,0.7-2.9h1.8h0l1.4-1.4h2.3V45.1z
	 M25.9,50h-4.1c0.4-1.6,0.7-3.1,1.1-4.7h3V50z M39.5,54.2V41l0.9,0c0,4.4,0,8.8,0,13.2H39.5z M25.5,42h-1.8l-1.7-2h5.4L25.5,42z
	 M40.4,40.8l-1.1,0v4.3h-0.9v-4.4l0,0h9c-1.2,0.6-2.2,1.9-2.7,3.1C43.6,42,42.3,40.9,40.4,40.8z M42.8,54.2h-0.9v-1.6h0.9V54.2z
	 M54.3,51.2v-4.7h1.3v4.7H54.3z M70.4,54.2h-8.8v-3.9h8.8V54.2z M73.7,50h-7.5v-4.7h7.6L73.7,50z M70.4,45.1h-8.8v-4.4h8.8V45.1z
	 M27.3,28.8l-5.4,0l2.7-2.9L27.3,28.8z M59.2,45.2h-1.1v-3.9c0.3-0.1,0.7-0.2,1.1-0.3V45.2z M59.2,51.2h-1.1v-4.7h1.1V51.2z
	 M59.2,52.4h-0.3v-1h0.3V52.4z M74.3,42l-1.9-2h5.4l-1.7,2H74.3z M59.2,46.4h-0.3v-0.9h0.3V46.4z M50.8,39.9h21.3l0.6,0.6H52
	c-0.3-0.2-0.7-0.3-1.2-0.4L50.8,39.9z M27.1,40.5l0.5-0.6h21.2l0,0.2c-0.4,0.1-0.8,0.2-1.2,0.4H27.1z M29.3,54.2h-8.7
	c0.4-1.3,0.7-2.6,1-3.9h0h7.7V54.2z M59.2,54.2h-1.1v-1.6h1.1V54.2z M27.4,29h-5.6v10.8h5.6V29z M25.5,35.4h-1.7v-5.1h1.7V35.4z
	 M77.9,29h-5.6v10.8h5.6V29z M76,35.4h-1.7v-5.1H76V35.4z M77.8,28.8h-5.4l2.6-2.9L77.8,28.8z M70.6,50.2h7.5c0.3,1.3,0.6,2.6,1,3.9
	h-8.5V50.2z M76.9,45.3c0.4,1.6,0.7,3.1,1.1,4.7h-4.1l0-4.7H76.9z M49.7,37.2h-1.9v-5.5h1.9V37.2z M70.6,40.7h2.3l1.4,1.4h1.8
	c0.3,1,0.5,1.9,0.8,2.9h-6.3V40.7z M49.9,37.2v-5.5h1.9l0,5.5H49.9z M49.9,21.4h9.4v4h-4.1V23h-3.4v2.3h-1.9V21.4z M55.2,31.7h4.1
	v1.7h-4.1L55.2,31.7z M49.9,25.6h1.9v2.9h3.4v-2.9h4.1v5.9h-9.4V25.6z M49.9,20.8l9.4,0v0.4h-9.4V20.8z M59.4,20.6h-9.4h0v-2.2h11.7
	L59.4,20.6z M49.7,21.2h-9.3v-0.4h9.3V21.2z M49.7,25.4h-1.9V23h-3.4v2.3h-4.1v-4h9.3V25.4z M49.7,20.6l-9.4,0l-2.3-2.2l11.7,0h0
	V20.6z M55.9,51.2v-4.7h0.8v4.7H55.9z M56.8,42v3.2h-0.9v-2.1C56.2,42.7,56.4,42.3,56.8,42z M56.9,51.2v-4.7h0.9v4.7H56.9z
	 M57.9,41.3v3.9H57v-3.3C57.2,41.7,57.6,41.5,57.9,41.3z M54.6,45.2c0.3-0.6,0.6-1.3,1.1-1.9v1.9H54.6z M50.6,41.4l0.2-1
	c1.9,0.3,3.6,1.8,4.2,3.6c-0.2,0.4-0.4,0.7-0.6,1.2C54.1,42.8,52.3,41.6,50.6,41.4z M50.6,39.9l-0.2,1.4l0,0c0,0,0,0,0,0
	c-0.2,0-0.3,0-0.5,0c-0.2,0-0.4,0-0.7,0l-0.2-1.4H50.6z M53.9,45.4c1.6,0,3.1,0,4.7,0v0.9c-1.6,0-3.1,0-4.7,0V45.4z"/>
<path fill-rule="evenodd" fill="#E6B422" d="M71,68.2c0,2.1-0.5,3.9-1.7,5.6c1.4,0.9,2.4,2.4,2.5,5.2l-7.4,0
	c-2.7,2.1-6.2,3.2-9.5,4.3c-3.3-2.8-6.8-2.7-10,0c-8-3-12-7.5-12.6-13.3c-1.4-1.2-3.3-2.3-4.2-2.7c-0.6-0.3-0.5-0.7-0.5-1.1
	l-4.5-1.9l0,0l0-1.1l11,1.4c0.7,1.2,1.9,2.4,3,3.3l0,0c4,2.7,8,4.8,12.1,5.6l0-2.5c0,0,0,0,0,0c0,0,0,0,0,0c0,0,0,0,0,0
	c0.3,0.2,0.6,0.4,0.9,0.6l0,2.1c2.8,0.4,5.7,0.1,8.6-1l0-0.3c0.1,0.1,0.3,0.1,0.4,0.2c2.2-0.9,4.5-2.3,6.9-4.2h-1.6v-1.5l1.3-1.3H72
	l1.6,1.3v1.5H71z M39.5,66.8c0.1,0.3,0.3,0.7,0.5,1.1l0-4.5c-0.2,0.3-0.4,0.6-0.5,0.9L39.5,66.8z M39.5,57.5l0.5,0.4v-1.4h-0.5V57.5
	z M44.7,50.9l12.7,7.5l0,0c0.3,0.2,0.7,0,0.6-0.4c0,0,0-0.1-0.1-0.1c0,0,0-0.1-0.1-0.1l-8.1-4.7l0.2,0.1l0-2.1l-0.4,0l0,1.9
	l-4.4-2.5C44.7,50.2,44.6,50.8,44.7,50.9z M59.4,60.2l-0.1-2l-0.4,0v1.8c-1.6-1-2.8-1.7-3-1.8l-0.7,0.4l0,0l6.8,4l0.7,0.5
	c0,0,0,0,0,0c0,0,0.1,0.1,0.2,0.1c0.2,0,0.3-0.1,0.3-0.3c0-0.1,0-0.1-0.1-0.2c0,0,0,0,0,0l-0.7-0.4c-1.2-0.8-2.5-1.5-3.5-2.2
	L59.4,60.2z M59,70c0.2,0.5,0.5,0.9,0.7,1.4L59.5,64c-0.2,0.2-0.4,0.4-0.5,0.6V70z M59.1,58c0.3,0,0.5-0.2,0.5-0.5
	c0-0.3-0.2-0.5-0.5-0.5s-0.5,0.2-0.5,0.5C58.7,57.8,58.9,58,59.1,58z M49.9,51c0.3,0,0.5-0.2,0.5-0.5c0-0.3-0.2-0.5-0.5-0.5
	s-0.5,0.2-0.5,0.5C49.4,50.8,49.6,51,49.9,51z M39.8,56.4c0.3,0,0.5-0.2,0.5-0.5c0-0.3-0.2-0.5-0.5-0.5c-0.3,0-0.5,0.2-0.5,0.5
	C39.3,56.2,39.5,56.4,39.8,56.4z M35.7,55.4l7.9,6.2c0,0,0.1,0,0.1,0c0.1,0.1,0.2,0.1,0.3,0.1c0.2,0,0.4-0.2,0.4-0.4
	c0-0.1,0-0.1,0-0.1c0,0,0-0.1,0-0.1L36.3,55C35.8,54.6,35.4,55.2,35.7,55.4L35.7,55.4z"/>
<path fill-rule="evenodd" fill="#1F1A18" d="M71.1,68.3h2.5v-1.7L72,65.2h-6l-6.3-7.4c0.1-0.1,0.1-0.2,0.1-0.3
	c0-0.3-0.3-0.6-0.6-0.6c-0.3,0-0.6,0.3-0.6,0.6c0,0.3,0.2,0.5,0.4,0.6v1.6c-1.4-0.8-2.4-1.5-2.7-1.7c0.1-0.1,0.2-0.1,0.3-0.2l1,0.6
	c0.2,0.1,0.3,0.1,0.5,0.1l0,0c0.1,0,0.2-0.1,0.2-0.1c0,0,0.1-0.1,0.1-0.2c0-0.1,0-0.1,0-0.2c0-0.2-0.1-0.4-0.3-0.4l-7.8-4.5l0-2.1
	c0.2-0.1,0.3-0.3,0.3-0.6c0-0.3-0.3-0.6-0.6-0.6c-0.3,0-0.6,0.3-0.6,0.6c0,0.2,0.1,0.4,0.3,0.5l0,1.7l-4.2-2.4l0,0
	c-0.2-0.1-0.4-0.1-0.5,0c0,0-0.1,0.1-0.1,0.1c0,0.1,0,0.1-0.1,0.2h0c0,0.1,0,0.3,0.1,0.3l0.3,0.2c-2.1,2.3-3.1,4.8-3.2,7.1
	c0,0.3,0,0.6,0,0.8l-1.7-1.4v-1.3c0.2-0.1,0.3-0.3,0.3-0.5c0-0.3-0.3-0.6-0.6-0.6c-0.3,0-0.6,0.3-0.6,0.6c0,0.2,0.1,0.4,0.3,0.5v0.8
	l-3-2.4l0,0c-0.2-0.2-0.4-0.2-0.6-0.1c-0.1,0-0.1,0.1-0.2,0.1v0c0,0.1-0.1,0.1-0.1,0.2c0,0.1,0,0.3,0.1,0.4l0,0l0.2,0.2
	c-1,0.9-1.7,1.9-2.2,2.9v0c-0.6,1.2-0.7,2.4-0.5,3.7c0.1,0.7,0.4,1.4,0.8,2.1L23,62.9l0,1.3c1.5,0.6,3,1.3,4.5,1.9
	c0,0.5,0.1,0.8,0.6,1.1c0.4,0.2,1.1,0.6,1.9,1.1c0.8,0.5,1.6,1,2.3,1.6c0.3,2.9,1.5,5.5,3.5,7.7c0.9,1,1.9,1.8,3,2.6l-0.9,1.6
	l0.5,0.2l0.9-1.5c0.6,0.4,1.2,0.7,1.8,1.1l-0.6,1.6c0.2,0.1,0.3,0.2,0.5,0.3l0.7-1.5c0.6,0.3,1.2,0.5,1.7,0.8l-0.2,1.1
	c0.2,0,0.4-0.1,0.6-0.1l0.2-0.7c0.3,0.1,0.6,0.3,0.9,0.4l0.1-0.1l0,0c0.8-0.7,1.7-1.2,2.7-1.6c2.6-1,5.1-0.1,7.2,1.7
	c0.4-0.1,0.9-0.3,1.3-0.4l0.2,0.8c0.2,0,0.4,0,0.5,0l-0.2-0.9c0.4-0.1,0.9-0.3,1.3-0.5l0.5,1.1c0.2,0,0.4-0.1,0.6-0.2L58.6,82
	c0.4-0.2,0.8-0.3,1.2-0.5c0.2-0.1,0.3-0.1,0.5-0.2l0.6,1.1l0.5-0.2l-0.6-1.1c1.3-0.6,2.5-1.3,3.6-2.1l7.4,0l0,0l0.1,0l0-0.1
	c-0.1-1.4-0.4-2.5-0.8-3.4c-0.4-0.8-1-1.4-1.7-1.9c0.6-0.8,1-1.7,1.3-2.6C71,70.2,71.1,69.3,71.1,68.3z M73.4,68.1
	c-2.4,0-4.8,0-7.2,0l0,0h-1.5v-1.3h0l8.7,0V68.1z M58.6,78.2l0.3,0.5c0,0,0,0,0,0h0h0c-0.2,0-0.4-0.1-0.5-0.2
	c-0.1-0.1-0.2-0.3-0.2-0.5v0v0c0-0.2,0.1-0.4,0.2-0.5c0.1-0.1,0.3-0.2,0.5-0.2h0h0c0.2,0,0.4,0.1,0.5,0.2c0.1,0.1,0.2,0.3,0.2,0.5v0
	v0c0,0.1,0,0.3-0.1,0.4l-0.3-0.5C58.9,77.5,58.3,77.7,58.6,78.2z M59.7,77.9L59.7,77.9L59.7,77.9c0-0.3-0.1-0.5-0.3-0.6
	c-0.2-0.2-0.4-0.3-0.6-0.3h0h0c-0.3,0-0.5,0.1-0.6,0.3c-0.2,0.2-0.3,0.4-0.3,0.6v0v0c0,0.3,0.1,0.5,0.3,0.6c0.2,0.2,0.4,0.3,0.6,0.3
	h0h0c0,0,0,0,0,0c-0.9,0.3-1.9,0.6-2.9,0.8l-0.6-2.2c5.6-1,11-4,13.3-9.2h1.2l0,0c-1.4,3.9-4.2,7-7.7,9c-0.8,0.5-1.7,0.9-2.6,1.3
	l0-0.1C59.6,78.4,59.7,78.2,59.7,77.9z M53.6,78.7c-0.2-0.2-0.4-0.3-0.6-0.3h0h0h0c-0.3,0-0.5,0.1-0.6,0.3c-0.2,0.2-0.3,0.4-0.3,0.6
	v0v0c0,0.3,0.1,0.5,0.3,0.6c0.1,0.1,0.2,0.1,0.3,0.2c-0.9,0.1-1.7,0.1-2.6,0l0.1-2.4c0,0,0,0,0,0l0,0c1.5,0.1,3.1,0,4.6-0.3l0.6,2.2
	c-0.6,0.1-1.2,0.2-1.9,0.3c0,0,0.1-0.1,0.1-0.1h0c0.2-0.2,0.3-0.4,0.3-0.6v0v0C53.9,79.1,53.8,78.9,53.6,78.7z M55.3,77.1
	C55.3,77.1,55.3,77.1,55.3,77.1l-0.2-0.7v0c-0.1-0.4-0.8-0.3-0.6,0.2l0.2,0.6c-0.2,0-0.3-0.1-0.4-0.2c-0.1-0.1-0.2-0.3-0.2-0.5v0v0
	c0-0.2,0.1-0.4,0.2-0.5c0.1-0.1,0.3-0.2,0.5-0.2h0h0c0.2,0,0.4,0.1,0.5,0.2c0.1,0.1,0.2,0.3,0.2,0.5v0v0
	C55.6,76.8,55.5,76.9,55.3,77.1L55.3,77.1z M55.4,77.3L55.4,77.3c0,0,0.1-0.1,0.1-0.1h0c0.2-0.2,0.3-0.4,0.3-0.6v0v0
	c0-0.3-0.1-0.5-0.3-0.6c-0.2-0.2-0.4-0.3-0.6-0.3h0h0h0c-0.3,0-0.5,0.1-0.6,0.3c-0.2,0.2-0.3,0.4-0.3,0.6v0v0c0,0.3,0.1,0.5,0.3,0.6
	c0.1,0.1,0.3,0.2,0.4,0.2c-1.5,0.2-3,0.3-4.4,0.3l0,0c0.1,0,0.2-0.1,0.3-0.2h0c0.2-0.2,0.3-0.4,0.3-0.6v0v0c0-0.3-0.1-0.5-0.3-0.6
	c-0.2-0.2-0.4-0.3-0.6-0.3h0h0c-0.3,0-0.5,0.1-0.6,0.3c-0.2,0.2-0.3,0.4-0.3,0.6v0v0c0,0.3,0.1,0.5,0.3,0.6c0.1,0.1,0.1,0.1,0.2,0.1
	c-1.4-0.1-2.7-0.4-4.1-0.9l0-0.1c0.2,0,0.4-0.1,0.5-0.3h0c0.2-0.2,0.3-0.4,0.3-0.6v0v0c0-0.3-0.1-0.5-0.3-0.6c0,0,0,0,0,0
	c1.4,0.4,2.8,0.6,4.2,0.6c4.5,0.1,7.7-0.5,10.3-1.7c2.7-1.2,4.9-3.1,7.5-5.8h0.7l0,0C66.2,73.4,60.9,76.3,55.4,77.3z M41.7,77.3
	c-0.1,0.1-0.3,0.2-0.5,0.2h0h0c0,0,0,0-0.1,0l0.3-0.5l0,0c0.2-0.3-0.3-0.8-0.6-0.3l-0.3,0.5c-0.1-0.1-0.1-0.2-0.1-0.4v0v0
	c0-0.2,0.1-0.4,0.2-0.5c0.1-0.1,0.3-0.2,0.5-0.2h0h0c0.2,0,0.4,0.1,0.5,0.2c0.1,0.1,0.2,0.3,0.2,0.5v0v0
	C41.9,77,41.8,77.2,41.7,77.3L41.7,77.3z M41.2,77.7L41.2,77.7L41.2,77.7c0.3,0,0.5-0.1,0.6-0.3h0c0.2-0.2,0.3-0.4,0.3-0.6v0v0
	c0-0.3-0.1-0.5-0.3-0.6c-0.2-0.2-0.4-0.3-0.6-0.3h0h0c-0.3,0-0.5,0.1-0.6,0.3c-0.2,0.2-0.3,0.4-0.3,0.6v0v0c0,0.2,0.1,0.4,0.2,0.5
	c-2.1-1.4-4-3.2-5.4-5.5c-0.4-0.7-0.9-1.4-1.3-2.1c-0.4-0.5-0.7-1-1.1-1.5l1.9,0.8l0,0c1.3,1.5,2.6,2.9,4.1,4.1
	c1.9,1.6,3.9,2.7,5.9,3.5l-0.5,2.4c-1.1-0.4-2.1-0.8-3.1-1.4C41.1,77.7,41.1,77.7,41.2,77.7z M39.9,69.7l0,1.6l-0.3-0.2l0-1.6
	C39.7,69.5,39.8,69.6,39.9,69.7L39.9,69.7C39.9,69.7,39.9,69.7,39.9,69.7z M39.9,71.6c1.7,1.2,3.6,2.1,5.5,2.7l0,0l0,0
	c1.6,0.5,3.3,0.7,5,0.7c3.8-0.1,6.4-0.5,8.8-1.6c0.2-0.1,0.4-0.2,0.5-0.2l0.1,0l0,0c2.2-1.1,4.3-2.6,7.2-4.9h0.4l0,0
	c-2.6,2.5-4.7,4.4-7.3,5.6c-2.6,1.2-5.8,1.8-10.3,1.7c-3.3-0.1-6.7-1.1-10-3.3c-1.4-0.9-2.6-2-3.8-3.2c0.1-0.1,0.3-0.3,0.4-0.4
	C37.6,69.7,38.7,70.7,39.9,71.6z M40.1,63.4c0.1-0.1,0.2-0.2,0.2-0.3l3.9,8.6c-0.1,0-0.2-0.1-0.3-0.1c-0.4-0.2-0.7-0.5-1-0.7
	L40.1,63.4z M42.7,70.6c-0.8-0.6-1.4-1.2-1.9-1.8c-0.3-0.3-0.5-0.6-0.7-0.9l0-4L42.7,70.6z M41.4,62.2c0.2-0.2,0.5-0.3,0.8-0.4
	c0.2,0.8,0.5,1.5,0.8,2.2c0.9,1.8,2.1,3.4,3.7,4.9c0.8,0.7,1.7,1.4,2.6,2l0,2.5c-0.9-0.2-1.9-0.4-2.8-0.7l-5.5-10
	c0.1-0.1,0.1-0.1,0.2-0.1l0,0C41.3,62.3,41.3,62.2,41.4,62.2L41.4,62.2z M51.6,64.8l2.9,6.8c-1-0.8-1.8-1.7-2.3-2.7
	c-0.5-1-0.7-2-0.7-3C51.5,65.6,51.5,65.2,51.6,64.8z M51.6,64.5c0-0.2,0.1-0.5,0.2-0.7l4.8,9.2c-0.7-0.3-1.3-0.7-1.8-1.1L51.6,64.5z
	 M52.4,62.3c0.2-0.4,0.4-0.9,0.7-1.3c0.6-0.9,1.3-1.7,2.1-2.3c0,0,0.1-0.1,0.1-0.1l3.3,1.9l3.4,2l0,0c-0.4,0.1-0.8,0.3-1.1,0.5
	c-0.4,0.2-0.8,0.5-1.2,0.8l0,0L59.5,64c0,0,0,0,0,0c0,0,0,0,0,0c0,0-0.1,0.1-0.1,0.1c0,0,0,0,0,0c0,0,0,0,0,0c0,0,0,0,0,0
	c-0.1,0.1-0.1,0.2-0.2,0.3c0,0,0,0,0,0l0,0c-0.6,0.9-0.9,1.9-0.7,3c0.1,0.8,0.3,1.6,0.7,2.4l0,0c0,0,0,0,0,0c0,0.1,0.1,0.2,0.1,0.3
	c0,0,0,0,0,0.1c0,0.1,0.1,0.2,0.1,0.3c0,0,0,0,0,0c0,0,0,0,0,0c0,0.1,0.1,0.2,0.1,0.2c0,0,0,0.1,0.1,0.1c0,0.1,0.1,0.1,0.1,0.2
	c0,0,0,0.1,0.1,0.1l0,0c0.1,0.2,0.2,0.4,0.3,0.5c-0.2,0.1-0.4,0.2-0.6,0.2c-0.2-0.1-0.4-0.2-0.6-0.3c-0.4-0.2-0.8-0.4-1.2-0.6
	l-4.9-7.7C52.6,63.3,52.5,62.8,52.4,62.3z M62.9,62.5c-0.1,0.1-0.2,0.2-0.2,0.3l-0.3-0.2l0,0l-0.2-0.1l0,0l0,0l0,0l0,0l-0.5-0.7
	c0.3,0.2,0.5,0.3,0.8,0.5c0,0,0,0,0,0l0,0l0,0L62.9,62.5z M63,62.5l0.2,0.1c0,0.1,0,0.2,0,0.2c0,0-0.1,0.1-0.3,0l-0.1-0.1
	c0,0,0,0,0-0.1C62.8,62.7,62.9,62.6,63,62.5z M66,68.3c-1.1,0.9-2.1,1.6-3.2,2.3L60,63.8c0.3-0.2,0.6-0.4,0.9-0.6
	c0.4-0.2,0.8-0.4,1.2-0.5l2.5,4v1.6H66z M66.3,68.3h0.5c-1.4,1.1-2.6,2-3.7,2.7l-0.1-0.3C64,70,65.2,69.2,66.3,68.3z M59.4,72.5
	c0.1,0,0.2,0.1,0.3,0.1l0,0.4l-0.6,0.3l0-0.7C59.2,72.5,59.3,72.5,59.4,72.5z M59.1,72.4L59.1,72.4C59.1,72.4,59.1,72.4,59.1,72.4
	C59.1,72.4,59.1,72.4,59.1,72.4z M57,71.2c0.2,0.1,0.3,0.2,0.5,0.3l0.8,1.2c-0.5,0.2-0.9,0.3-1.4,0.4l-2-3.9
	C55.5,70,56.2,70.7,57,71.2z M54.1,67.8c-0.6-1-1-2.2-1.4-3.6l4.5,6.9c-0.1,0-0.1-0.1-0.2-0.1C55.9,70.3,54.9,69.2,54.1,67.8z
	 M57,73.4c0.1,0.1,0.3,0.1,0.4,0.2c-0.1,0-0.2,0-0.4,0L57,73.4z M56.8,73.5c-0.2,0-0.4-0.1-0.5-0.1c0.1,0,0.3-0.1,0.4-0.1L56.8,73.5
	z M57.8,73.8c-0.2,0.1-0.3,0.1-0.5,0.2l-0.1-0.2C57.4,73.7,57.6,73.8,57.8,73.8z M58.1,73.6c-0.4-0.1-0.7-0.3-1-0.4
	c0.4-0.1,0.8-0.2,1.3-0.4l0.4,0.6C58.5,73.5,58.3,73.6,58.1,73.6z M58.5,72.8c0.1,0,0.3-0.1,0.4-0.1l0,0.7c0,0,0,0,0,0L58.5,72.8z
	 M58.9,72.5c-0.2,0.1-0.3,0.1-0.5,0.2l-0.6-0.9c0.3,0.2,0.6,0.3,0.9,0.4c0.1,0,0.1,0.1,0.2,0.1L58.9,72.5z M60.4,72.6
	c-0.3-0.1-0.5-0.2-0.7-0.3c0.1-0.1,0.3-0.1,0.4-0.2C60.2,72.3,60.3,72.5,60.4,72.6C60.4,72.6,60.4,72.6,60.4,72.6z M60.2,72.7
	c-0.1,0.1-0.2,0.1-0.3,0.2l0-0.3C60,72.7,60.1,72.7,60.2,72.7z M60.6,72.6c-0.1-0.2-0.2-0.3-0.3-0.5c0.3-0.1,0.6-0.3,0.9-0.4
	l0.1,0.5C61,72.3,60.8,72.4,60.6,72.6z M59.8,71.4L59.6,65l1.5,6.5c-0.3,0.2-0.6,0.3-0.9,0.5C60,71.8,59.9,71.6,59.8,71.4z
	 M58.3,67.6c-0.1-1,0.1-1.9,0.5-2.7v4.7C58.6,68.9,58.4,68.2,58.3,67.6z M59.1,64.6c0.1-0.1,0.1-0.2,0.2-0.2c0,0,0,0,0,0
	c0,0,0,0,0.1-0.1c0,0,0,0,0,0l0.2,6.8c-0.1-0.1-0.1-0.3-0.2-0.4c-0.1-0.2-0.2-0.5-0.3-0.7L59.1,64.6C59.1,64.7,59.1,64.6,59.1,64.6z
	 M59.6,64.1l2.2,7c-0.2,0.1-0.4,0.2-0.6,0.3L59.6,64.1z M61.9,71.3l0.1,0.4c-0.2,0.1-0.4,0.3-0.6,0.4l-0.1-0.5
	C61.5,71.5,61.7,71.4,61.9,71.3z M62,71l-2.2-7.1c0,0,0,0,0,0l2.9,6.7C62.5,70.7,62.2,70.9,62,71z M62.8,70.8l0.1,0.3
	c-0.2,0.2-0.5,0.3-0.7,0.5l-0.1-0.4C62.3,71.1,62.5,70.9,62.8,70.8z M52,63.1C52,63.1,52,63.1,52,63.1l0.5,0.7
	c0.1,0.7,0.3,1.3,0.5,1.8l-1.1-2.1C51.9,63.4,52,63.2,52,63.1z M52.1,62.9c0-0.1,0.1-0.2,0.2-0.4c0,0.3,0.1,0.5,0.1,0.8L52.1,62.9z
	 M56.5,73.2c-0.2,0.1-0.5,0.1-0.7,0.1c-0.2,0-0.3-0.1-0.5-0.1l-0.4-1C55.4,72.6,55.9,72.9,56.5,73.2z M56.9,73.7l0.2,0.3
	c-0.4,0.1-0.8,0.2-1.3,0.3l-0.3-0.7c0.1,0,0.2,0,0.3-0.1C56.2,73.6,56.6,73.6,56.9,73.7z M55.6,74.3c-1.5,0.3-3.1,0.4-5.1,0.5l0-1.2
	c0.2,0,0.4,0,0.6,0.1c1.4,0.1,2.8,0.1,4.2-0.1L55.6,74.3z M55.2,73.4c-1.4,0.2-2.8,0.2-4.1,0.1c-0.2,0-0.4,0-0.7-0.1l0-2
	C51.9,72.3,53.5,73,55.2,73.4L55.2,73.4z M50.3,73.6l0,1.2l-0.9,0l0-1.3C49.7,73.5,50,73.6,50.3,73.6z M49.5,73.3l0-2.3
	c0.2,0.2,0.5,0.3,0.8,0.5l0,2C50,73.4,49.7,73.4,49.5,73.3z M44.6,72c0.6,0.2,1.1,0.5,1.7,0.6l1,1.9c-0.6-0.1-1.2-0.3-1.8-0.4
	L44.6,72z M45.3,74c-0.4-0.1-0.9-0.3-1.3-0.5l-0.9-2.2c0.4,0.2,0.8,0.4,1.2,0.5L45.3,74z M46.6,72.8c0.9,0.3,1.8,0.5,2.7,0.7l0,1.3
	c-0.6,0-1.1-0.1-1.7-0.2L46.6,72.8z M46.2,72.5c-0.6-0.2-1.1-0.4-1.7-0.6l-4-8.8c0.1-0.1,0.2-0.2,0.4-0.3L46.2,72.5z M43.8,73.5
	c-1.3-0.5-2.5-1.2-3.7-2l0-1.7c0.1,0.1,0.2,0.1,0.3,0.2c0.8,0.5,1.7,0.9,2.5,1.4L43.8,73.5z M39.4,69.3l0,1.7
	c-1-0.7-1.9-1.6-2.8-2.5c0.2-0.2,0.4-0.4,0.6-0.7c0.3,0.2,0.6,0.4,0.9,0.6C38.6,68.8,39,69,39.4,69.3L39.4,69.3z M35.8,69.2l0-0.8
	l0.8-0.9c0.1,0.1,0.3,0.2,0.4,0.3L35.8,69.2z M36,69.3c1.2,1.2,2.4,2.2,3.8,3.2c1.7,1.1,3.4,2,5.2,2.5c-0.2,0-0.4,0.1-0.5,0.3
	c-0.2,0.2-0.3,0.4-0.3,0.6v0v0c0,0.3,0.1,0.5,0.3,0.6c0,0,0,0,0.1,0c-1.9-0.8-3.9-1.9-5.7-3.4c-1.4-1.2-2.7-2.5-3.9-3.8
	c0.2,0.1,0.5,0.2,0.7,0.3l0,0l0,0C35.8,69.5,35.9,69.4,36,69.3z M44.4,75.8L44.4,75.8L44.4,75.8c0-0.2,0.1-0.4,0.2-0.5
	c0.1-0.1,0.3-0.2,0.5-0.2h0h0c0.2,0,0.4,0.1,0.5,0.2c0.1,0.1,0.2,0.3,0.2,0.5v0v0c0,0.2-0.1,0.4-0.2,0.5l0,0
	c-0.1,0.1-0.2,0.2-0.3,0.2l0.1-0.6v0c0.1-0.4-0.5-0.6-0.7-0.1l-0.1,0.5c0,0,0,0-0.1,0C44.5,76.2,44.4,76,44.4,75.8z M71.9,65.4
	l1.3,1.1l-8.4,0l1.1-1.1H71.9z M65.8,65.3l-1.1,1.2l-2.3-3.7l0.4,0.3l0,0c0.1,0.1,0.1,0.1,0.2,0.1c0.2,0,0.4-0.2,0.4-0.4
	c0-0.1,0-0.2-0.1-0.3l0,0l0,0c0,0,0,0,0,0l-0.6-0.4l0,0l0,0l0,0c-0.3-0.2-0.7-0.4-1.1-0.7l-2-3.3c0,0,0,0,0.1-0.1l0,0L65.8,65.3z
	 M61.1,61.1c-0.4-0.2-0.7-0.4-1.1-0.7c-0.2-0.1-0.4-0.2-0.6-0.4l-0.1-1.8L61.1,61.1z M58.7,57.6c0-0.3,0.2-0.5,0.5-0.5
	s0.5,0.2,0.5,0.5c0,0.3-0.2,0.5-0.5,0.5S58.7,57.8,58.7,57.6z M59.3,60l-0.2-0.1c0,0,0,0,0,0v-1.6l0.2,0L59.3,60z M58.9,60L58.9,60
	c0.4,0.2,0.7,0.4,1.1,0.6c0.4,0.2,0.8,0.5,1.2,0.8c0,0,0.1,0.1,0.1,0.1l0.5,0.8l-6.3-3.7l0.5-0.3C56.3,58.4,57.4,59.1,58.9,60
	L58.9,60L58.9,60z M57.9,57.9c0.1,0.1,0.2,0.3,0.1,0.4c-0.1,0.1-0.3,0.1-0.5,0l0,0l0,0c0-0.1-0.1-0.1-0.1-0.2c0-0.2,0.1-0.3,0.3-0.3
	L57.9,57.9z M49.4,50.6c0-0.3,0.2-0.5,0.5-0.5c0.3,0,0.5,0.2,0.5,0.5c0,0.2-0.1,0.4-0.3,0.4l-0.4,0C49.5,50.9,49.4,50.7,49.4,50.6z
	 M50,53.1l-0.3-0.2l0,0l0-1.7c0.1,0,0.1,0,0.2,0c0,0,0.1,0,0.1,0l0,0L50,53.1z M44.8,50.7L44.8,50.7C44.8,50.7,44.8,50.6,44.8,50.7
	c0.1-0.1,0.1-0.2,0.1-0.2c0.1-0.1,0.2-0.1,0.3,0l4.3,2.5l0,0l0.1,0l8.1,4.7c-0.2,0.1-0.3,0.2-0.3,0.4c0,0,0,0.1,0,0.1l-0.6-0.4l0,0
	l-0.1-0.1l-5-3l-6.7-3.9C44.8,50.8,44.8,50.8,44.8,50.7z M42,58.3c0.1-2.4,1.1-4.8,3.2-7.1l6.8,4l4.3,2.5c-0.4,0.2-0.7,0.4-1.1,0.7
	l-0.1,0.1l0,0c0,0,0,0,0,0c-0.7,0.5-1.3,1.1-1.7,1.7c-0.2,0.2-0.3,0.5-0.5,0.7c-0.4,0.7-0.8,1.4-1.1,2.1c-0.4,1-0.6,2-0.5,3
	c0,1,0.2,2.1,0.7,3c0.5,1.1,1.4,2.1,2.6,2.9l0.5,1.1c-3-0.8-5.9-2.3-8.3-4.5c-1.5-1.4-2.8-3-3.7-4.8c-0.4-0.7-0.6-1.5-0.8-2.2
	c0.2-0.1,0.4-0.2,0.7-0.3l0.4,0.4c0.1,0.1,0.2,0.2,0.4,0.2c0.3,0,0.5-0.2,0.5-0.5c0-0.2-0.1-0.4-0.3-0.5L42,59.3
	C42,59,42,58.7,42,58.3z M43.4,61.4l-1.3-1c0-0.3-0.1-0.6-0.1-0.9l1.8,1.4C43.6,61,43.4,61.2,43.4,61.4z M43.9,61.1
	C43.9,61.1,43.9,61.1,43.9,61.1l0.2,0.2c0,0.1,0,0.2,0,0.3l0,0c-0.1,0.2-0.4,0.1-0.5,0.1l-0.1,0c0,0,0-0.1,0-0.1
	C43.5,61.2,43.7,61.1,43.9,61.1z M42.9,61.3c-0.2,0.1-0.4,0.2-0.6,0.2c-0.1-0.3-0.1-0.5-0.2-0.8L42.9,61.3z M39.3,55.9
	c0-0.3,0.2-0.5,0.5-0.5s0.5,0.2,0.5,0.5c0,0.2-0.1,0.3-0.3,0.4h-0.4C39.4,56.3,39.3,56.1,39.3,55.9z M39.9,56.5v1.1l-0.3-0.2v-0.9
	c0,0,0.1,0,0.1,0C39.8,56.6,39.8,56.5,39.9,56.5z M35.7,55.4L35.7,55.4c-0.1-0.1-0.1-0.1-0.1-0.2c0,0,0-0.1,0.1-0.1l0,0
	c0,0,0.1-0.1,0.1-0.1c0.1-0.1,0.3-0.1,0.4,0.1l5.6,4.3c0,0.3,0,0.6,0.1,0.8L35.7,55.4z M33.3,62.2c-0.3-1.2-0.1-2.4,0.5-3.6
	c0.5-1,1.2-1.9,2.2-2.9h0l5.9,4.7c0.1,0.4,0.1,0.7,0.2,1.1c-0.3,0.1-0.6,0.3-0.8,0.5h0c-0.1,0.1-0.2,0.1-0.3,0.2v0
	c-0.1,0.1-0.2,0.1-0.3,0.2l0,0c-0.4,0.3-0.7,0.7-1,1.1c-0.5,0.8-0.7,1.6-0.6,2.6c0,0.2,0.1,0.5,0.2,0.8l0,0c0,0.1,0.1,0.2,0.1,0.3
	c0.2,0.6,0.6,1.2,1.1,1.8c0.6,0.7,1.3,1.4,2.2,2.1l0,0c-3.4-1.7-5.8-3.4-7.4-5.1c-0.4-0.4-0.8-0.9-1.1-1.4c0-0.1-0.1-0.1-0.1-0.2h0
	C33.8,63.6,33.5,62.9,33.3,62.2z M39.9,67.5c0-0.1-0.1-0.1-0.1-0.2c0-0.1-0.1-0.2-0.1-0.3c0-0.1-0.1-0.2-0.1-0.2l0-2.5
	c0,0,0-0.1,0-0.1c0,0,0-0.1,0.1-0.1v0c0.1-0.1,0.1-0.2,0.2-0.3L39.9,67.5z M39.4,65l0,1.1c0,0,0,0,0,0C39.4,65.7,39.4,65.3,39.4,65z
	 M34.1,64.5c0.1,0.1,0.1,0.2,0.2,0.3c0.6,0.9,1.4,1.8,2.3,2.5l-0.8,0.9l-12.2-5.1L34.1,64.5z M23.2,64.1v-0.9h0l12.5,5.2l0,1
	L23.2,64.1z M30.1,68.2c-0.8-0.5-1.5-0.9-1.9-1.1c-0.4-0.2-0.5-0.4-0.5-0.8l4.6,1.9c0.5,0.5,0.9,1.1,1.3,1.7c0.4,0.6,0.9,1.3,1.3,2
	c1.4,2.4,3.3,4.2,5.5,5.6l-0.9,1.6c-0.9-0.5-1.7-1.1-2.4-1.8c-1.1-1-1.6-2.1-2.2-3.4c-0.5-1.2-1.1-2.5-2.4-4.1
	C31.8,69.2,30.9,68.6,30.1,68.2z M38.9,80.1c-1.2-0.8-2.2-1.6-3-2.5c-2-2.1-3.1-4.6-3.4-7.3c1.1,1.5,1.6,2.7,2.1,3.8
	c0.6,1.3,1.1,2.4,2.2,3.5c0.8,0.7,1.6,1.3,2.5,1.8L38.9,80.1z M41.2,81.4c-0.6-0.3-1.2-0.7-1.8-1l0.5-0.8c0.6,0.3,1.1,0.6,1.7,0.9
	L41.2,81.4z M41.5,79.7L41.5,79.7L41.5,79.7c0-0.2,0.1-0.4,0.2-0.5c0.1-0.1,0.3-0.2,0.5-0.2h0h0c0.2,0,0.4,0.1,0.5,0.2
	c0.1,0.1,0.2,0.3,0.2,0.5v0v0c0,0.2-0.1,0.4-0.2,0.5l0,0c-0.1,0.1-0.3,0.2-0.5,0.2l0.2-0.5v0c0.2-0.4-0.4-0.7-0.6-0.2l-0.2,0.4
	C41.6,80,41.5,79.9,41.5,79.7z M43.4,82.5c-0.6-0.3-1.2-0.5-1.7-0.8l0.4-1c0.5,0.2,1,0.4,1.5,0.6L43.4,82.5z M43.7,81.1
	c-0.5-0.2-1-0.3-1.4-0.5c0.2,0,0.5-0.1,0.6-0.3h0c0.2-0.2,0.3-0.4,0.3-0.6v0v0c0-0.3-0.1-0.5-0.3-0.6c-0.2-0.2-0.4-0.3-0.6-0.3h0h0
	c-0.3,0-0.5,0.1-0.6,0.3c-0.2,0.2-0.3,0.4-0.3,0.6v0v0c0,0.2,0.1,0.5,0.2,0.6c-0.6-0.3-1.1-0.5-1.7-0.8l1-1.6c1,0.6,2.1,1.1,3.2,1.5
	L43.7,81.1z M45.8,82.4c-0.3,0.2-0.6,0.4-0.9,0.7c-0.3-0.1-0.6-0.2-0.9-0.3l0.3-1.2c0.5,0.2,1.1,0.3,1.6,0.5L45.8,82.4z M45.9,81.8
	c-0.5-0.1-1.1-0.3-1.6-0.5l0.4-1.8c0.5,0.2,1,0.3,1.5,0.4L45.9,81.8z M46.3,79l-0.1,0.5c0,0-0.1,0-0.1-0.1c-0.1-0.1-0.2-0.3-0.2-0.5
	v0v0c0-0.2,0.1-0.4,0.2-0.5c0.1-0.1,0.3-0.2,0.5-0.2h0h0c0.2,0,0.4,0.1,0.5,0.2c0.1,0.1,0.2,0.3,0.2,0.5v0v0c0,0.2-0.1,0.4-0.2,0.5
	l0,0c-0.1,0.1-0.2,0.1-0.3,0.2l0.1-0.6C47,78.7,46.4,78.5,46.3,79z M49.4,81.1c-0.6,0-1.2,0.2-1.8,0.4c-0.4,0.1-0.8,0.3-1.1,0.5
	l0.3-1.9c0.9,0.2,1.7,0.3,2.6,0.3L49.4,81.1z M49.5,80.2c-0.9-0.1-1.7-0.2-2.6-0.3c0.2,0,0.3-0.1,0.4-0.2h0c0.2-0.2,0.3-0.4,0.3-0.6
	v0v0c0-0.3-0.1-0.5-0.3-0.6c-0.2-0.2-0.4-0.3-0.6-0.3h0h0c-0.3,0-0.5,0.1-0.6,0.3c-0.2,0.2-0.3,0.4-0.3,0.6v0v0
	c0,0.3,0.1,0.5,0.3,0.6c0,0,0,0,0.1,0.1c-0.5-0.1-0.9-0.2-1.3-0.4l0.5-2.4c1.4,0.5,2.8,0.8,4.2,0.9L49.5,80.2z M49.5,76.9l0,0.6
	c-0.1,0-0.1-0.1-0.2-0.1c-0.1-0.1-0.2-0.3-0.2-0.5v0v0c0-0.2,0.1-0.4,0.2-0.5c0.1-0.1,0.3-0.2,0.5-0.2h0h0c0.2,0,0.4,0.1,0.5,0.2
	c0.1,0.1,0.2,0.3,0.2,0.5v0v0c0,0.2-0.1,0.4-0.2,0.5l0,0c-0.1,0.1-0.1,0.1-0.2,0.1l0-0.6C50.1,76.5,49.5,76.4,49.5,76.9z M50,81
	l0-0.6c0.9,0,1.8,0,2.8-0.1l0.2,1.4C52,81.3,51,81.1,50,81z M53.3,79.4c0-0.4-0.7-0.4-0.6,0.1l0.1,0.5c-0.1,0-0.2-0.1-0.3-0.2
	c-0.1-0.1-0.2-0.3-0.2-0.5v0v0c0-0.2,0.1-0.4,0.2-0.5c0.1-0.1,0.3-0.2,0.5-0.2h0h0c0.2,0,0.4,0.1,0.5,0.2c0.1,0.1,0.2,0.3,0.2,0.5v0
	v0c0,0.2-0.1,0.4-0.2,0.5l0,0c0,0-0.1,0.1-0.1,0.1L53.3,79.4z M53.4,80.3c0.7-0.1,1.3-0.2,2-0.3l0.5,1.9c-0.8,0.1-1.6,0.2-2.3,0.2
	L53.4,80.3z M54.9,83.1c-0.4-0.3-0.7-0.6-1.1-0.8c0.7,0,1.4-0.1,2.2-0.2l0.2,0.6C55.8,82.8,55.3,82.9,54.9,83.1z M56.7,82.5L56.5,82
	c0.4-0.1,0.9-0.1,1.3-0.2l0.1,0.3C57.5,82.2,57.1,82.4,56.7,82.5z M58.1,80.6c-0.1-0.4-0.8-0.2-0.6,0.3l0.2,0.5c0,0,0,0,0,0h0h0
	c-0.2,0-0.4-0.1-0.5-0.2C57,81.1,57,80.9,57,80.7v0v0c0-0.2,0.1-0.4,0.2-0.5c0.1-0.1,0.3-0.2,0.5-0.2h0h0c0.2,0,0.4,0.1,0.5,0.2
	c0.1,0.1,0.2,0.3,0.2,0.5v0v0c0,0.2-0.1,0.3-0.1,0.4L58.1,80.6z M59.8,81.4c-0.4,0.2-0.8,0.3-1.2,0.5l-0.1-0.2
	c0.6-0.1,1.1-0.3,1.7-0.4C60,81.3,59.9,81.3,59.8,81.4z M58.4,81.5l-0.1-0.2c0.2-0.2,0.3-0.4,0.3-0.6v0v0c0-0.3-0.1-0.5-0.3-0.6
	c-0.2-0.2-0.4-0.3-0.6-0.3h0h0c-0.3,0-0.5,0.1-0.6,0.3c-0.2,0.2-0.3,0.4-0.3,0.6v0v0c0,0.3,0.1,0.5,0.3,0.6c0.2,0.2,0.4,0.3,0.6,0.3
	h0h0c0,0,0.1,0,0.1,0l0,0c-0.4,0.1-0.8,0.2-1.3,0.2l-0.5-2c1-0.2,2-0.5,3-0.9l1.1,2C59.6,81.2,59,81.4,58.4,81.5z M70.9,75.7
	c0.4,0.8,0.7,1.8,0.8,3.2l-7,0h0c0.9-0.7,1.7-1.4,2.4-2.3c0.8-0.8,1.5-1.7,2.2-2.7c0,0,0,0,0,0c0,0,0,0,0,0
	C69.9,74.3,70.5,74.9,70.9,75.7z M69.2,73.7c-0.7,0.9-1.4,1.9-2.2,2.7l0,0c-1.5,1.6-3.5,3.3-5.5,4.2c-0.2,0.1-0.5,0.2-0.7,0.3
	l-1.1-2.1c0.9-0.4,1.8-0.8,2.6-1.3c3.5-2.1,6.4-5.2,7.8-9.2h0.8c0,1-0.1,1.9-0.4,2.8C70.2,72,69.8,72.8,69.2,73.7z"/>
</svg>
