<?xml version="1.0" encoding="utf-8"?>
<!-- Generator: Adobe Illustrator 24.0.0, SVG Export Plug-In . SVG Version: 6.00 Build 0)  -->
<svg version="1.2" baseProfile="tiny" id="Layer_1" xmlns="http://www.w3.org/2000/svg" xmlns:xlink="http://www.w3.org/1999/xlink"
	 x="0px" y="0px" viewBox="0 0 100 100" xml:space="preserve">
<path d="M0,97c0-18.6,0-37.2,0-55.8c33.4,0,66.6,0,100,0c0,18.6,0,37.2,0,55.8C66.7,97,33.4,97,0,97z M98.3,95.3c0-17.6,0-35,0-52.5
	c-32.2,0-64.4,0-96.6,0c0,17.6,0,35.1,0,52.5C34,95.3,66.1,95.3,98.3,95.3z M84.1,23.5c-2.6-0.4-5-1.3-7.2-2.8
	c-1.5-1-2.9-2.1-4.2-3.1c-2.6-2-5.5-3.5-8.9-3.7c-3.3-0.2-6.2,0.6-8.6,3.1c-3.3,3.5-3.5,8.9-0.2,12.2c2,2,4.4,2.6,7.1,1.7
	c2.4-0.8,3.9-2.4,4.2-5c0.4-3.3-2.5-6.2-5.7-5.5c-1.4,0.3-2.5,1.1-2.9,2.5c-0.4,1.3-0.2,2.5,0.7,3.5c0.8,0.9,1.8,1.2,2.9,0.8
	c1-0.3,1.6-0.9,1.8-2c0.2-0.9-0.4-2-1.3-2.3c-0.8-0.3-1.8,0-2.1,0.7c-0.2,0.5-0.2,1-0.2,1.5c-0.9-1.2-0.4-2.7,1.2-3.2
	c2.2-0.7,4.5,1.5,4.1,4c-0.6,3.7-5,5.4-8.2,3.1c-3.7-2.7-3.5-9,0.2-11.7c3-2.2,7.4-2,10.4,0.5c2.4,2,3.7,4.6,4.7,7.5
	c0.1,0.4,0.3,0.7,0.4,1.2c1-1.5,0.9-3,1.2-4.7c1.4,2.3,2,4.5,1.4,6.9c0.2,0,0.3,0,0.3,0.1c1.6,0,2.7-0.8,3.8-1.9
	c1.5-1.5,3.2-2.4,5.2-2.7c0.2,0,0.4-0.1,0.8-0.3C84.6,23.6,84.3,23.5,84.1,23.5z M31,25.6c0.6-1.5,1.1-3,1.9-4.4
	c2.1-3.6,5-6,9.4-5.5c2.9,0.3,5.1,1.6,6.3,4.4c1.1,2.8,0.8,5.5-1.1,7.9c-1.9,2.4-5.4,2.6-7.7,0.7c-1.9-1.7-2-4.6-0.2-6.2
	c1.2-1.1,3-1,4,0.2c0.7,0.8,0.6,1.8-0.1,2.5c0.3-1.5-0.4-2.4-1.8-2.3c-0.8,0.1-1.3,0.5-1.6,1.3c-0.3,0.9-0.2,1.7,0.5,2.4
	c0.7,0.7,1.6,1,2.7,0.8c1.2-0.3,1.9-1.2,2.2-2.3c0.7-2.6-1.6-5-4.5-4.6c-3.7,0.4-5.4,5.2-3.1,8.3c2.3,3.1,7.1,3.5,10,0.8
	c4.3-4.1,3-11.6-2.5-14.3c-3.7-1.8-7.5-1.6-11.1,0.2c-2.4,1.2-4.5,2.9-6.7,4.5c-2.7,1.9-5.5,3.4-8.8,3.8c-0.2,0-0.4,0.1-0.6,0.2
	c0.1,0.1,0.1,0.2,0.2,0.2c0.1,0,0.3,0.1,0.4,0.1c2,0.3,3.7,1.2,5.1,2.6c0.4,0.4,0.9,0.8,1.4,1.2c0.8,0.6,1.7,0.9,2.8,0.7
	c-0.6-2.5,0-4.7,1.4-6.9c0.3,1.7,0.2,3.3,1.1,4.7C30.8,26,30.9,25.8,31,25.6z M48.6,12.1c0.5-0.5,0.5-0.9,0.2-1.4
	c-0.6-1-1.2-2-1.7-3c-0.4-0.6-0.5-1.3,0-1.8c0.4-0.3,1-0.6,1.5-0.5c0.7,0,1,0.7,1.1,1.3c0.2,1.1,0.4,2.2,0.6,3.3
	c0.6,0,0.8-0.2,0.7-0.8c-0.3-1.4-0.5-2.8-0.8-4.3c-0.2-1.3,0.7-2.3,1.9-1.9c0.7,0.2,1.1,0.9,0.9,1.9c-0.2,1.4-0.5,2.8-0.8,4.3
	c-0.1,0.5,0,0.8,0.7,0.8c0.2-1,0.4-2,0.6-3c0-0.2,0.1-0.4,0.1-0.6c0.1-0.6,0.5-1.1,1.1-1.1c0.5,0,1,0.2,1.4,0.5
	c0.5,0.4,0.5,1.1,0.1,1.7c-0.6,1.1-1.2,2.1-1.8,3.2c-0.4,0.7-0.4,0.7,0.2,1.4c0.5-0.9,1-1.7,1.5-2.6c0.4-0.6,0.9-1.1,1.6-0.9
	c0.5,0.1,1,0.6,1.2,1c0.3,0.7-0.1,1.3-0.6,1.7c-1,0.8-1.9,1.6-2.8,2.4c-0.3,0.2-0.4,0.7-0.5,1c0,0,0,0.1,0,0.1
	c-0.2,1.9-1.6,3.4-3.1,3.4c-1.5,0-2.9-1.4-3.2-3.4c-0.1-0.4-0.3-0.9-0.7-1.2c-0.9-0.8-1.8-1.6-2.8-2.4c-0.5-0.4-0.9-1-0.6-1.7
	c0.2-0.4,0.7-0.9,1.2-1c0.7-0.2,1.2,0.2,1.6,0.9C47.6,10.4,48.1,11.2,48.6,12.1z M54.2,14c-0.3-0.8-0.5-1.6-1-2.3
	c-0.9-1.3-2.4-1.2-3.3,0c-1,1.2-1,3.4,0.1,4.7c0.9,1.1,2.4,1.1,3.2,0C53.6,15.7,53.8,14.9,54.2,14z M57.4,34c-1.5,0-2.3-1-3.1-2
	c-1.6-2.1-4-2.1-5.6,0c-0.8,1-1.6,1.9-3.1,2c1.4,1.3,3,1.2,3.9-0.2c1.4,1.5,2.6,1.5,4,0C54.2,35.5,56.4,35.1,57.4,34z M50.8,26.3
	c0.5,0,1,0,1.5,0c-0.6-2.2-0.6-4.3,0.2-6.4c-0.4,0-0.6,0-0.9,0c-0.3,0-0.6,0-1,0C51.5,22,51.4,24.1,50.8,26.3z M51.6,27.2
	c-0.8,0-1.4,0.6-1.4,1.3c0,0.8,0.6,1.4,1.4,1.3c0.7,0,1.3-0.6,1.3-1.3C52.9,27.9,52.3,27.3,51.6,27.2z M79.2,74.3
	c-3-8.1-6-16.1-8.9-24.2c-0.2-0.6-0.5-0.8-1.2-0.8c-3.5,0-7,0-10.5,0c-0.3,0-0.6,0-0.8,0c-0.2,0.7,0,1,0.7,1.2
	c0.7,0.2,1.4,0.6,1.9,1.1c0.5,0.6,0.9,1.4,1.1,2.1c1.2,3,2.3,6,3.5,9.1c0.1,0.3,0.1,0.7,0,1.1c-0.7,2-1.4,4-2,6.1
	c-0.6,1.7-1.2,3.4-1.8,5.3c-0.2-0.4-0.3-0.7-0.4-1c-2.9-8-5.9-16.1-8.8-24.1c-0.2-0.6-0.4-0.8-1.1-0.8c-3.9,0-7.7,0-11.6,0
	c-0.2,0-0.5,0-0.7,0.1c-0.1,0.6-0.2,1,0.5,1c2.6,0,3.9,1.5,4.8,3.8c4.3,11.7,8.6,23.4,13,35.1c0.1,0.4,0.3,0.8,0.6,1.4
	c2.9-8.6,5.6-16.9,8.5-25.4c3.2,8.6,6.4,16.9,9.6,25.2c0.1,0,0.1,0,0.2,0C80.3,76.7,85,63,89.7,49.3c-3.1,0-6.1,0-9.1,0
	c-0.3,0.8,0.1,1,0.8,1c2.4,0.1,4,1.5,4.2,3.6c0.1,1,0.2,2.1-0.1,3.1c-0.8,2.9-1.7,5.8-2.6,8.7c-1,3.1-2.1,6.3-3.3,9.6
	C79.4,74.8,79.3,74.6,79.2,74.3z M10.1,50.5c-0.2-0.8,0-1.1,0.7-1.1c5,0,9.9,0,14.9,0c2.4,0,4.8-0.1,7.3,0c1.9,0.1,3.8,0.8,5.5,1.8
	c5.5,3.3,6,10.3,0.8,14.1c-1.3,1-2.8,1.6-4,2.3c1.3,0.6,2.9,1.1,4.3,2c3.3,2,5.3,4.8,5.1,8.8c-0.2,4.1-2.6,6.8-6.2,8.6
	c-1.9,1-4,1.4-6.2,1.4c-7,0-14.1,0-21.1,0c-0.2,0-0.5,0.1-0.7,0c-0.2-0.1-0.4-0.3-0.5-0.5c0.2-0.1,0.3-0.4,0.5-0.4
	c0.6-0.2,1.3-0.2,1.9-0.4c1.9-0.6,2.7-1.8,2.7-3.8c0-9.3,0-18.5,0-27.8c0-3.1-1.5-4.7-4.6-5C10.4,50.5,10.3,50.5,10.1,50.5z
	 M24.2,68.5c0,0.5-0.1,0.7-0.1,1c0,4.8,0,9.6,0,14.5c0,0.3,0,0.7,0.1,1c0.2,1.8,1.1,2.6,2.9,2.6c0.4,0,0.9,0,1.3,0
	c3.7,0.3,5.7-2.1,6.6-4.5c1-2.8,1.1-5.7,0.5-8.5c-0.7-3.1-2.5-5.1-5.6-5.7C28.1,68.5,26.2,68.6,24.2,68.5z M24.2,67.5
	c1.4-0.1,2.7-0.1,4-0.2c2.8-0.4,4.7-1.9,5.5-4.6c0.8-2.7,0.9-5.4,0-8.1c-0.9-2.6-2.7-4.2-5.5-4.4c-1-0.1-2,0.1-3,0.1
	c-0.8,0-1,0.3-1,1.1c0,5,0,10,0,15.1C24.1,66.8,24.2,67.1,24.2,67.5z M51.4,16.2c0.7,0.1,1.5-0.4,1.6-1.2c0.1-0.8,0-1.6-0.3-2.3
	c-0.5-1-1.8-0.9-2.4,0C50.1,13,50,13.5,49.8,14C49.9,15.2,50.5,16,51.4,16.2z"/>
</svg>
