<?xml version="1.0" encoding="utf-8"?>
<!-- Generator: Adobe Illustrator 24.0.0, SVG Export Plug-In . SVG Version: 6.00 Build 0)  -->
<svg version="1.2" baseProfile="tiny" id="Layer_1" xmlns="http://www.w3.org/2000/svg" xmlns:xlink="http://www.w3.org/1999/xlink"
	 x="0px" y="0px" viewBox="0 0 100 100" xml:space="preserve">
<path fill="#010101" d="M94.8,28.3L84,57.9l-9.1-24.1L70,46.8l10,24.9h3.7L100,28.3l0,0L94.8,28.3z M73.1,28.3L73.1,28.3l-5.2,0
	L57.1,57.9L47.3,32c-0.9-2.3-3-3.8-5.4-3.8h-6.2l17.4,43.4h3.7L73.1,28.3z M16.3,66.8H9.9v-15h6.2c6.3,0,9.7,2.2,9.7,7.7
	C25.8,64.9,22.3,66.8,16.3,66.8L16.3,66.8z M9.9,33.1h5.8c5.4,0,8.4,1.9,8.4,6.9c0,5.1-3,7-8.4,7H9.9V33.1z M22.7,49.3v-0.1
	c5.9-0.4,11.3-3.9,11.3-10.2c0-7.6-7.2-10.7-16-10.7H0v43.3h18.9c9.3,0,16.8-3.3,16.8-11.7C35.7,52.4,29,49.6,22.7,49.3L22.7,49.3z"
	/>
</svg>
