<?xml version="1.0" encoding="utf-8"?>
<!-- Generator: Adobe Illustrator 24.0.0, SVG Export Plug-In . SVG Version: 6.00 Build 0)  -->
<svg version="1.2" baseProfile="tiny" id="Layer_1" xmlns="http://www.w3.org/2000/svg" xmlns:xlink="http://www.w3.org/1999/xlink"
	 x="0px" y="0px" viewBox="0 0 100 100" xml:space="preserve">
<path d="M9.4,100v-5.1c0-0.7,0.5-1.2,1.2-1.2h7.2c0.6,0,1.2-0.5,1.2-1.1c0-0.5,0.1-1,0.1-1.4c0-23.6,0-47.2-0.1-70.9
	c0-1.7-0.6-3.4-0.8-5.1c-0.2-1.7,0.6-2.1,2.2-1.5c1.5,0.5,3.1,0.8,3.3,2.4c0.1,0.6,0.7,1,1.3,1c0.7-0.1,1.3-0.1,1.9-0.1
	c3.1,0.1,6.2,0.2,9.4,0.3c3.5,0.2,3.1,0.4,3.8-2c0.1-0.5,0.6-0.8,1.1-0.9c1.3-0.1,2.8-0.7,3.6,0.8c0.2,0.4,0.7,0.7,1.2,0.6
	c1-0.1,2-0.1,3-0.2c0.6,0,1-0.5,1.1-1c0.2-1.4,0.5-2.8-1.1-4.2c-0.6-0.6-0.6-1.9-0.7-3.1c0-0.5,0.3-1.1,0.8-1.2c0,0,0.1,0,0.1,0
	c2-0.2,2.7-1.4,2.5-3.3C51.6,1.5,51.2,0,53.3,0c2.2,0,3.3,0.8,3.3,2.8c0,1.7,0.6,2.7,2.3,2.9c1.4,0.2,1.8,0.7,1.3,2.3
	c-0.8,2.5-1.6,5.2-1.9,7.8c-0.3,2.4-0.1,4.8-0.1,7.3c0,0.7,0.6,1.2,1.3,1.2c1.9,0,3.9-0.2,5.8,0.1c2,0.3,3.7-2,5.7-1.3
	c0.5,0.2,1.2,0,1.4-0.6c0.8-1.4,2.1-2.1,4.3-1.8c0.7,0.1,1.3,0.8,1.1,1.5c-0.2,1-0.4,2.1-0.7,3.1c-0.1,0.6-0.3,1.3-0.3,1.9
	c0.1,21.5,0.2,42.9,0.2,64.4c0,2.2,0.7,2.9,2.8,2.8c3.1-0.1,6.3,0,9.4,0c0.5,0,1,0.3,1.2,0.8c0.5,1.5-0.5,4.8-2,4.8 M52.2,93.8
	c0-1,0-1.8,0-2.5c0-5.3,0-10.7,0-16c0-15.7-0.1-31.5-0.2-47.2c0-1-0.2-2.6-0.7-2.8c-1.7-0.5-3.6-0.8-5.4-0.6c-0.4,0-1,2.1-1,3.2
	C45,49.3,45.2,70.6,45.3,92c0,0.6,0.1,1.1,0.2,1.8C47.7,93.8,49.7,93.8,52.2,93.8z"/>
</svg>
