<?xml version="1.0" encoding="utf-8"?>
<!-- Generator: Adobe Illustrator 25.2.3, SVG Export Plug-In . SVG Version: 6.00 Build 0)  -->
<svg version="1.2" baseProfile="tiny" id="Layer_1" xmlns="http://www.w3.org/2000/svg" xmlns:xlink="http://www.w3.org/1999/xlink"
	 x="0px" y="0px" viewBox="0 0 100 100" overflow="visible" xml:space="preserve">
<path d="M94.72,38.96l-4.23-0.33c-0.91-3.25-2.2-6.34-3.83-9.22l2.77-3.22c1.94-2.27,1.81-5.65-0.3-7.75l-7.57-7.57
	c-2.11-2.11-5.49-2.24-7.75-0.3l-3.22,2.77c-2.88-1.63-5.97-2.92-9.22-3.82l-0.33-4.23C60.81,2.3,58.33,0,55.35,0h-10.7
	c-2.99,0-5.47,2.3-5.69,5.28l-0.32,4.23c-3.25,0.91-6.35,2.2-9.23,3.82l-3.22-2.77c-2.27-1.94-5.64-1.81-7.75,0.3l-7.57,7.57
	c-2.11,2.1-2.24,5.49-0.29,7.75l2.76,3.22c-1.62,2.88-2.92,5.97-3.82,9.22l-4.23,0.33C2.29,39.19,0,41.67,0,44.65v10.7
	c0,2.99,2.29,5.46,5.27,5.69l4.23,0.32v0.01c0.91,3.24,2.2,6.34,3.82,9.22l-2.76,3.22c-1.94,2.27-1.82,5.64,0.29,7.75l7.57,7.57
	c2.11,2.11,5.49,2.24,7.75,0.29l3.22-2.76c2.88,1.62,5.98,2.92,9.23,3.82l0.32,4.23c0.22,2.98,2.71,5.27,5.69,5.27h10.7
	c2.99,0,5.47-2.29,5.69-5.27l0.33-4.23c3.25-0.91,6.34-2.2,9.22-3.82l3.22,2.76c2.27,1.94,5.64,1.82,7.75-0.29l7.57-7.57
	c2.11-2.11,2.24-5.49,0.3-7.75l-2.77-3.22c1.62-2.88,2.92-5.98,3.83-9.22v-0.01l4.23-0.32c2.98-0.23,5.28-2.71,5.28-5.69v-10.7
	C100,41.67,97.7,39.19,94.72,38.96z M40.24,59.42c0,2.52-2.04,4.56-4.56,4.56c-2.52,0-4.57-2.04-4.57-4.56V43.49
	c0-2.52,2.05-4.56,4.57-4.56c1.26,0,2.4,0.5,3.22,1.34c0.83,0.83,1.34,1.96,1.34,3.22V59.42z M55.13,70.35
	c0,2.52-2.04,4.56-4.56,4.56c-2.52,0-4.56-2.04-4.56-4.56V32.56c0-2.52,2.04-4.57,4.56-4.57c1.26,0,2.4,0.51,3.22,1.34
	c0.83,0.83,1.34,1.96,1.34,3.23V70.35z M70.66,59.42c0,2.52-2.04,4.56-4.56,4.56c-2.52,0-4.57-2.04-4.57-4.56V43.49
	c0-2.52,2.04-4.56,4.57-4.56c1.26,0,2.4,0.5,3.22,1.34c0.83,0.83,1.34,1.96,1.34,3.22V59.42z"/>
<path fill="#FFFFFF" d="M55.13,32.56v37.79c0,2.52-2.04,4.56-4.56,4.56c-2.52,0-4.56-2.04-4.56-4.56V32.56
	c0-2.52,2.04-4.57,4.56-4.57c1.26,0,2.4,0.51,3.22,1.34C54.62,30.16,55.13,31.3,55.13,32.56z M69.32,40.27
	c-0.83-0.83-1.96-1.34-3.22-1.34c-2.52,0-4.57,2.04-4.57,4.56v15.93c0,2.52,2.04,4.56,4.57,4.56c2.52,0,4.56-2.04,4.56-4.56V43.49
	C70.66,42.23,70.15,41.1,69.32,40.27z M38.91,40.27c-0.83-0.83-1.96-1.34-3.22-1.34c-2.52,0-4.57,2.04-4.57,4.56v15.93
	c0,2.52,2.05,4.56,4.57,4.56c2.52,0,4.56-2.04,4.56-4.56V43.49C40.24,42.23,39.73,41.1,38.91,40.27z"/>
</svg>
