<?xml version="1.0" encoding="utf-8"?>
<!-- Generator: Adobe Illustrator 24.0.0, SVG Export Plug-In . SVG Version: 6.00 Build 0)  -->
<svg version="1.2" baseProfile="tiny" id="Layer_1" xmlns="http://www.w3.org/2000/svg" xmlns:xlink="http://www.w3.org/1999/xlink"
	 x="0px" y="0px" viewBox="0 0 100 100" xml:space="preserve">
<path d="M65.1,98.2c-5.4-3-10.5-6.5-14.2-11.7c0,4.6,0,9,0,13.5c-0.6,0-1.3,0-2.2,0c0-4.4,0-8.8,0-13.5c-3.8,5.3-8.8,8.7-14.4,11.6
	c2.3-5,5.4-9.4,9.3-13.4c-13.5,2.9-26.6,0.8-39.5-3c0-0.2-0.1-0.4-0.1-0.5c4.8-1.2,9.5-2.7,14.4-3.6c4.8-0.9,9.8-1.3,14.8-1.9
	c-14.7-9.2-23.8-23.2-31-39.2c16.3,7.1,30.9,15.7,40.8,30.9C36.7,44.1,41.5,22.1,49.9,0c8.6,22.1,13.3,44.1,6.9,67.5
	c9.9-15.2,24.4-24.1,40.9-31.1c-7.4,15.9-16.4,29.9-31.2,39.2c5,0.6,9.9,1,14.7,1.9c4.8,0.9,9.6,2.4,14.3,3.8
	c-13,4.1-26.1,6.3-39.2,3.3c3.1,4.2,6.3,8.6,9.4,13C65.5,97.9,65.3,98.1,65.1,98.2z"/>
</svg>
