<?xml version="1.0" encoding="utf-8"?>
<!-- Generator: Adobe Illustrator 24.0.0, SVG Export Plug-In . SVG Version: 6.00 Build 0)  -->
<svg version="1.2" baseProfile="tiny" id="Layer_1" xmlns="http://www.w3.org/2000/svg" xmlns:xlink="http://www.w3.org/1999/xlink"
	 x="0px" y="0px" viewBox="0 0 100 100" xml:space="preserve">
<path d="M42.5,76.7C34.3,81,26,82.8,17,80.2C10.4,78.3,5,74.5,0.1,68.9c10.2,0,19.9,0,29.7,0C13.9,61.2,3.8,49.1,0,31.4
	c16.7,6.8,30.8,16.6,42.7,29.7C33.7,39.5,36.5,19.4,50,0c13.6,19.6,16.4,39.8,7,61.5c11.9-13.2,26-23.3,42.9-30.1
	c-3.8,17.6-13.7,29.7-29.7,37.3c9.7,0,19.5,0,29.8,0c-5.7,6.6-12.1,10.7-20.2,12.1c-8.1,1.4-15.5-0.5-22.5-5
	c5.8,6,11.5,11.8,17.6,18c-9,0.5-16-2.4-21.6-9.8c0,5.6,0,10.7,0,15.9c-2.2,0-4.1,0-6.4,0c0-5.1,0-10.2,0-15.3
	c-5.6,6.9-12.7,9.6-21.2,9.3C31.3,88.1,36.9,82.4,42.5,76.7z"/>
</svg>
