<?xml version="1.0" encoding="utf-8"?>
<!-- Generator: Adobe Illustrator 24.0.0, SVG Export Plug-In . SVG Version: 6.00 Build 0)  -->
<svg version="1.2" baseProfile="tiny" id="Layer_1" xmlns="http://www.w3.org/2000/svg" xmlns:xlink="http://www.w3.org/1999/xlink"
	 x="0px" y="0px" viewBox="0 0 100 100" xml:space="preserve">
<path d="M50.4,86.1c0.2,4.6,0.4,9.2,0.7,13.9c-0.8,0-1.5,0-2.5,0c0.2-4.6,0.4-9.2,0.7-13.8C49.1,86.1,49,86,48.9,86
	c-0.1,0.1-0.1,0.3-0.2,0.4c-1.4,1.9-2.5,4.1-4.2,5.5c-1.2,1-2.2,2.6-3.5,3.1c-2.5,1-4.9,2.3-7.3,3.5c-0.9,0.5-2.1,0.5-3.1,0.7
	c1-1.5,2-3.1,3.2-4.7c0.9-1.2,2.4-2.3,2.7-3.6c0.4-1.9,1.9-1.9,2.9-2.8c0.2-0.2,0.2-0.7,0.4-1c0.1-0.2,0.4-0.5,0.6-0.6
	c0.8-0.4,1.6-0.7,2.3-1.4c-1.5,0.5-3,1.1-4.6,1.6c-0.5,0.1-1.2,1-1.6-0.3c0-0.1-0.7,0-1.1,0.1c-2.1,0.5-4.2,0.9-6.5,1.5
	c0.1-0.6,0.2-1,0.3-1.6c-2.9,0.4-5.6,0.7-8.6,1.1c0.1-0.6,0.1-1.1,0.2-1.7c-2.5-0.3-4.9-0.5-7.4-0.8c0.2-0.3,0.3-0.6,0.5-1
	c-2.3-0.5-4.6-0.9-7-1.4c0.1-0.4,0.1-0.8,0.2-1.3c-2-0.4-3.9-0.8-5.9-1.2c0-0.1,0-0.2,0-0.3c1.6-0.2,3.3-0.4,4.9-0.6
	c0.8-0.1,2,0.2,1.2-1.4c2-0.2,3.8-0.4,5.6-0.6c0.5-0.1,1.8,0.6,1.5-0.9c0.5-0.1,1-0.2,1.5-0.2c2,0,3.9,0,6,0
	c-0.1-0.7-0.2-1.2-0.3-1.9c2.9,0.7,5.6,1.4,8.4,2.1c0-0.5,0-0.9,0-1.5c1.5,0.4,2.8,0.9,4.2,1.3c0.1-0.2,0.1-0.3,0.2-0.5
	c-2.9-1.3-5.8-2.7-8.8-4.1c0.6-0.5,1.1-0.9,1.7-1.4c-3.1-1.8-6.2-3.6-9.4-5.5c0.6-0.5,1.1-1,1.7-1.5c-2.3-2.2-4.6-4.3-7.2-6.8
	c1-0.2,1.5-0.3,2-0.4c-2-2.4-3.9-4.8-6-7.2C9,48.3,9.4,48,9.8,47.6C8,45.4,6.2,43.2,4.5,41c0.1-0.1,0.1-0.2,0.2-0.3
	c2.3,1.5,4.7,3,7.1,4.5c0.3-0.5,0.5-0.9,0.9-1.5c2.6,1.7,5.2,3.3,7.9,5.1c0-0.6-0.1-1-0.1-1.8c2.7,2.1,5.2,4,7.8,6.1
	c0.4-0.6,0.7-1.2,1.2-2c2.2,2.9,4.2,5.7,6.5,8.8c0.4-0.7,0.6-1.2,1-2c1.9,3,3.6,5.7,5.4,8.5c0.1-0.1,0.2-0.1,0.3-0.2
	c-0.8-2-1.7-3.9-2.5-6c0.7-0.1,1.2-0.1,1.9-0.2c-1.3-4.2-2.5-8.2-3.8-12.6c1,0.3,1.8,0.5,2.9,0.9c-1-4.8-1.9-9.5-2.9-14.4
	c1.1,0.3,2,0.5,3.1,0.8c0.3-4.3,0.5-8.5,0.8-12.7c0.1-0.1,0.2-0.2,0.3-0.3c0.3,0.5,0.5,1.1,0.8,1.6c0.2-0.1,0.4-0.2,0.5-0.3
	c0.6-4,1.2-8.1,1.8-12.3c0.7,0.2,1.4,0.4,2.2,0.6C48.4,7.5,49,3.8,49.6,0c0.1,0,0.3,0,0.4,0c0.7,3.7,1.3,7.5,2,11.3
	c0.7-0.2,1.4-0.4,2.2-0.7c0.6,4.1,1.2,8.2,1.8,12.3c0.1,0.1,0.2,0.1,0.4,0.2c0.3-0.5,0.5-1,0.8-1.5c0.2,0.1,0.3,0.2,0.5,0.2
	c0.3,4.2,0.5,8.4,0.8,12.7c1-0.2,1.9-0.4,3.1-0.7c-1,4.9-1.9,9.5-2.9,14.4c1-0.3,1.8-0.5,2.9-0.9c-1.3,4.3-2.5,8.4-3.8,12.6
	c0.6,0.1,1.2,0.1,1.9,0.2c-0.8,2-1.7,3.9-2.5,5.8c0.1,0.1,0.2,0.1,0.4,0.2c1.7-2.7,3.3-5.4,5.1-8.2c0.4,0.7,0.6,1.3,1,2
	c2.2-3,4.3-5.8,6.6-8.8c0.5,0.7,0.8,1.3,1.3,2c2.5-2,5-3.9,7.7-6c0,0.6,0.1,1.1,0.1,1.7c2.6-1.7,5.2-3.4,7.8-5.1
	c0.3,0.5,0.6,0.9,0.9,1.5c2.4-1.5,4.7-3,7.1-4.5c0.1,0.1,0.1,0.2,0.2,0.2c-1.7,2.1-3.5,4.3-5.3,6.5c0.5,0.3,0.9,0.6,1.4,1
	c-2,2.4-3.9,4.7-5.9,7.1c0.5,0.1,0.9,0.2,1.5,0.3c-2.4,2.2-4.7,4.4-7.2,6.7c1,0.8,1.5,1.2,2.2,1.8c-3.2,1.9-6.3,3.7-9.5,5.6
	c0.7,0.5,1.1,0.8,1.8,1.3c-3.1,1.4-6.1,2.8-9,4.2c0.1,0.2,0.1,0.4,0.2,0.6c1.4-0.5,2.8-1,4.3-1.5c0,0.5,0,0.9,0,1.5
	c2.8-0.6,5.5-1.2,8.3-1.9c0,0.7,0,1.2,0,1.8c2.5,0,4.9,0,7.6,0c-0.2,0.5-0.3,0.7-0.5,1.1c2.4,0.3,4.7,0.5,7.2,0.8
	c0,0.4,0.1,0.8,0.1,1.3c2.1,0.2,4.2,0.5,6.3,0.7c0,0.1,0,0.2,0.1,0.3c-1.7,0.3-3.4,0.6-5.1,1.1c-0.6,0.2-1.1,0.7-1.6,1.1
	c0.1,0.2,0.1,0.3,0.2,0.5c-2.3,0.4-4.5,0.9-7,1.3c0.2,0.4,0.3,0.7,0.5,1c-2.5,0.3-4.9,0.5-7.4,0.8c0.1,0.6,0.2,1,0.3,1.7
	c-2.9-0.4-5.6-0.7-8.5-1.1c0.1,0.6,0.1,1,0.2,1.4c-0.2,0-0.4,0.1-0.5,0.1c-1.5-0.3-3.1-0.8-4.6-1c-0.9-0.1-2-1.5-2.8,0.2
	c0,0.1-0.7-0.2-1.1-0.3c-1.5-0.5-3-1.1-4.8-1.7c0.2,0.3,0.2,0.4,0.3,0.4c1.9,1.3,4,2.5,5.8,4.1c1.2,1.1,1.9,2.7,2.8,4
	c0.2,0.3,0.3,0.7,0.6,1c1.2,1.7,2.3,3.3,3.4,4.9c-2.3-0.8-4.6-1.6-6.9-2.5c-0.5-0.2-0.8-0.6-1.2-0.9c-1.7-0.9-3.2-2-4.6-3.2
	C54.3,90.9,52.3,88.6,50.4,86.1z"/>
</svg>
