<?xml version="1.0" encoding="utf-8"?>
<!-- Generator: Adobe Illustrator 25.2.3, SVG Export Plug-In . SVG Version: 6.00 Build 0)  -->
<svg version="1.2" baseProfile="tiny" id="Layer_1" xmlns="http://www.w3.org/2000/svg" xmlns:xlink="http://www.w3.org/1999/xlink"
	 x="0px" y="0px" viewBox="0 0 100 100" overflow="visible" xml:space="preserve">
<path fill="#231F20" d="M80.84,90.57l-0.16-2.32c-0.15-2.1-1.9-3.64-3.92-3.64c-0.26,0-0.52,0.03-0.78,0.08
	c-2.21,0.44-4.48,0.66-6.82,0.66c-0.94,0-1.86-0.04-2.79-0.11c-1.23-0.1-2.44-0.26-3.62-0.48c-3.51-0.64-6.84-1.8-9.9-3.41
	c-1.08-0.57-2.14-1.18-3.15-1.86c-2.92-1.94-5.55-4.31-7.77-7.01c-0.78-0.94-1.5-1.92-2.18-2.94c-1.92-2.89-3.43-6.08-4.44-9.48
	c-0.34-1.16-0.63-2.35-0.85-3.56c-0.39-2.09-0.59-4.25-0.59-6.45c0-1.36,0.08-2.7,0.22-4.02c0.14-1.22,0.34-2.42,0.6-3.6
	c0.76-3.47,2.05-6.77,3.76-9.77c0.6-1.07,1.25-2.09,1.96-3.09c2.04-2.86,4.49-5.39,7.28-7.53c0.96-0.74,1.97-1.44,3.02-2.07
	c2.95-1.83,6.19-3.21,9.63-4.1c1.18-0.31,2.37-0.54,3.58-0.72c1.71-0.26,3.46-0.39,5.24-0.39c1.5,0,2.97,0.09,4.41,0.27
	c0.17,0.02,0.33,0.03,0.49,0.03c2.13,0,3.92-1.72,3.92-3.91V8.81c0-2.43-0.99-4.64-2.58-6.23C73.8,0.99,71.6,0,69.16,0
	c-4.36,0-7.99,3.17-8.69,7.33C58.84,4.77,56,3.28,53.05,3.28c-1.15,0-2.31,0.22-3.44,0.7c-4.02,1.7-6.11,6.03-5.13,10.15
	c-1.5-1.03-3.24-1.54-4.97-1.54c-2.31,0-4.61,0.9-6.34,2.7c-3.04,3.14-3.27,7.95-0.76,11.35c-0.58-0.12-1.16-0.18-1.73-0.18
	c-3.54,0-6.89,2.15-8.23,5.66c-1.57,4.08,0.1,8.6,3.74,10.74c-4.04,0.82-7.04,4.4-7.04,8.62c0,0.11,0,0.21,0.01,0.32
	c0.15,4.36,3.44,7.87,7.63,8.43c-2.41,1.66-3.8,4.41-3.8,7.25c0,1.25,0.27,2.52,0.82,3.72c1.5,3.21,4.67,5.09,8,5.09
	c0.77,0,1.55-0.11,2.32-0.31c-0.91,1.44-1.36,3.07-1.36,4.7c0,2.41,0.98,4.82,2.92,6.56c1.68,1.52,3.79,2.26,5.9,2.26
	c1.94,0,3.88-0.63,5.47-1.9c-0.08,0.48-0.12,0.95-0.12,1.43c0,3.67,2.3,7.08,5.95,8.34c0.95,0.33,1.92,0.49,2.87,0.49
	c3.18,0,6.19-1.74,7.74-4.59c0.94,3.9,4.46,6.73,8.55,6.73c0.21,0,0.42-0.01,0.63-0.02C77.51,99.64,81.18,95.43,80.84,90.57z
	 M62.64,8.81c0-0.37,0.03-0.74,0.1-1.1c0.53-3.15,3.24-5.42,6.43-5.42c1.74,0,3.38,0.68,4.62,1.91c1.23,1.23,1.91,2.87,1.91,4.61
	v2.34c0,0.89-0.73,1.62-1.63,1.62c-0.07,0-0.14,0-0.21-0.01c-1.55-0.2-3.12-0.29-4.7-0.29c-1.89,0-3.76,0.14-5.57,0.41
	c-0.2,0.03-0.39,0.06-0.59,0.09l-0.37-0.86V8.81z M50.51,6.09c0.81-0.35,1.66-0.52,2.54-0.52c2.21,0,4.31,1.15,5.49,3
	c0.21,0.31,0.37,0.63,0.52,0.98l1.28,3.03v0.93c-0.19,0.05-0.38,0.09-0.57,0.15c-3.63,0.93-7.09,2.41-10.26,4.36
	c-0.17,0.1-0.34,0.21-0.5,0.31l-0.68-0.66l-1.29-3.04c-0.15-0.33-0.25-0.66-0.34-1.04C45.96,10.49,47.56,7.33,50.51,6.09z
	 M34.82,16.87c1.23-1.28,2.9-1.99,4.69-1.99c1.32,0,2.59,0.4,3.69,1.15c0.3,0.21,0.58,0.44,0.85,0.69l2.36,2.28l0.37,0.88
	c-0.16,0.11-0.32,0.23-0.47,0.35c-2.97,2.28-5.57,4.98-7.74,8.02c-0.11,0.16-0.23,0.32-0.34,0.49l-0.88-0.34l-2.38-2.29
	c-0.27-0.26-0.51-0.53-0.73-0.83C32.35,22.7,32.59,19.17,34.82,16.87z M24.57,32.93c0.96-2.5,3.41-4.18,6.09-4.18
	c0.44,0,0.86,0.05,1.3,0.14c0.34,0.06,0.69,0.17,1.05,0.3l3.07,1.18l0.67,0.65c-0.1,0.17-0.2,0.34-0.29,0.5
	c-1.86,3.27-3.21,6.77-4,10.42c-0.05,0.19-0.08,0.38-0.12,0.57l-0.93,0.03l-3.07-1.18c-0.37-0.14-0.7-0.3-1-0.49
	C24.59,39.26,23.43,35.92,24.57,32.93z M21.44,51.7c-0.01-0.07-0.01-0.15-0.01-0.22c0-3.08,2.19-5.77,5.22-6.38
	c0.33-0.07,0.69-0.11,1.08-0.13l3.3-0.11l0.87,0.34c-0.02,0.2-0.05,0.4-0.08,0.59c-0.16,1.43-0.24,2.86-0.24,4.28
	c0,2.33,0.21,4.64,0.63,6.87c0.04,0.19,0.08,0.38,0.11,0.58l-0.86,0.4l-3.29,0.11c-0.08,0.01-0.15,0.01-0.22,0.01
	c-0.29,0-0.59-0.02-0.88-0.06C23.92,57.53,21.54,54.91,21.44,51.7z M33.51,73.77c-0.56,0.16-1.14,0.24-1.71,0.24
	c-2.53,0-4.85-1.48-5.92-3.77c-0.4-0.87-0.61-1.79-0.61-2.75c0-2.15,1.05-4.16,2.8-5.38c0.31-0.21,0.63-0.4,0.96-0.55l2.98-1.39
	l0.95-0.03c0.05,0.19,0.1,0.38,0.15,0.57c1.06,3.59,2.65,7,4.73,10.11c0.11,0.16,0.21,0.32,0.33,0.48L37.53,72l-2.98,1.39
	C34.21,73.55,33.87,73.68,33.51,73.77z M48.62,82.62l-2.2,2.44c-0.24,0.28-0.51,0.53-0.81,0.76c-1.14,0.91-2.57,1.41-4.04,1.41
	c-1.62,0-3.16-0.6-4.36-1.67c-1.37-1.24-2.16-3.01-2.16-4.86c0-1.24,0.34-2.44,0.99-3.47c0.21-0.33,0.44-0.62,0.68-0.89l2.2-2.44
	l0.86-0.4c0.12,0.15,0.24,0.31,0.37,0.46c2.37,2.89,5.16,5.41,8.28,7.46c0.17,0.11,0.34,0.22,0.5,0.33L48.62,82.62z M61.91,91.17
	c-0.11,0.34-0.26,0.66-0.45,1c-1.14,2.09-3.33,3.4-5.72,3.4c-0.72,0-1.44-0.12-2.12-0.36c-2.63-0.91-4.41-3.39-4.41-6.18
	c0-0.36,0.03-0.7,0.09-1.05c0.06-0.36,0.15-0.73,0.27-1.07l1.07-3.1l0.63-0.71c0.18,0.1,0.34,0.19,0.52,0.28
	c3.31,1.73,6.87,2.96,10.54,3.63c0.2,0.04,0.39,0.07,0.59,0.1l0.07,0.94L61.91,91.17z M76.97,95.46c-1.15,1.31-2.73,2.11-4.46,2.23
	c-0.16,0.01-0.32,0.02-0.48,0.02c-3.02,0-5.62-2.05-6.33-4.99c-0.08-0.34-0.14-0.7-0.17-1.08l-0.23-3.28l0.31-0.89
	c0.2,0.02,0.4,0.04,0.6,0.05c1,0.08,1.99,0.11,2.96,0.11c2.44,0,4.89-0.24,7.26-0.7c0.11-0.02,0.22-0.04,0.34-0.04
	c0.86,0,1.57,0.66,1.63,1.5l0.17,2.33C78.68,92.46,78.11,94.15,76.97,95.46z"/>
</svg>
