<?xml version="1.0" encoding="utf-8"?>
<!-- Generator: Adobe Illustrator 24.0.0, SVG Export Plug-In . SVG Version: 6.00 Build 0)  -->
<svg version="1.2" baseProfile="tiny" id="Layer_1" xmlns="http://www.w3.org/2000/svg" xmlns:xlink="http://www.w3.org/1999/xlink"
	 x="0px" y="0px" viewBox="0 0 100 100" xml:space="preserve">
<path d="M0,50C0,22.4,22.4-0.1,50,0c27.5,0.1,50,22.5,50,50c0,27.3-22.7,50-50,50C22.5,100,0,77.5,0,50z M72,69.8
	c-0.6-0.9-1-1.6-1.6-2.2c-8.1-8.4-21.5-10.8-32.3-5.9c-3.4,1.6-6.5,3.6-9,6.4c-1.1,1.2-1,2.5,0,3.6c0.9,1,2.3,1,3.5,0.1
	c0.3-0.3,0.6-0.6,1-0.9c8.9-8.9,23.8-8.9,32.7,0c0.4,0.4,0.9,1,1.4,1.2c0.8,0.2,1.8,0.4,2.5,0.1C70.9,71.6,71.4,70.6,72,69.8z
	 M68.5,44.7c4.8-0.1,8.5-4,8.3-8.8c-0.1-4.8-4.1-8.6-8.7-8.5c-4.6,0.2-8.4,4.2-8.3,8.9C60,41.1,63.9,44.8,68.5,44.7z M31.5,44.7
	c4.7,0,8.6-3.8,8.7-8.5c0-4.7-3.9-8.7-8.7-8.8c-4.5,0-8.3,4-8.3,8.7C23.2,40.8,26.9,44.7,31.5,44.7z M71.9,36.1c0-2-1.8-3.7-3.8-3.7
	c-1.9,0-3.4,1.7-3.3,3.9c0,2.1,1.5,3.6,3.4,3.6C70.2,39.8,72,38.1,71.9,36.1z M31.4,32.4c-1.8,0-3.3,1.6-3.4,3.7
	c0,2.1,1.5,3.7,3.3,3.7c2.1,0,3.8-1.6,3.8-3.7C35.2,34.1,33.4,32.4,31.4,32.4z"/>
</svg>
