<?xml version="1.0" encoding="utf-8"?>
<!-- Generator: Adobe Illustrator 24.0.0, SVG Export Plug-In . SVG Version: 6.00 Build 0)  -->
<svg version="1.2" baseProfile="tiny" id="Layer_1" xmlns="http://www.w3.org/2000/svg" xmlns:xlink="http://www.w3.org/1999/xlink"
	 x="0px" y="0px" viewBox="0 0 100 100" xml:space="preserve">
<path d="M50.1,0C21.9,0,0,22.3,0,50c0,28,22.2,49.7,50,50c27.7-0.1,50.3-22.8,50-50.4C99.7,22.1,77.6,0,50.1,0z M41.6,34
	c0-0.1,0.1-0.2,0.1-0.2c0.1,0.1,0.2,0.2,0.3,0.2C41.9,34,41.7,34,41.6,34z"/>
<path fill="#FFFFFF" d="M50,73.3c-2.3,0-4.6,0.1-6.8,0c-4.5-0.2-8.3-3.1-9.4-7.2c-1.2-4.6,0.2-8.8,4.3-11.2c1.6-1,3.7-1.5,5.6-1.6
	c4.2-0.2,8.4-0.1,12.6-0.1c6,0.1,10.3,4.3,10.3,10c0,5.6-4.4,9.9-10.3,10C54.2,73.4,52.1,73.3,50,73.3C50,73.3,50,73.3,50,73.3z
	 M71.6,32.9c1.6-1.2,2-3.1,1-4.6c-0.9-1.5-2.8-2-4.4-1c-3.5,2.2-7,4.5-10.3,6.9c-1.6,1.1-1.7,3.8-0.1,4.9c3.6,2.6,7.4,4.9,11.1,7.3
	c1.1,0.7,2.5,0.5,3.3-0.5c0.7-0.8,1.2-2,1.1-3c-0.1-0.9-1-1.9-1.8-2.5c-1.6-1.3-3.4-2.4-5.5-3.8C68,35.3,69.8,34.1,71.6,32.9z
	 M28.5,40.3c-1.9,1.3-2.3,3.1-1.2,4.8c1,1.6,3,2,4.9,0.8c3.2-2.1,6.4-4.2,9.6-6.4c2.2-1.5,2.1-4.2,0-5.7c-3.1-2.2-6.2-4.3-9.4-6.3
	c-1.9-1.2-3.8-0.8-4.9,0.9c-1,1.6-0.5,3.4,1.2,4.7c1.7,1.2,3.4,2.3,5.4,3.6C32,37.9,30.2,39.1,28.5,40.3z"/>
</svg>
