<?xml version="1.0" encoding="utf-8"?>
<!-- Generator: Adobe Illustrator 24.0.0, SVG Export Plug-In . SVG Version: 6.00 Build 0)  -->
<svg version="1.2" baseProfile="tiny" id="Layer_1" xmlns="http://www.w3.org/2000/svg" xmlns:xlink="http://www.w3.org/1999/xlink"
	 x="0px" y="0px" viewBox="0 0 100 100" xml:space="preserve">
<path d="M49.9,0C22.3,0.1,0,22.4,0,50c0,27.5,22.4,50,50,50c27.5,0,50.2-22.7,50-50.1C99.9,22.4,77.3-0.1,49.9,0z"/>
<path fill="#FFFFFF" d="M49.9,71.3c-4.6,0.1-8.8-1.4-12.5-4c-1.7-1.2-2.1-3.2-1.1-4.8c1.1-1.7,3.1-2.3,4.9-1.2
	c3.2,2,6.6,3.5,10.4,2.7c2.5-0.5,4.9-1.8,7.3-2.8c1.3-0.6,2.6-0.6,3.8,0.2c1.2,0.8,1.8,2,1.4,3.4c-0.2,0.9-0.8,1.8-1.5,2.3
	C58.8,69.9,54.6,71.5,49.9,71.3z M25,42.9c0,3.9,3.3,7.1,7.2,7.1c3.8,0,7-3.2,7.1-7.1c0-4-3.2-7.1-7.1-7.2
	C28.1,35.7,25,38.9,25,42.9z M68,35.7c-4-0.1-7.2,3-7.2,7c-0.1,3.9,3.2,7.2,7.1,7.2c3.9,0,7.1-3.1,7.1-7C75,39,72,35.8,68,35.7z"/>
</svg>
