<?xml version="1.0" encoding="utf-8"?>
<!-- Generator: Adobe Illustrator 24.0.0, SVG Export Plug-In . SVG Version: 6.00 Build 0)  -->
<svg version="1.2" baseProfile="tiny" id="Layer_1" xmlns="http://www.w3.org/2000/svg" xmlns:xlink="http://www.w3.org/1999/xlink"
	 x="0px" y="0px" viewBox="0 0 100 100" xml:space="preserve">
<path d="M50,0C22.5-0.1,0,22.4,0,50c0,27.6,22,49.7,49.9,50c27.3,0.3,49.9-22.2,50.1-49.9C100.2,22.6,77.8,0.1,50,0z"/>
<path fill="#FFFFFF" d="M50.2,85.9c-14.7-0.4-26.6-10.1-29.6-24.6c-0.1-0.7,0.1-1.8,0.5-2.1c0.5-0.3,1.6-0.1,2.2,0.3
	c3.6,1.9,6.9,4.3,10.6,5.9c14.3,6.2,27.7,3.8,40.5-4.4c0.8-0.5,1.5-1.2,2.4-1.6c0.6-0.3,1.6-0.4,2.1-0.1c0.4,0.2,0.6,1.3,0.5,1.9
	C76.5,72.5,70,80.8,58.4,84.3C55.8,85.1,53,85.4,50.2,85.9z M60.7,32.6c-0.5,0.9-1.2,2,0.2,2.8c1.2,0.6,1.8-0.3,2.3-1.2
	c2.6-4.4,10.8-4.4,13.4,0.1c0.6,1,1.1,1.8,2.3,1.1c1.2-0.7,0.8-1.7,0.3-2.6c-2.1-3.6-5.4-4.8-9.4-4.8C66.1,28,62.7,29.1,60.7,32.6z
	 M20.8,32.6c-0.5,0.9-1.2,2,0.2,2.8c1.2,0.7,1.9-0.3,2.4-1.2c1-1.8,2.5-2.6,4.4-3c4-0.9,6.9,0.3,9.3,3.6c0.3,0.5,1.4,0.8,1.9,0.6
	c0.4-0.2,0.7-1.2,0.7-1.8c-0.1-0.7-0.5-1.3-1-1.9C36.5,28.9,33.5,28,31,28C25.8,28,22.4,29.6,20.8,32.6z"/>
</svg>
