<?xml version="1.0" encoding="utf-8"?>
<!-- Generator: Adobe Illustrator 24.0.0, SVG Export Plug-In . SVG Version: 6.00 Build 0)  -->
<svg version="1.2" baseProfile="tiny" id="Layer_1" xmlns="http://www.w3.org/2000/svg" xmlns:xlink="http://www.w3.org/1999/xlink"
	 x="0px" y="0px" viewBox="0 0 100 100" xml:space="preserve">
<path d="M50.4,0C22.7-0.3-0.1,22.3,0,50c0.2,27.8,22.1,49.6,50,50c27.7-0.3,49.9-22,50-50.2C100,22.5,78,0.3,50.4,0z"/>
<path fill="#FFFFFF" d="M36.7,76.6c-1.5-0.2-2.8-0.9-3.2-2.4s0.1-2.7,1.4-3.6c0.4-0.3,0.9-0.4,1.3-0.6c9.7-3.2,19.4-6.4,29-9.7
	c1.4-0.5,2.8-0.5,3.6,0.6c0.6,0.9,1,2.2,0.8,3.3c-0.1,0.8-1.1,1.9-1.9,2.1c-10,3.4-20.1,6.8-30.2,10.1
	C37.4,76.5,37.1,76.6,36.7,76.6z M30.1,38.4c0.1,2.8,2.2,4.8,5,4.8s5-2.2,4.9-5.1c0-2.8-2.2-4.9-5-4.8C32.1,33.4,30,35.6,30.1,38.4z
	 M65.1,43.3c2.8,0,4.9-2.1,4.9-4.9c0-2.8-2.1-4.9-4.8-5c-2.9,0-5.1,2.1-5.1,4.9C60,41.1,62.2,43.3,65.1,43.3z"/>
</svg>
