<?xml version="1.0" encoding="utf-8"?>
<!-- Generator: Adobe Illustrator 24.0.0, SVG Export Plug-In . SVG Version: 6.00 Build 0)  -->
<svg version="1.2" baseProfile="tiny" id="Layer_1" xmlns="http://www.w3.org/2000/svg" xmlns:xlink="http://www.w3.org/1999/xlink"
	 x="0px" y="0px" viewBox="0 0 100 100" xml:space="preserve">
<path d="M50.2,0C22,0.1,0.3,22.3,0,50c0.4,28,22.3,49.8,50,49.9c27.7,0.1,50.2-22.7,49.9-50.4C99.7,22.1,77.6,0,50.2,0z"/>
<path fill="#FFFFFF" d="M31.4,27.6c2.3,1.4,5.1,0.3,7.9,0.1c4.8-0.3,8.5,4.5,7.8,9.3c-0.8,5.7-5,10.4-10.7,11.8
	c-2.7,0.6-5-0.4-7.1-1.8c-4.2-2.8-6.7-6.7-6.4-11.9C23.2,31,26.8,27.7,31.4,27.6z M66.2,28.3c-0.7,0.3-1.7,0.1-2.5-0.1
	c-3.9-1.3-7.7,0.1-9.7,3.7c-1.8,3.2-1.2,6.4,0.2,9.5c2,4.3,7.5,8,11.3,7.7c6-0.6,11.7-6.9,11.7-13C77.2,29.9,71.9,26.3,66.2,28.3z
	 M58.3,68.9c4.1-6.5,0.3-14.5-7.3-15.4c-2.3-0.3-4,0.8-4.3,2.8c-0.2,2,1,3.3,3.4,3.8c0.8,0.2,1.9,0.6,2.3,1.2
	c0.5,0.9,0.8,2.2,0.6,3.1c-0.3,1.4-1.5,2.1-3.1,2.3c-2.1,0.2-3.3,1.6-3.2,3.4c0,1.7,1.2,3,3.2,3.3c0.1,0,0.2,0,0.4,0
	c1.8,0.3,3,1.5,3,3.2c0,1.8-1.1,3.1-3.1,3.4c-0.2,0-0.5,0-0.7,0.1c-1.8,0.4-2.9,1.9-2.8,3.6c0.2,1.8,1.8,3.1,3.7,2.9
	c1.3-0.2,2.8-0.4,4-1c6-3.1,7.4-10.2,3.2-15.6C57.8,69.6,58,69.2,58.3,68.9z"/>
</svg>
