<?xml version="1.0" encoding="utf-8"?>
<!-- Generator: Adobe Illustrator 24.0.0, SVG Export Plug-In . SVG Version: 6.00 Build 0)  -->
<svg version="1.2" baseProfile="tiny" id="Layer_1" xmlns="http://www.w3.org/2000/svg" xmlns:xlink="http://www.w3.org/1999/xlink"
	 x="0px" y="0px" viewBox="0 0 100 100" xml:space="preserve">
<path d="M50.1,0C22.6-0.1,0,22.2,0,49.9c0,28.6,23.2,50.2,49.9,50c27.5,0.1,50.2-22.2,50.1-49.8C99.9,22.3,78,0.2,50.1,0z"/>
<path fill="#FFFFFF" d="M71.1,73c-2,0-3.5,0-5,0c-2.7-8.1-8.3-11.8-17.2-11.4c-7.9,0.4-13.1,4.3-14.8,11.4c-1.5,0-3.1,0-4.8,0
	c-0.1-3.8,1.4-6.8,3.8-9.3c6.7-6.9,14.9-8.4,24-6c5.6,1.5,10,4.7,12.5,10.1C70.3,69.2,70.5,71,71.1,73z M77.2,38.9
	c-3.9-3.6-7.6-7.1-11.4-10.6c-3.6,3.8-7.1,7.4-10.4,10.9c1.1,1.3,2.1,2.4,3.1,3.6c2.6-2.5,5-4.9,7.6-7.3c2.6,2.4,5,4.7,7.6,7.1
	C74.9,41.3,76,40.1,77.2,38.9z M34.2,29c-4,3.5-7.8,6.8-11.4,9.9c1.3,1.6,2.3,2.7,3.3,3.9c2.6-2.5,5.1-4.9,7.6-7.3
	c2.5,2.3,5,4.6,7.5,7c1.2-1.2,2.2-2.3,3.5-3.6C40.9,35.3,37.2,31.8,34.2,29z"/>
</svg>
