<?xml version="1.0" encoding="utf-8"?>
<!-- Generator: Adobe Illustrator 24.0.0, SVG Export Plug-In . SVG Version: 6.00 Build 0)  -->
<svg version="1.2" baseProfile="tiny" id="Layer_1" xmlns="http://www.w3.org/2000/svg" xmlns:xlink="http://www.w3.org/1999/xlink"
	 x="0px" y="0px" viewBox="0 0 100 100" xml:space="preserve">
<path d="M89.7,0.1C63.3,0.1,36.8,0.2,10.4,0C4.2,0-0.1,3.9,0,10.5C0.2,27.2,0.2,44,0,60.8c-0.1,6,3.7,10.6,10.4,10.5
	C23,71,35.6,71.2,48.3,71.1c1.4,0,2.4,0.4,3.4,1.4c8.4,8.5,16.8,17,25.3,25.4c1.1,1.1,2.2,2.9,4.2,1.6c1.9-1.3,0.7-2.9,0.1-4.3
	c-3-7.4-5.9-14.7-8.9-22.1c-0.2-0.6-0.4-1.1-0.7-1.9h2c5.4,0,10.8,0,16.1,0c6.7,0,10.1-3.5,10.1-10.2c0-16.9,0-33.8,0-50.6
	C100,3.5,96.6,0.1,89.7,0.1z"/>
<path fill="#FFFFFF" d="M58.1,39.2c-0.2-10.8,1.7-18.7,6.7-25.8c0.9-1.4,4.5-2.2,5.8-1.3c1.1,0.7,0.6,1.5,0,2.2
	c-3.1,4.2-4.9,9-5.7,14.1c-1.6,10-0.1,19.4,5.4,28c0.3,0.5,0.7,0.9,0.9,1.4c0.1,0.4-0.1,1-0.4,1.2c-1.2,0.9-5,0.1-5.9-1.1
	C60.4,51.7,58.1,44.6,58.1,39.2z M42.7,32.8c-4,0-3.6-0.5-3.7,3.8c0,1.6,0.6,2,2.1,2c3.4-0.1,6.7,0,10.1,0c3.8,0,3.7,0,3.7-3.8
	c0-1.4-0.5-2.1-1.9-2c-2,0.1-4,0-6,0C45.6,32.8,44.2,32.7,42.7,32.8z M37.6,26c0.1-2.5-1.7-4.5-4.1-4.7c-2.5-0.2-4.7,1.9-4.7,4.5
	c-0.1,2.5,1.8,4.4,4.4,4.5C35.6,30.4,37.5,28.6,37.6,26z M28.8,45.5c0,2.5,2,4.4,4.4,4.4c2.6,0,4.4-1.9,4.4-4.5
	c0-2.7-1.8-4.6-4.4-4.5C30.6,41,28.7,43,28.8,45.5z"/>
</svg>
