<?xml version="1.0" encoding="utf-8"?>
<!-- Generator: Adobe Illustrator 24.0.0, SVG Export Plug-In . SVG Version: 6.00 Build 0)  -->
<svg version="1.2" baseProfile="tiny" id="Layer_1" xmlns="http://www.w3.org/2000/svg" xmlns:xlink="http://www.w3.org/1999/xlink"
	 x="0px" y="0px" viewBox="0 0 100 100" xml:space="preserve">
<path d="M50.4,0C22.7-0.3,0,22.3,0,50c0,27.4,22.5,50,50,50c27.5,0,50-22.4,50-50.2C99.9,22.5,78,0.3,50.4,0z"/>
<path fill="#FFFFFF" d="M45.1,64.6c-2.8,0-5.4,0-8.1,0c-2.8,0-5.5,0-8.3,0c-2.2,0-3.7-1.5-3.7-3.4c0-1.9,1.6-3.3,3.8-3.3
	c13,0,25.9,0,38.9,0c2.4,0,3.9,1.1,3.9,3.3c0.1,3.2,0.2,6.4-0.3,9.5c-1,6.3-7.5,11-13.8,10.5c-6.9-0.6-12.2-6-12.4-12.7
	C45.1,67.3,45.1,66,45.1,64.6z M23.4,34.9c-1.8,1.8-1.9,3.7-0.5,5.2c1.4,1.4,3.4,1.2,5.1-0.5c1.2-1.2,2.4-2.4,3.9-3.9
	c1.5,1.7,2.7,3.3,4.3,4.5c0.9,0.7,2.3,1.1,3.4,0.9c2.3-0.5,3.1-3.3,1.5-5.1c-1.4-1.6-3.2-2.9-4.8-4.3c0.5-0.5,0.5-0.6,0.5-0.7
	c1.2-1.2,2.4-2.4,3.5-3.6c1.6-1.7,1.8-3.5,0.4-4.9c-1.4-1.5-3.4-1.4-5.1,0.3c-1.2,1.3-2.4,2.6-3.7,4.1c-1.6-1.7-2.8-3-4.1-4.3
	c-1.7-1.7-3.5-1.8-4.9-0.4c-1.5,1.4-1.5,3.3,0.2,5.1c1.3,1.3,2.7,2.6,4.2,4C25.8,32.6,24.6,33.8,23.4,34.9z M73.5,27.4
	c1.6-1.6,1.7-3.6,0.3-4.9c-1.4-1.4-3.4-1.3-5,0.2c-1.3,1.2-2.5,2.5-4,4.1c-1.2-1.4-2.3-2.6-3.5-3.8c-1.7-1.7-3.6-1.9-5.1-0.6
	c-1.5,1.4-1.4,3.4,0.4,5.2c1.2,1.2,2.6,2.2,4.1,3.5c-1.1,1-1.8,1.6-2.4,2.2c-0.6,0.6-1.3,1.3-1.9,1.9c-1.6,1.7-1.7,3.5-0.3,4.9
	c1.4,1.4,3.4,1.3,4.9-0.3c1.3-1.3,2.4-2.7,3.7-4.2c1.7,1.8,2.9,3.2,4.3,4.5c1.7,1.7,3.7,1.7,5.1,0.2c1.3-1.4,1.1-3.3-0.5-4.9
	c-1.3-1.3-2.7-2.6-4.4-4.2C71,29.8,72.3,28.6,73.5,27.4z"/>
</svg>
