<?xml version="1.0" encoding="utf-8"?>
<!-- Generator: Adobe Illustrator 24.0.0, SVG Export Plug-In . SVG Version: 6.00 Build 0)  -->
<svg version="1.2" baseProfile="tiny" id="Layer_1" xmlns="http://www.w3.org/2000/svg" xmlns:xlink="http://www.w3.org/1999/xlink"
	 x="0px" y="0px" viewBox="0 0 100 100" xml:space="preserve">
<path d="M50.1,0C23-0.3,0.3,22.3,0,49.6C-0.3,76.8,22.3,99.8,49.6,100c27.3,0.2,50-22.3,50.4-49.9C100.3,23,77.6,0.3,50.1,0z"/>
<path fill="#FFFFFF" d="M50.1,55.3c7.3,0,14.6,0,22,0c3.5,0,4.4,1.1,4.1,4.7c-0.4,5.6-2,10.7-5.7,14.8c-7.5,8.3-17.1,10.8-27.8,8
	c-11.7-3-18.6-12.2-19-24.3c0-1.7,0.9-2.9,2.6-3.2c0.7-0.1,1.3-0.1,2-0.1C35.6,55.2,42.8,55.3,50.1,55.3z M38.1,39.6
	c1,1,2.5,0.9,3.3,0c0.9-1.1,0.6-2.1-0.4-3.1c-1.7-1.6-3.3-3.2-5.1-4.8c1.9-1.9,3.6-3.5,5.3-5.2c0.9-0.9,1.1-1.9,0.2-2.8
	c-0.8-0.9-1.9-1.2-3-0.4c-0.5,0.3-0.9,0.7-1.2,1.1c-1.3,1.4-2.5,2.8-3.9,4.4c-2-2-3.6-3.7-5.2-5.3c-0.9-0.9-1.9-0.9-2.9,0
	c-0.9,0.9-0.9,1.9-0.1,2.9c0.4,0.5,0.9,1,1.4,1.5c1.3,1.2,2.6,2.4,4.1,3.8c-2,1.9-3.9,3.6-5.5,5.3c-0.4,0.4-0.6,1.5-0.3,2.1
	c0.3,0.6,1.2,1.1,1.8,1.2c0.6,0.1,1.4-0.4,1.9-0.9c1.5-1.5,2.9-3.1,4.7-5C35,36.2,36.5,37.9,38.1,39.6z M61.9,23.8
	c-1.3-1.3-2.4-1.4-3.3-0.4c-1.1,1.2-0.6,2.3,0.4,3.2c1.6,1.6,3.2,3.1,5,4.9c-1.9,1.8-3.7,3.5-5.4,5.3c-0.8,0.7-1,1.7-0.2,2.4
	C59,39.7,60,40,60.8,40c0.5,0,1-0.7,1.4-1.1c1.4-1.4,2.8-2.8,4.3-4.3c1.7,1.7,3.1,3.2,4.7,4.7c1.2,1.1,2.7,1.2,3.6,0.2
	c0.9-0.9,0.7-2.1-0.5-3.4c-1.6-1.5-3.2-3-5-4.7c2-1.9,3.8-3.4,5.4-5.2c0.5-0.5,0.7-1.9,0.3-2.5c-0.4-0.6-1.6-0.9-2.4-0.9
	c-0.5,0-1.1,0.6-1.6,1.1c-1.4,1.4-2.8,2.9-4.3,4.6C64.8,26.8,63.4,25.3,61.9,23.8z"/>
</svg>
