<?xml version="1.0" encoding="utf-8"?>
<!-- Generator: Adobe Illustrator 24.0.0, SVG Export Plug-In . SVG Version: 6.00 Build 0)  -->
<svg version="1.2" baseProfile="tiny" id="Layer_1" xmlns="http://www.w3.org/2000/svg" xmlns:xlink="http://www.w3.org/1999/xlink"
	 x="0px" y="0px" viewBox="0 0 100 100" xml:space="preserve">
<path d="M50.3,0C22.7-0.1,0,22.5,0,50c0,27.5,22.6,50,50,50c27.6,0,50.1-22.7,50-50.4C99.9,22.5,77.4,0.1,50.3,0z"/>
<path fill="#FFFFFF" d="M49.7,83.2c-9.4-0.3-16.7-7.8-16.3-17C33.8,56.7,41,50,50.2,50.1c9.4,0.1,16.7,7.9,16.3,17
	C66.2,76.3,58.7,83.5,49.7,83.2z M76.4,27.8c0.5-1.6,0.1-2.9-1.2-3.8c-3.1-2.1-6.2-4.2-9.4-6.3c-2-1.3-3.9-1-5,0.7
	c-1.1,1.7-0.6,3.5,1.4,4.9c2.8,1.9,5.7,3.8,8.5,5.7c0.8,0.5,1.7,0.8,2.1,0.9C74.9,29.9,75.9,29.2,76.4,27.8z M34.5,17.4
	c-3.2,2-6.3,4.1-9.4,6.3c-1.9,1.3-2.2,3.2-1.1,4.8c1.1,1.5,2.9,1.8,4.8,0.6c3.1-2,6.2-4.1,9.3-6.2c0.9-0.6,1.4-1.7,1.8-2.1
	C39.9,17.5,37,15.9,34.5,17.4z M35.1,33.4c-2.9,0-5,2.1-5,5c0,2.9,2.2,5,5.1,4.9c2.8-0.1,4.8-2.2,4.8-5
	C39.9,35.5,37.8,33.4,35.1,33.4z M64.9,43.3c2.9,0,5-2.1,5-5c0-2.8-2.1-4.9-4.9-4.9c-2.9,0-5,2.1-5,5C60.1,41.1,62.1,43.2,64.9,43.3
	z"/>
</svg>
