<?xml version="1.0" encoding="utf-8"?>
<!-- Generator: Adobe Illustrator 24.0.0, SVG Export Plug-In . SVG Version: 6.00 Build 0)  -->
<svg version="1.2" baseProfile="tiny" id="Layer_1" xmlns="http://www.w3.org/2000/svg" xmlns:xlink="http://www.w3.org/1999/xlink"
	 x="0px" y="0px" viewBox="0 0 100 100" xml:space="preserve">
<path fill="#00ff00" d="M94.8,75.2c-11-20.9-22-41.7-32.9-62.6c-2.5-4.8-6.4-7.5-11.8-7.6c-5.5,0-9.4,2.7-12,7.6
	C27.2,33.4,16.4,54.3,5.3,74.9c-5.1,9.5,1.1,20.5,12.3,20.2C28.4,94.8,39.2,95,49.9,95c10.9,0,21.7,0,32.6,0c1.1,0,2.2,0,3.3-0.2
	C95,93.1,99.3,83.8,94.8,75.2z"/>
<path fill="#ff0000" d="M50,98.4c-10.8,0-21.5,0.1-32.3,0C7.5,98.2-1.4,87.8,0.2,77.7C0.6,75,1.4,72.4,2.6,70c10-19.2,20.1-38.4,30.2-57.6
	c5.3-10,16.3-13.7,26.1-8.7c3.6,1.8,6.2,4.8,8.1,8.3c10.2,19.4,20.4,38.7,30.5,58.1c5.7,11,0.9,23.3-10.7,27.3
	c-1.4,0.5-2.9,0.6-4.3,0.8c-0.6,0.1-1.1,0.1-1.7,0.1C70.6,98.4,60.3,98.4,50,98.4C50,98.4,50,98.4,50,98.4z M49.9,91.6
	c10,0,20,0,30.1,0c1,0,2,0,3-0.2c8.5-1.6,12.5-10.2,8.4-18.1C81.3,54,71.1,34.8,61,15.5c-2.3-4.4-5.9-7-10.9-7
	c-5.1,0-8.7,2.5-11.1,7C29,34.7,19,54,8.7,73c-4.7,8.7,1,19,11.3,18.6C30,91.4,40,91.6,49.9,91.6z M53.6,56.9
	c0.9-8,1.8-16.1,2.5-24.1c0.4-3.6-2.3-6.4-5.9-6.4c-3.8-0.1-6.6,2.7-6.2,6.5c0.8,8.1,1.7,16.1,2.5,24.1c0.3,3.1,0.7,6.1,1,9.2
	c1.8,0,3.4,0,5.1,0C52.9,63,53.3,60,53.6,56.9z M50,71.8c-3.2,0-5.7,2.5-5.7,5.7c0,3.2,2.5,5.8,5.7,5.9c3.2,0,5.8-2.6,5.8-5.8
	C55.8,74.4,53.2,71.8,50,71.8z"/>
</svg>
