<?xml version="1.0" encoding="utf-8"?>
<!-- Generator: Adobe Illustrator 24.0.0, SVG Export Plug-In . SVG Version: 6.00 Build 0)  -->
<svg version="1.2" baseProfile="tiny" id="Layer_1" xmlns="http://www.w3.org/2000/svg" xmlns:xlink="http://www.w3.org/1999/xlink"
	 x="0px" y="0px" viewBox="0 0 100 100" xml:space="preserve">
<path d="M54.5,69.9c-3,0-5.9,0-9,0c-0.7-6.1-1.4-12.1-2-18.2c-1.4-12.6-2.7-25.3-4.1-37.9C38.5,5.2,42.8-0.3,50.5,0
	c6.3,0.2,10.8,5,10.2,11.3c-1.4,14.1-2.9,28.2-4.4,42.4C55.7,59,55.1,64.4,54.5,69.9z M50.1,100c5.6-0.1,10.1-4.7,10-10.3
	c-0.1-5.5-4.6-9.9-10.1-9.9c-5.7,0-10.1,4.5-10.1,10.2C39.9,95.6,44.5,100.1,50.1,100z"/>
</svg>
