<?xml version="1.0" encoding="utf-8"?>
<!-- Generator: Adobe Illustrator 24.0.0, SVG Export Plug-In . SVG Version: 6.00 Build 0)  -->
<svg version="1.2" baseProfile="tiny" id="Layer_1" xmlns="http://www.w3.org/2000/svg" xmlns:xlink="http://www.w3.org/1999/xlink"
	 x="0px" y="0px" viewBox="0 0 100 100" xml:space="preserve">
<path d="M17.6,64.7c0,1.2,0,2.1,0,3c0,9.5,0,18.9,0,28.4c0,0.8,0.2,1.7-0.2,2.2c-0.4,0.7-1.3,1.6-2,1.7c-0.5,0.1-1.3-0.9-1.7-1.6
	c-0.3-0.5-0.2-1.3-0.2-2c0-30.4,0-60.9,0-91.3c0-0.5,0-0.9,0-1.4c0.3-3.5,2.8-4.7,5.7-2.7c1.9,1.3,3.5,2.9,5.3,4.3
	c5,3.7,10.7,5.5,16.9,5.9c6.3,0.4,12.7,0.4,19,1c10,0.8,18.1,5.5,24.6,13c0.5,0.6,1.1,1.3,1.3,2.1c0.1,0.7,0,1.7-0.5,2.2
	c-0.5,0.4-1.5,0.5-2.2,0.4c-0.6-0.1-1.3-0.5-1.8-0.9c-6.2-4.3-13-4.6-20-2.4c-5,1.6-10,3.5-14.9,5.4c-8.3,3.1-16.7,5.6-25.7,2.2
	c1.6,2.6,6.8,6.3,11.2,7.4c4.5,1.1,9,1.7,13.6,2.2c6.7,0.7,13.5,0.6,20.1,1.8c7.9,1.4,14.2,6.1,19.3,12.3c0.5,0.6,0.9,1.3,1.1,2
	c0.5,1.8-0.9,3.2-2.7,2.6c-0.7-0.2-1.4-0.6-2-1c-6-4.1-12.6-4.6-19.3-2.5c-6.6,2.1-13,4.6-19.5,6.8C34.5,68.5,26.6,69.6,17.6,64.7z"
	/>
</svg>
