<?xml version="1.0" encoding="utf-8"?>
<!-- Generator: Adobe Illustrator 24.0.0, SVG Export Plug-In . SVG Version: 6.00 Build 0)  -->
<svg version="1.2" baseProfile="tiny" id="Layer_1" xmlns="http://www.w3.org/2000/svg" xmlns:xlink="http://www.w3.org/1999/xlink"
	 x="0px" y="0px" viewBox="0 0 100 100" xml:space="preserve">
<path d="M62.4,49.9c-4.4,0-8.4,1.1-12.2,3.3c-5.4,3.2-11.1,5.7-17.5,5.9c-9.4,0.2-17.4-3.5-24.1-9.8c-0.8-0.7-1.1-2.4-0.9-3.5
	c2.1-14,4.2-28,6.5-42c0.2-1.3,1.1-2.8,2.1-3.4C17,0,18.8,0.8,19.6,1.6c5.5,4.7,11.7,7.8,19.1,7.7c4.1,0,8-1.2,11.7-3
	c4-1.9,8-4.1,12.2-5.3c8.2-2.4,16-0.5,23.1,4.1c2.1,1.3,4,3,5.7,4.7c0.6,0.6,1,1.9,0.9,2.8c-3.2,20.5-6.6,40.9-9.9,61.3
	c-1.2,7.6-2.5,15.3-3.7,22.9c-0.5,2.7-2.6,4-4.3,2.5c-0.7-0.7-1.2-2.1-1.1-3.1c1.4-9.1,2.9-18.2,4.4-27.4c0.6-3.5,1.1-7,1.7-10.5
	c0.2-1.2-0.1-2-1.1-2.7C73.7,52.2,68.5,49.8,62.4,49.9z"/>
</svg>
