<?xml version="1.0" encoding="utf-8"?>
<!-- Generator: Adobe Illustrator 24.0.0, SVG Export Plug-In . SVG Version: 6.00 Build 0)  -->
<svg version="1.2" baseProfile="tiny" id="Layer_1" xmlns="http://www.w3.org/2000/svg" xmlns:xlink="http://www.w3.org/1999/xlink"
	 x="0px" y="0px" viewBox="0 0 100 100" xml:space="preserve">
<path d="M18.9,50.8c0,0.8,0,1.6,0,2.5c0,14.3,0,28.6,0,42.9c0,0.8,0.1,1.8-0.2,2.5c-0.3,0.6-1.2,1.4-1.8,1.3c-0.6,0-1.4-0.9-1.6-1.5
	c-0.3-0.7-0.1-1.7-0.1-2.5c0-27.5,0.1-55-0.1-82.5C15,5.4,19.2,1.9,26.4,0.5c6.1-1.2,12,0.2,17.7,2.2c5.3,1.9,10.6,4,16,5.8
	c6.4,2.2,12.7,2.1,19-1c3.3-1.7,5.8,0,5.8,3.8c0,10.9-0.2,21.7,0.1,32.6c0.2,7.8-3.6,11.4-10.9,13c-7.4,1.6-14.1-0.6-20.9-3.1
	c-4.7-1.7-9.3-3.5-14-5c-6-1.9-12-2-17.7,1.1C20.7,50.2,19.9,50.4,18.9,50.8z"/>
</svg>
