<?xml version="1.0" encoding="utf-8"?>
<!-- Generator: Adobe Illustrator 24.0.0, SVG Export Plug-In . SVG Version: 6.00 Build 0)  -->
<svg version="1.2" baseProfile="tiny" id="Layer_1" xmlns="http://www.w3.org/2000/svg" xmlns:xlink="http://www.w3.org/1999/xlink"
	 x="0px" y="0px" viewBox="0 0 100 100" xml:space="preserve">
<path d="M17.5,51.9c0,1.3,0,2.2,0,3.1c0,13.7,0,27.4,0,41.1c0,1.6,0.3,3.8-2,3.9c-2.6,0.1-2.1-2.3-2.1-3.9c0-30.4,0-60.8,0-91.3
	c0-1.8-0.4-3.9,1.9-4.6c2.2-0.6,3.3,1.1,4.4,2.6C20.8,4.4,22,6.2,23.2,8c5.8,8.2,13.8,12,23.8,12c4.1,0,8.2,0.1,12.3,0.6
	c9.7,1,16.6,6.7,21.9,14.4c1.7,2.5,3.2,5.2,4.7,7.8c0.5,0.8,0.7,1.9,0.8,2.8c0.1,1.8-1.7,2.7-3.2,1.7c-0.9-0.6-1.7-1.5-2.5-2.3
	c-5.8-5.9-12-7-19.2-3.1c-6.7,3.7-13.2,7.9-19.8,11.7c-4.3,2.5-9,4.1-13.9,3.2c-2.9-0.6-5.6-2.1-8.3-3.3
	C19,53.2,18.5,52.7,17.5,51.9z"/>
</svg>
