<?xml version="1.0" encoding="utf-8"?>
<!-- Generator: Adobe Illustrator 23.0.1, SVG Export Plug-In . SVG Version: 6.00 Build 0)  -->
<svg version="1.2" baseProfile="tiny" id="Layer_1" xmlns="http://www.w3.org/2000/svg" xmlns:xlink="http://www.w3.org/1999/xlink"
	 x="0px" y="0px" viewBox="0 0 100 100" xml:space="preserve">
<path d="M33.17,76.12c0.76-5.38,2.88-6.12,4.9-12.53c0.65-2.06,1.91-6.07,1.73-10.8c-0.26-6.69-3.29-11.56-5.47-14.98
	c-4.57-7.15-10.4-11.4-15.13-14.84c-9.11-6.63-10.95-7.78-10.95-7.78c-2.28-1.42-7.71-4.69-8.07-7.92C0.14,6.89,0.02,5.83,0.61,5.38
	c0.63-0.47,1.72,0.02,2.3,0.29C4.55,6.41,5.1,7.54,6.95,9.56C7.64,10.31,8.4,11,9.11,11.72c10.2,10.31,20.31,15.27,20.31,15.27
	c4.49,2.2,10.12,4.96,18.01,5.19c2.5,0.07,8.75,0.18,15.41-3.03c1.53-0.74,3.37-2.03,7.06-4.61c6.72-4.71,10.08-7.06,12.68-9.65
	c1.44-1.44,2.64-2.8,4.9-3.75c0.77-0.32,4.59-1.91,6.91-0.14c1.27,0.97,1.78,2.69,2.31,4.47c0.51,1.74,0.26,2.09,0.86,3.17
	c0.96,1.7,2.04,1.64,2.45,3.03c0.31,1.07,0.05,2.46-0.72,3.31c-0.97,1.07-2.37,0.92-2.45,1.58c-0.07,0.59,1,0.77,1.3,1.87
	c0.21,0.8-0.27,1.04-0.14,1.87c0.18,1.26,1.39,1.48,1.87,2.59c0.6,1.38-0.42,3.06-0.72,3.6c-0.63,1.13-1.15,1.24-1.3,2.02
	c-0.22,1.18,1.15,1.47,1.3,2.88c0.13,1.29-0.75,2.61-1.58,3.31c-0.84,0.7-1.45,0.63-1.58,1.15c-0.2,0.77,1.05,1.32,1.87,2.59
	c1.29,1.99,0.72,4.49,0.43,5.76c-0.26,1.16-0.8,3.53-2.88,5.04c-2.19,1.6-4.79,1.29-5.91,1.15c-2.69-0.32-3.32-1.43-8.93-3.75
	c-0.89-0.37-3.46-1.42-3.6-1.15c-0.15,0.3,2.9,1.61,5.91,4.75c1.31,1.37,2.68,2.83,3.46,5.19c0.34,1.02,1.05,3.25,0.29,5.91
	c-0.13,0.46-0.99,3.32-3.6,5.04c-0.32,0.21-2.14,0.96-5.76,2.45c-1.03,0.42-1.55,0.63-2.16,1.15c-1.42,1.2-1.05,2.11-2.31,3.17
	c-1.19,1.01-1.77,0.39-3.46,1.58c-0.8,0.57-0.86,0.84-2.16,2.02c-0.71,0.64-1.59,1.43-2.3,1.87c-2.11,1.33-3.87,0.35-6.77,0.72
	c-1.93,0.25-3.3,1.1-5.62,2.3c-1.91,0.99-2.01,1.45-3.6,2.16c-1.29,0.57-3,1.33-5.04,1.15c-2.41-0.21-4.03-1.61-5.33-2.74
	c-0.55-0.47-2.99-2.66-4.47-6.63C33.74,84.83,32.46,81.19,33.17,76.12z M79.05,56.72l-6.81-3.94"/>
</svg>
