<?xml version="1.0" encoding="utf-8"?>
<!-- Generator: Adobe Illustrator 24.0.0, SVG Export Plug-In . SVG Version: 6.00 Build 0)  -->
<svg version="1.2" baseProfile="tiny" id="Layer_1" xmlns="http://www.w3.org/2000/svg" xmlns:xlink="http://www.w3.org/1999/xlink"
	 x="0px" y="0px" viewBox="0 0 100 100" xml:space="preserve">
<path d="M17.3,38.9c-0.3,0.5-0.7,1.1-0.9,1.6c-2.7,6.4-5.3,12.9-8,19.3c-0.4,0.9-0.7,2-1.4,2.5c-0.9,0.6-2.3,1.1-3.2,0.7
	c-0.8-0.4-1.4-1.7-1.7-2.8c-0.2-0.5,0.3-1.3,0.6-2c3.2-7.7,6.3-15.4,9.5-23.1c1.2-2.9,3.3-4.2,6.4-4.2c5.9,0,11.8,0,17.7,0
	c3.3,0,5.4,1.4,6.6,4.4c2,5.1,4.1,10.1,6.2,15.1c0.2,0.6,0.5,1.1,0.9,2c0.8-1.9,1.5-3.5,2.2-5.2c1.7-4.1,3.4-8.2,5-12.3
	c1.1-2.7,3.1-4,5.9-4c6.2-0.1,12.5,0,18.7,0c2.9,0,4.8,1.5,5.8,4.1c3.3,8,6.7,15.9,10,23.9c0.8,1.9,0.2,3.5-1.3,4.2
	c-1.6,0.7-3.2,0-4.1-2c-2.9-6.9-5.7-13.8-8.6-20.7c-0.2-0.4-0.4-0.8-1-1.3c-0.1,0.5-0.3,1-0.2,1.5c0.8,5.7,1.6,11.4,2.5,17.1
	c0.7,4.5,1.3,8.9,2,13.6c-2,0-3.9,0-6,0c0,0.9,0,1.5,0,2.2c0,7.1,0,14.2,0,21.3c0,1-0.1,2.1-0.5,3c-0.6,1.5-1.9,2.2-3.5,2
	c-1.7-0.2-2.8-1.2-3.2-2.8c-0.2-0.8-0.2-1.8-0.2-2.6c0-7,0-14.1,0-21.1c0-0.7-0.2-1.3-0.3-2c-0.3,0-0.5,0.1-0.8,0.1
	c0,0.7-0.1,1.3-0.1,2c0,7.4,0,14.7,0,22.1c0,3-1.6,4.6-4.2,4.4c-1.8-0.1-3.2-1.3-3.5-3.1c-0.1-0.8-0.2-1.6-0.2-2.5
	c0-6.8,0-13.6,0-20.4c0-0.8,0-1.5,0-2.5c-2,0-3.9,0-5.9,0C59.9,60.6,61.4,50,63,39.4c-0.2-0.1-0.4-0.1-0.6-0.2
	c-0.3,0.5-0.7,1-0.9,1.6c-2.8,6.7-5.6,13.5-8.4,20.2c-0.5,1.3-1.3,2.2-2.7,2.4c-1.7,0.2-2.7-0.7-3.3-2.3c-2.8-6.9-5.7-13.7-8.5-20.6
	c-0.2-0.6-0.6-1.1-0.9-1.6c-0.2,0.1-0.4,0.1-0.6,0.2c0,0.7,0,1.4,0,2.1c0,17.8,0,35.6,0,53.4c0,1.7-0.2,3.3-1.7,4.4
	c-2.5,2-6.2,0.8-6.9-2.3c-0.2-0.8-0.2-1.6-0.2-2.5c0-8.4,0-16.9,0-25.3c0-0.4,0.1-0.9,0-1.3c-0.1-0.3-0.4-0.5-0.6-0.8
	c-0.3,0.3-0.6,0.5-0.7,0.8c-0.1,0.5,0,1,0,1.5c0,8.3,0,16.6,0,25c0,3.8-1.6,5.9-4.6,5.8c-2.9-0.1-4.4-2.1-4.4-5.9
	c0-17.5,0-35.1,0-52.6c0-0.7,0-1.5,0-2.2C17.7,39.1,17.5,39,17.3,38.9z"/>
<path d="M50,2.5c0.3-0.2,0.4-0.2,0.5-0.3c3.6-2.7,6.8-2.9,9.5-0.7c2.7,2.2,3.6,6.6,2,10.3c-1.8,4.1-5.5,6.4-8.9,8.9
	c-2.2,1.6-4.1,1.9-6.2,0c-2.6-2.4-5.6-4.6-7.9-7.3c-2.3-2.7-2.5-6.2-0.9-9.5c1.7-3.6,6-5,9.5-3C48.4,1.3,49.1,1.9,50,2.5z"/>
<path d="M27.4,29.9c-4.3,0-7.7-3.4-7.7-7.7c0-4.4,3.4-7.8,7.8-7.8c4.4,0,7.8,3.6,7.7,7.9C35.2,26.6,31.8,29.9,27.4,29.9z"/>
<path d="M72.4,29.9c-4.4,0-7.9-3.4-7.8-7.8c0-4.3,3.4-7.7,7.7-7.7c4.4,0,7.8,3.4,7.8,7.8C80.1,26.5,76.8,29.9,72.4,29.9z"/>
</svg>
