<?xml version="1.0" encoding="utf-8"?>
<!-- Generator: Adobe Illustrator 24.0.0, SVG Export Plug-In . SVG Version: 6.00 Build 0)  -->
<svg version="1.2" baseProfile="tiny" id="Layer_1" xmlns="http://www.w3.org/2000/svg" xmlns:xlink="http://www.w3.org/1999/xlink"
	 x="0px" y="0px" viewBox="0 0 100 100" xml:space="preserve">
<path fill="#f00" d="M82.3,36.1C82,42.8,78,46.8,72.6,50.1c-4.9,3.1-8.6,0.6-12.3-2c-5.5-3.9-7.8-10.3-6-16.1
	c1.6-5.2,7.1-8.1,12.3-6.6c0.8,0.2,1.7,0.4,2.4,0.2C75.3,23.2,82.7,28.3,82.3,36.1z M75.5,35.5c-0.8-1-1.4-2.2-2.4-2.9
	c-1.1-0.9-2.1,0-3.1,0.7c-1.4,1.1-3.1,1-4.5-0.1c-1-0.9-2.1-1.3-3.1-0.5c-0.8,0.7-1.5,1.8-1.6,2.8c-0.3,3.5,3.2,7.9,6.7,8.7
	c0.2,0.1,0.5,0.1,0.7,0C71.7,43.4,75.2,39,75.5,35.5z M46.6,36.5c-0.3,6.2-4.2,10.4-9.8,13.6c-3.1,1.8-5.9,1.9-9,0
	c-6-3.5-10.2-8-9.7-15.5c0.4-6.6,6.7-11,13-9.1c0.7,0.2,1.6,0.3,2.2,0.1C38.7,23.5,46.7,27.2,46.6,36.5z M39.4,35.9
	c0.2-1.3-0.3-2.6-1.7-3.4c-1.3-0.8-2.2-0.1-3.3,0.7c-1.4,1.1-3,0.8-4.5-0.1c-0.8-0.5-2.2-0.9-2.9-0.5c-0.9,0.5-1.7,1.8-1.8,2.8
	c-0.3,3.5,3.4,8,6.7,8.7c0.2,0,0.4,0,0.6,0C35.5,43.7,39.3,39.2,39.4,35.9z"/>
<path fill="#000" d="M50.2,100C22.7,100.1,0.3,77.8,0.1,50.1C0,22.6,22.3,0.2,50.1,0c27.4-0.2,50,22.3,50.1,50C100.2,77.4,77.9,99.9,50.2,100z
	 M50.1,92.9C73.7,92.9,93,73.5,93,50C93,26.5,73.7,7.2,50.2,7.1C26.7,7.1,7.3,26.4,7.3,50C7.2,73.5,26.6,92.9,50.1,92.9z M78,66.4
	c1.2-1.8,0.8-3.8-0.8-5c-1.5-1.1-3.5-0.8-4.8,0.7c-0.4,0.4-0.7,0.9-1.1,1.4c-1.8,1.9-3.4,4.1-5.5,5.7c-8.5,6.4-17.6,7.8-27.3,2.8
	c-4.3-2.2-7.7-5.5-10.5-9.5c-1.3-1.9-3.4-2.1-5-0.9c-1.7,1.2-2,3.1-0.8,4.9c6.7,9.8,16,15,27.9,15.7C62,81.4,71.4,76.3,78,66.4z"/>
</svg>
