<?xml version="1.0" encoding="utf-8"?>
<!-- Generator: Adobe Illustrator 24.0.0, SVG Export Plug-In . SVG Version: 6.00 Build 0)  -->
<svg version="1.2" baseProfile="tiny" id="Layer_1" xmlns="http://www.w3.org/2000/svg" xmlns:xlink="http://www.w3.org/1999/xlink"
	 x="0px" y="0px" viewBox="0 0 100 100" xml:space="preserve">
<path d="M50,12.9c5.6-5.3,12-7.9,19.5-8.5c15-1,29.5,11.7,30.4,26.8c0.5,8.9-2.1,16.6-8.3,22.9C77.9,68,64.1,81.7,50.2,95.6
	c-0.5-0.4-1-0.7-1.4-1.1C35.5,81.2,22.1,68,8.9,54.6C-2,43.7-2.9,27.8,6.4,15.5c9.8-12.9,29.8-14.9,41.9-4.2
	C48.8,11.8,49.3,12.2,50,12.9z M50.7,31.2c-4.2-4-7.4-7.2-10.8-10.2c-5.8-5.1-14.5-5.2-20.6-0.5c-8.5,6.5-8.9,17.9-0.9,26
	c10,10,20,20,30,30c0.5,0.5,1.1,1,1.3,1.1c11.3-11.1,22.6-22,33.7-33.2c4-4,4.8-9.3,3.5-14.7C84,17.5,69,12.8,59.7,21.3
	C56.5,24.2,53.8,27.8,50.7,31.2z"/>
</svg>
