<?xml version="1.0" encoding="utf-8"?>
<!-- Generator: Adobe Illustrator 24.0.0, SVG Export Plug-In . SVG Version: 6.00 Build 0)  -->
<svg version="1.2" baseProfile="tiny" id="Layer_1" xmlns="http://www.w3.org/2000/svg" xmlns:xlink="http://www.w3.org/1999/xlink"
	 x="0px" y="0px" viewBox="0 0 100 100" xml:space="preserve">
<path fill="#000" d="M50.1,34.7c2.5-3.1,5.2-5.6,8.7-7c9-3.9,18.5,1.3,20.7,11.2c1.2,5.5,0.3,10.7-2.1,15.8C73.2,63,66.5,69.1,58.8,74.1
	c-2.5,1.6-5.1,3.1-7.7,4.5c-0.5,0.3-1.3,0.4-1.7,0.1C40.4,74,32.1,68.4,26.1,60c-4.5-6.3-6.9-13.2-5.3-21.1
	C22.3,31,29,25.7,36.7,26.4c4.9,0.4,8.7,3.1,11.9,6.6C49.1,33.5,49.5,34,50.1,34.7z M50.4,71.1c0.4-0.4,1.2-0.7,1.4-1.3
	c0.2-0.6-0.1-1.5-0.5-2.1c-0.3-0.4-0.9-0.6-1.4-1c-3.5-2.4-7.1-4.5-10.3-7.1c-4.6-3.8-8-8.5-8.7-14.8c-0.1-1.4-0.5-2.6-2.2-2.5
	c-1.7,0.2-1.8,1.5-1.7,2.8c0.3,3.6,1.6,6.9,3.6,10c4.5,7.1,11.3,11.6,18.6,15.6C49.4,70.9,49.7,71,50.4,71.1z"/>
<path fill="#f00" d="M8.1,90c0.5-0.7,0.8-1.4,1.2-1.8c3.9-3.9,7.8-7.8,11.7-11.7c1-1,2.1-1.5,3.3-0.5c0.9,0.7,0.7,2.1-0.5,3.3
	C19.9,83.2,16,87.1,12,91c-0.5,0.5-1.6,0.7-2.4,0.6C9.1,91.5,8.6,90.7,8.1,90z M8.7,9.6c-0.2,0.7,0,1.8,0.5,2.3
	c4,4.1,8.1,8.2,12.2,12.2c0.9,0.9,2.1,1.2,3,0.1c1-1,0.6-2.1-0.4-3.1c-4-4-8-8-12-11.9c-0.4-0.4-1-0.7-1.7-1.1
	C9.6,8.7,8.8,9.1,8.7,9.6z M91.5,90.7c0.1-0.8-0.1-1.9-0.6-2.4c-3.8-4-7.8-7.9-11.7-11.9C78,75.2,76.7,75,75.9,76
	c-1.1,1.3-0.5,2.3,0.5,3.3c3.9,3.9,7.8,7.8,11.7,11.7c0.5,0.5,1.1,0.7,1.8,1.2C90.6,91.6,91.5,91.2,91.5,90.7z M88,9.5
	c-2.8,2.7-5.5,5.5-8.3,8.3c-1.2,1.2-2.5,2.4-3.6,3.7c-0.8,0.9-1.1,1.9-0.1,2.9c1,1,2,0.6,2.9-0.2c0.2-0.2,0.3-0.3,0.5-0.5
	c3.8-3.8,7.6-7.6,11.3-11.3c0.3-0.3,0.7-0.6,0.8-0.9c0.1-0.6,0.3-1.4,0.1-1.9c-0.2-0.5-0.9-0.9-1.6-1.4C89.2,8.7,88.5,9,88,9.5z
	 M52.1,2.6c0-1.4-0.5-2.4-2.1-2.4c-1.4,0-1.9,1.1-2,2.4c0,2.9,0,5.9,0,8.8c0,1.3,0.5,2.3,2,2.3c1.5,0,2-1.1,2-2.4c0-1.4,0-2.9,0-4.3
	C52.1,5.5,52.1,4,52.1,2.6z M98,52.2c1.2-0.1,2.1-0.7,2.1-2c0-1.3-0.9-2-2.1-2c-3-0.1-6.1-0.1-9.1,0c-1.2,0-2.2,0.6-2.2,1.9
	c0,1.4,0.9,2,2.2,2.1c1.5,0.1,3,0,4.5,0C94.9,52.2,96.4,52.2,98,52.2z M2.5,48.2c-1.4,0-2.4,0.6-2.4,2.1c0,1.4,1.1,1.9,2.4,1.9
	c2.9,0,5.9,0,8.8,0c1.3,0,2.3-0.6,2.3-2c0-1.4-1-2-2.3-2c-1.5,0-3,0-4.5,0C5.4,48.2,4,48.1,2.5,48.2z M52.1,89c0-1.3-0.6-2.3-2-2.3
	c-1.4,0-2,1-2,2.3c0,2.9,0,5.9,0,8.8c0,1.4,0.6,2.4,2.1,2.4c1.4,0,1.9-1.1,1.9-2.4c0-1.4,0-2.9,0-4.3C52.1,92,52.1,90.5,52.1,89z"/>
</svg>
