<?xml version="1.0" encoding="utf-8"?>
<!-- Generator: Adobe Illustrator 25.2.3, SVG Export Plug-In . SVG Version: 6.00 Build 0)  -->
<svg version="1.2" baseProfile="tiny" id="Layer_1" xmlns="http://www.w3.org/2000/svg" xmlns:xlink="http://www.w3.org/1999/xlink"
	 x="0px" y="0px" viewBox="0 0 100 100" overflow="visible" xml:space="preserve">
<path d="M70.21,92.42c-0.55,1.94-1.82,3.59-3.54,4.64c-2.79,1.68-6.04,2.17-9.22,2.51c-4.12,0.45-8.29,0.58-12.43,0.25
	c-3.81-0.31-8.35-0.75-11.69-2.76c-1.73-1.04-2.99-2.7-3.54-4.64c-0.43-1.51-0.4-3.12,0.08-4.62l0.31-0.97
	c0.3-0.93,0.78-1.8,1.39-2.56l1.3-1.6c0.61-0.75,1.08-1.6,1.4-2.51l0.65-1.85c0.38-1.1,1.05-2.07,1.92-2.83l1.45-1.25v-0.62
	c0-0.26,0.13-0.51,0.34-0.66l3.5-2.5c0.5-0.36,0.5-1.11-0.01-1.46l-1.48-1.02c-0.39-0.27-0.62-0.71-0.62-1.19v-1.08l-1.55-0.95
	c-1.34-0.82-2.41-2.02-3.07-3.45c-0.38-0.81-0.61-1.68-0.7-2.58l-0.09-0.94c-0.14-1.39,0.1-2.8,0.67-4.07l0.29-0.65
	c0.54-1.19,1.36-2.23,2.4-3.03l2.16-1.66v-0.5c0-0.49,0.24-0.95,0.65-1.23l1.53-1.04c0.75-0.51,0.95-1.54,0.43-2.29l-0.61-0.87
	c-0.29-0.42-0.45-0.92-0.45-1.43c0-0.62-0.25-1.22-0.69-1.66l-0.87-0.87c-1.19-1.19-1.86-2.81-1.86-4.49c0-0.75,0.13-1.5,0.4-2.21
	l4.49-12.12c0.67-1.8,0.3-3.83-0.96-5.28l-4.45-5.13c-0.88-1.01-1.36-2.31-1.36-3.65c0-3.08,2.49-5.57,5.57-5.57l16.03,0
	c3.08,0,5.57,2.49,5.57,5.57c0,1.34-0.48,2.64-1.36,3.65l-4.45,5.13c-1.26,1.45-1.63,3.48-0.96,5.28l4.49,12.12
	c0.26,0.71,0.4,1.46,0.4,2.21c0,1.69-0.67,3.3-1.86,4.49l-0.87,0.87c-0.44,0.44-0.69,1.04-0.69,1.66c0,0.51-0.16,1.01-0.45,1.43
	l-0.61,0.87c-0.52,0.75-0.33,1.78,0.43,2.29l1.53,1.04c0.41,0.28,0.65,0.74,0.65,1.23v0.5l2.16,1.66c1.03,0.8,1.86,1.84,2.4,3.03
	l0.29,0.65c0.58,1.27,0.81,2.68,0.67,4.07l-0.09,0.94c-0.09,0.89-0.32,1.76-0.7,2.58c-0.66,1.43-1.73,2.63-3.07,3.45l-1.55,0.95
	v1.08c0,0.47-0.23,0.92-0.62,1.19l-1.48,1.02c-0.51,0.35-0.51,1.1-0.01,1.46l3.51,2.5c0.21,0.15,0.34,0.4,0.34,0.66v0.62l1.45,1.25
	c0.88,0.76,1.54,1.74,1.92,2.83l0.65,1.85c0.32,0.91,0.79,1.76,1.4,2.51l1.3,1.6c0.62,0.76,1.09,1.63,1.39,2.56l0.31,0.97
	C70.61,89.3,70.64,90.91,70.21,92.42z"/>
</svg>
