<?xml version="1.0" encoding="utf-8"?>
<!-- Generator: Adobe Illustrator 24.0.0, SVG Export Plug-In . SVG Version: 6.00 Build 0)  -->
<svg version="1.1" id="Layer_1" xmlns="http://www.w3.org/2000/svg" xmlns:xlink="http://www.w3.org/1999/xlink" x="0px" y="0px"
	 viewBox="0 0 100 100" style="enable-background:new 0 0 100 100;" xml:space="preserve">
<path d="M62.7,63.3c-3.7,4.5-8.3,6.9-10.3,5.5c-0.1,0.3-0.1,0.5-0.2,0.8c-0.6,2.6-1.3,5.1-2.3,7.6c-0.2,0.6-0.5,1.3-0.7,1.9
	c-0.3,0.7-0.4,1.4-0.7,2c-0.6,1.4-1.2,2.8-1.9,4.1c-1.3,2.6-2.8,5.1-4.4,7.5c-0.8,1.2-1.7,2.4-2.6,3.6c-0.9,1.2-1.9,2.2-2.9,3.3
	c-0.4,0.5-1.2,0.4-1.6,0c-0.4-0.4-0.4-1.1,0-1.6c0.5-0.5,0.9-1.1,1.4-1.6c1.9-2,3.5-4.3,5-6.7c1.6-2.5,2.9-5.1,4.2-7.7
	c0.3-0.5,0.5-1.1,0.8-1.6c-2.3-0.1-5.5-3.6-7.4-8.6c-2.2-5.6-2-10.9,0.3-11.8c2.4-0.9,6,2.9,8.2,8.5c0.7,1.7,1.1,3.4,1.4,4.9
	c0.6-2.1,1.2-4.2,1.6-6.4c0.5-2.6,0.8-4.9,1-7.5c0.2-2.6,0.2-5.2,0.1-7.8c0-1.1-0.1-2.1-0.2-3.2c-2.1,0.7-6-1-9.6-4.2
	c-4.2-3.8-6.2-8.3-4.6-10.1c1.6-1.7,6.3-0.1,10.4,3.7c1,0.9,1.8,1.8,2.6,2.7c-0.3-1.4-0.7-2.8-1.1-4.2c-1.3-4.6-3.1-8.8-5.4-12.9
	c-2.7-0.4-6.2-4.3-8.5-9.7C32.4,7.5,32.3,1.4,35,0.2c2.7-1.2,7.2,3.1,10,9.5c2.5,5.8,2.8,11.3,0.9,13.3c0,0,0,0,0,0
	c1.1,2,2.1,4.1,3,6.3c0.2-1.2,0.6-2.6,1.1-3.9c2-5.1,5.3-8.5,7.4-7.6s2.3,5.6,0.3,10.7c-1.7,4.3-4.4,7.5-6.5,7.7
	c0.2,0.6,0.3,1.2,0.5,1.8c1.3,5.2,2,10.5,2.1,15.9c0,2.2,0,4.3-0.2,6.5c0.6-0.9,1.2-1.8,2-2.8c3.9-4.6,8.5-7,10.5-5.4
	C68.1,53.7,66.5,58.7,62.7,63.3z"/>
</svg>
