<?xml version="1.0" encoding="utf-8"?>
<!-- Generator: Adobe Illustrator 23.0.1, SVG Export Plug-In . SVG Version: 6.00 Build 0)  -->
<svg version="1.2" baseProfile="tiny" id="Layer_1" xmlns="http://www.w3.org/2000/svg" xmlns:xlink="http://www.w3.org/1999/xlink"
	 x="0px" y="0px" viewBox="0 0 100 100" xml:space="preserve">
<path d="M59.48,100.24c-3.25,0-6.55-0.55-9.83-1.6c-6.79,1.98-13.65,1.84-19.87-0.83c-15.37-6.6-22.16-26.67-17.8-48.22
	C8.2,27.93,15.52,8.05,31.05,1.85c6.27-2.5,13.1-2.46,19.81-0.33c6.96-2.04,13.81-1.78,19.94,0.85c15.37,6.6,22.16,26.67,17.8,48.22
	c3.79,21.66-3.53,41.54-19.07,47.74C66.3,99.63,62.92,100.24,59.48,100.24z M52.94,97.52c5.42,1.24,10.84,0.98,15.87-1.02
	c13.5-5.39,20.37-21.89,18.53-40.67c-0.84,2.94-1.88,5.9-3.14,8.83C77.25,80.8,65.39,92.64,52.94,97.52z M13.12,54.85
	C10.78,73.58,17.21,90.26,30.57,96c4.97,2.14,10.38,2.53,15.83,1.44c-12.32-5.21-23.87-17.36-30.37-33.67
	C14.84,60.8,13.88,57.82,13.12,54.85z M34.72,87.63c4.69,4.16,9.79,7.23,14.96,8.97c5.26-1.62,10.47-4.58,15.3-8.67
	c-4.82,1.84-10.05,1.79-15.19,0.17C44.54,89.63,39.38,89.48,34.72,87.63z M53.08,86.93c3.92,0.76,7.82,0.5,11.45-0.95
	c10.13-4.04,15.4-16.2,14.36-30.22c-0.6,1.93-1.3,3.86-2.12,5.76c-4.26,9.9-10.99,18.05-18.96,22.95
	C56.25,85.45,54.67,86.26,53.08,86.93z M21.42,55c-1.41,13.98,3.54,26.29,13.56,30.59c3.55,1.53,7.46,1.93,11.49,1.24
	c-9.39-4.22-18.12-13.56-23.09-26.01C22.62,58.89,21.96,56.94,21.42,55z M37.21,78.15c3.89,3.7,8.19,6.4,12.56,7.89
	c2.33-0.73,4.69-1.81,7.02-3.25c2-1.23,3.93-2.68,5.74-4.32c-0.28,0.13-0.56,0.25-0.84,0.36c-3.68,1.47-7.75,1.54-11.84,0.26
	c-4.13,1.17-8.18,1-11.83-0.57C37.75,78.41,37.48,78.29,37.21,78.15z M53.21,77.85c2.69,0.4,5.32,0.13,7.74-0.84
	c4.92-1.96,8.48-6.57,10.01-12.98c0.63-2.64,0.89-5.46,0.78-8.36c-0.36,1.06-0.77,2.12-1.22,3.17c-3.24,7.53-8.36,13.73-14.42,17.46
	C55.14,76.89,54.17,77.4,53.21,77.85z M28.59,55.12c-0.64,9.93,3.05,18.52,10.22,21.6c2.4,1.03,5.01,1.37,7.72,1.05
	c-0.95-0.47-1.9-1.01-2.84-1.62c-5.96-3.89-10.92-10.22-13.96-17.83C29.3,57.25,28.92,56.18,28.59,55.12z M29.31,49.86
	c0.48,2.57,1.23,5.16,2.24,7.71c2.89,7.24,7.58,13.24,13.2,16.91c1.69,1.1,3.41,1.95,5.12,2.54c1.72-0.54,3.46-1.35,5.18-2.41
	c5.72-3.52,10.56-9.39,13.64-16.55l0,0c1.08-2.52,1.9-5.1,2.45-7.66c-0.48-2.58-1.23-5.17-2.24-7.72
	c-2.89-7.24-7.57-13.24-13.2-16.91c-1.69-1.1-3.41-1.95-5.12-2.54c-1.72,0.55-3.46,1.35-5.18,2.41
	c-5.72,3.52-10.56,9.39-13.64,16.55C30.66,44.74,29.85,47.32,29.31,49.86z M80.23,50.55c1.15,6.61,0.97,13.01-0.41,18.64
	c0.91-1.71,1.76-3.48,2.54-5.31c1.9-4.43,3.3-8.9,4.22-13.31c-0.8-4.43-2.09-8.94-3.87-13.41c-0.73-1.83-1.52-3.6-2.37-5.31
	c0.01,0.04,0.02,0.09,0.03,0.13C81.61,37.79,81.54,44.15,80.23,50.55z M13.99,49.62c0.8,4.43,2.09,8.94,3.87,13.41
	c0.67,1.69,1.4,3.33,2.18,4.92c-1.13-5.56-1.1-11.81,0.19-18.23c-1.13-6.49-0.98-12.77,0.32-18.33c-0.83,1.59-1.61,3.23-2.33,4.91
	C16.31,40.74,14.91,45.21,13.99,49.62z M73.16,50.42c0.85,4.87,0.77,9.68-0.27,14.06c-0.09,0.37-0.18,0.74-0.28,1.09
	c0.85-1.55,1.64-3.17,2.36-4.83c1.45-3.37,2.54-6.81,3.27-10.24c-0.62-3.42-1.61-6.9-2.99-10.36c-0.67-1.69-1.42-3.32-2.23-4.88
	c0.09,0.36,0.17,0.72,0.25,1.09C74.19,40.76,74.14,45.58,73.16,50.42z M22.24,49.75c0.62,3.41,1.61,6.89,2.99,10.34
	c0.69,1.73,1.45,3.39,2.28,4.99c-1.18-4.56-1.28-9.82-0.21-15.23c-0.86-4.88-0.78-9.7,0.27-14.09c0.09-0.37,0.18-0.74,0.28-1.1
	c-0.85,1.55-1.64,3.17-2.36,4.83C24.03,42.91,22.95,46.36,22.24,49.75z M54.16,2.74c12.33,5.21,23.88,17.35,30.4,33.68
	c1.18,2.96,2.15,5.95,2.91,8.91c2.34-18.72-4.09-35.4-17.45-41.14C65.13,2.09,59.73,1.63,54.16,2.74z M53.98,13.41
	c9.39,4.22,18.12,13.56,23.09,26.01c0.78,1.95,1.43,3.9,1.98,5.85c0.45-4.45,0.26-8.81-0.6-12.88c-1.82-8.63-6.43-14.93-12.97-17.74
	l0,0C61.92,13.12,58.01,12.72,53.98,13.41z M53.94,22.49c0.95,0.47,1.9,1.01,2.84,1.62c5.96,3.89,10.92,10.22,13.96,17.83
	c0.42,1.06,0.8,2.13,1.14,3.2c0.19-2.89,0.01-5.71-0.56-8.37c-1.36-6.44-4.79-11.14-9.66-13.24C59.26,22.5,56.64,22.16,53.94,22.49z
	 M44.88,22.22c-1.86,0-3.67,0.34-5.38,1.02l0,0c-4.93,1.96-8.48,6.57-10.01,12.98c-0.63,2.65-0.89,5.46-0.78,8.36
	c0.36-1.06,0.77-2.12,1.22-3.18c3.24-7.53,8.36-13.73,14.42-17.46c0.96-0.59,1.92-1.1,2.88-1.55
	C46.45,22.28,45.66,22.22,44.88,22.22z M35.93,14.26C25.8,18.3,20.52,30.47,21.56,44.49c0.59-1.93,1.3-3.86,2.12-5.77
	c4.26-9.9,10.99-18.05,18.96-22.95c1.57-0.97,3.15-1.78,4.73-2.45C43.46,12.55,39.56,12.81,35.93,14.26L35.93,14.26z M41.16,1.92
	c-3.21,0-6.36,0.57-9.37,1.77C18.28,9.08,11.41,25.58,13.26,44.36c0.84-2.94,1.88-5.9,3.14-8.83c5.45-12.69,14.08-23.13,24.28-29.4
	c2.29-1.41,4.6-2.57,6.9-3.48C45.43,2.17,43.28,1.92,41.16,1.92z M55.9,20.38c2.27,0,4.47,0.44,6.54,1.33
	c0.27,0.12,0.54,0.24,0.81,0.37c-3.89-3.7-8.19-6.4-12.55-7.88c-2.33,0.73-4.69,1.81-7.02,3.25c-2,1.23-3.92,2.68-5.74,4.32
	c0.28-0.13,0.56-0.25,0.84-0.36c3.68-1.47,7.75-1.54,11.84-0.25C52.39,20.64,54.17,20.38,55.9,20.38z M57.73,11.1
	c2.9,0,5.71,0.55,8.36,1.66c-4.75-4.26-9.94-7.4-15.2-9.18c-3.05,0.95-6.13,2.36-9.17,4.23c-2.12,1.3-4.18,2.8-6.14,4.46
	c4.79-1.8,9.99-1.74,15.1-0.14C53.05,11.45,55.42,11.1,57.73,11.1z"/>
</svg>
