<?xml version="1.0" encoding="utf-8"?>
<!-- Generator: Adobe Illustrator 25.2.3, SVG Export Plug-In . SVG Version: 6.00 Build 0)  -->
<svg version="1.2" baseProfile="tiny" id="Layer_1" xmlns="http://www.w3.org/2000/svg" xmlns:xlink="http://www.w3.org/1999/xlink"
	 x="0px" y="0px" viewBox="0 0 100 100" overflow="visible" xml:space="preserve">
<path d="M56.21,57.48c5.91,10.07,6.2,24.21,0.87,42.01C54.76,99.83,52.4,100,50,100C22.39,100,0,77.61,0,50
	C0,29.51,12.32,11.9,29.95,4.19c-1.27,7.02-0.98,13.73,0.85,20.03c3.04,10.42,9.46,16.36,15.13,21.6
	C49.8,49.39,53.44,52.77,56.21,57.48z M50,0c-2.3,0-4.57,0.15-6.79,0.46c-2.39,7.42-2.7,14.29-0.91,20.42
	c2.1,7.23,6.58,11.37,11.76,16.17c4.13,3.81,8.81,8.15,12.47,14.39c6.75,11.52,8.07,26.36,3.95,44.19C87.88,87.8,100,70.32,100,50
	C100,22.39,77.61,0,50,0z"/>
</svg>
