<?xml version="1.0" encoding="utf-8"?>
<!-- Generator: Adobe Illustrator 24.0.0, SVG Export Plug-In . SVG Version: 6.00 Build 0)  -->
<svg version="1.1" id="Layer_1" xmlns="http://www.w3.org/2000/svg" xmlns:xlink="http://www.w3.org/1999/xlink" x="0px" y="0px"
	 viewBox="0 0 100 100" style="enable-background:new 0 0 100 100;" xml:space="preserve">
<path d="M96.9,46.8H71.3l2.8-4.9l9.5-16.5H64.6h-9.9l5.1-8.8L69.4,0H50.3H31.2l9.5,16.5l5.1,8.8h-0.3h-10H16.4L26,41.9l2.8,4.9H3.4
	v6.4H29l-3,5.2l-9.5,16.5h19.1h9.9l-4.9,8.5L30.9,100H50h19.1l-9.5-16.5l-4.9-8.5h10h19.1l-9.5-16.5l-3-5.2h25.7L96.9,46.8
	L96.9,46.8z M50.1,67L50.1,67L50.1,67l-5-8.6l-4.8-8.3l4.8-8.3l5-8.6l5,8.6l4.8,8.3l-4.8,8.3L50.1,67z"/>
</svg>
