<?xml version="1.0" encoding="utf-8"?>
<!-- Generator: Adobe Illustrator 23.0.1, SVG Export Plug-In . SVG Version: 6.00 Build 0)  -->
<svg version="1.2" baseProfile="tiny" id="Layer_1" xmlns="http://www.w3.org/2000/svg" xmlns:xlink="http://www.w3.org/1999/xlink"
	 x="0px" y="0px" viewBox="0 0 100 100" xml:space="preserve">
<path fill="#231F20" d="M99.18,21.99c-3.88-6.73-15.3-6.58-29.01-2.42c-5.82-3.28-12.65-5.16-19.96-5.16
	c-21.31,0-38.59,16.05-38.59,35.86c0,1.25,0.07,2.48,0.2,3.7C2.55,63.16-2.4,72.21,1.25,78.53c2.15,3.72,6.6,5.34,12.47,5.34
	c4.74,0,10.41-1.07,16.53-2.92c5.83,3.28,12.66,5.17,19.97,5.17c21.31,0,38.59-16.05,38.59-35.86c0-1.25-0.07-2.48-0.2-3.7
	C97.89,37.36,102.83,28.32,99.18,21.99z M86.86,22.52c3.84,0,6.37,0.85,7.26,2.4c1.47,2.55-0.91,7.99-7.03,14.74
	c-2.03-6.09-5.75-11.48-10.66-15.71C80.52,22.98,84.04,22.52,86.86,22.52z M6.32,75.61c-1.47-2.55,0.91-7.99,7.03-14.74
	c2.03,6.09,5.75,11.48,10.66,15.71C14.32,78.87,7.87,78.29,6.32,75.61z"/>
</svg>
