<?xml version="1.0" encoding="utf-8"?>
<!-- Generator: Adobe Illustrator 23.0.1, SVG Export Plug-In . SVG Version: 6.00 Build 0)  -->
<svg version="1.2" baseProfile="tiny" id="Layer_1" xmlns="http://www.w3.org/2000/svg" xmlns:xlink="http://www.w3.org/1999/xlink"
	 x="0px" y="0px" viewBox="0 0 100 100" xml:space="preserve">
<path d="M50.11,100.39c-0.5,0-0.97-0.09-1.4-0.24c-2.49-0.4-4.49-1.21-6.09-1.86c-6.24-2.54-9.93-6.34-15.05-11.59
	c-4.25-4.37-7.92-8.15-10.88-14.3c-0.96-2.01-1.86-4.67-3.4-10.19c-2.07-7.37-2.85-13.15-4.26-25.56
	C8.16,29.09,7.33,21.43,6.57,13.9l1.99-0.2c0.76,7.53,1.59,15.17,2.45,22.72c1.4,12.29,2.17,18.02,4.2,25.25
	c1.49,5.32,2.38,8,3.28,9.86c2.82,5.86,6.38,9.53,10.51,13.78c4.95,5.08,8.52,8.76,14.37,11.14c0.5,0.2,1.03,0.42,1.62,0.64
	c-8.69-10.41-13.23-19.21-14.01-21.19l-0.04,0.02c-2.4-5.36-4.87-10.9-6.53-18.81c-0.7-3.36-0.9-5.43-1.72-14.16l-0.08-0.89
	c-0.41-4.39-1.1-11.69-2.01-21.14l1.99-0.19c0.9,9.45,1.59,16.75,2.01,21.14l0.08,0.89c0.81,8.63,1,10.68,1.68,13.93
	c1.61,7.7,4.04,13.14,6.4,18.41l0,0.01c0.12,0.26,4.36,9.56,14.11,21.13c0.21,0.25,0.48,0.57,0.8,0.89
	c-0.73-2.16-1.53-6.03-2.92-12.76c-0.63-3.07-1.39-6.7-2.3-10.98c-1.21-5.66-2.04-9.35-2.64-12.04c-0.99-4.4-1.49-6.61-2.27-11.33
	c-0.87-5.26-1.47-9.9-2.45-17.59l-0.23-1.76c-0.71-5.56-1.39-11.19-2.01-16.74l1.99-0.22c0.62,5.54,1.29,11.16,2,16.71l0.23,1.76
	c1.02,7.93,1.58,12.29,2.44,17.52c0.77,4.65,1.26,6.85,2.25,11.21c0.61,2.7,1.44,6.39,2.65,12.06c0.91,4.28,1.66,7.92,2.3,10.99
	c1.46,7.06,2.48,11.97,3.19,13.39c0.72-1.37,1.55-5.98,2.36-10.45c0.97-5.38,1.38-10,2.22-19.93c0.29-3.42,0.43-5.28,0.53-6.56
	c0.13-1.65,0.18-2.33,0.37-4.06c0.5-4.53,0.97-7.26,1.38-9.67c0.33-1.95,0.62-3.64,0.85-5.87c0.58-5.47,0.5-11.18-0.22-16.97
	l1.98-0.25c0.74,5.94,0.82,11.8,0.22,17.43c-0.24,2.3-0.53,4.01-0.87,6c-0.4,2.38-0.86,5.08-1.36,9.56
	c-0.19,1.7-0.24,2.37-0.36,3.99c-0.1,1.28-0.24,3.15-0.53,6.58c-0.78,9.29-1.21,14.41-2.24,20.12c-0.95,5.26-1.56,8.49-2.27,10.33
	c1.75-1.5,3.37-4.8,4.84-7.81c5.12-10.43,7.93-16.3,9.1-19.44c1.86-4.99,4.96-13.34,7.54-24.69c0.61-2.69,2.16-9.98,3.33-19.43
	c0.35-2.87,0.65-5.79,0.89-8.69l1.99,0.16c-0.24,2.93-0.54,5.88-0.9,8.77c-1.17,9.54-2.74,16.91-3.36,19.63
	c-2.61,11.48-5.74,19.91-7.61,24.94c-1.2,3.21-4.03,9.13-9.18,19.62c-1.38,2.82-2.79,5.7-4.47,7.59c4.96-0.69,8.51-3.35,10.11-4.56
	c2.7-2.03,5.32-4.88,9.31-12.16c1.85-3.38,4.2-8,8.63-20.14c4.04-11.05,6.05-16.58,7.31-23.02c1.19-6.08,1.78-12.31,1.76-18.52l2,0
	c0.02,6.34-0.59,12.7-1.8,18.91c-1.29,6.6-3.32,12.18-7.38,23.29c-4.04,11.07-6.43,16.18-8.77,20.45c-4.16,7.6-6.95,10.61-9.86,12.8
	c-1.91,1.44-6.4,4.81-12.81,5.1c-0.7,0.03-1.37,0.03-2-0.01C50.45,100.38,50.28,100.38,50.11,100.39z"/>
<path d="M13.91,7.73c0,3.78-3.07,6.85-6.85,6.85s-6.85-3.07-6.85-6.85s3.07-6.85,6.85-6.85S13.91,3.94,13.91,7.73z M20.76,7.73
	c-3.78,0-6.85,3.07-6.85,6.85s3.07,6.85,6.85,6.85s6.85-3.07,6.85-6.85S24.55,7.73,20.76,7.73z M33.86,0.09
	C30.07,0.09,27,3.16,27,6.95s3.07,6.85,6.85,6.85s6.85-3.07,6.85-6.85S37.64,0.09,33.86,0.09z M57.48,10.74
	c-3.78,0-6.85,3.07-6.85,6.85s3.07,6.85,6.85,6.85s6.85-3.07,6.85-6.85S61.26,10.74,57.48,10.74z M78.65,3.88
	c-3.78,0-6.85,3.07-6.85,6.85s3.07,6.85,6.85,6.85s6.85-3.07,6.85-6.85S82.43,3.88,78.65,3.88z M93.35,6.95
	c-3.78,0-6.85,3.07-6.85,6.85s3.07,6.85,6.85,6.85c3.78,0,6.85-3.07,6.85-6.85S97.14,6.95,93.35,6.95z"/>
</svg>
