<?xml version="1.0" encoding="utf-8"?>
<!-- Generator: Adobe Illustrator 24.0.0, SVG Export Plug-In . SVG Version: 6.00 Build 0)  -->
<svg version="1.2" baseProfile="tiny" id="Layer_1" xmlns="http://www.w3.org/2000/svg" xmlns:xlink="http://www.w3.org/1999/xlink"
	 x="0px" y="0px" viewBox="0 0 100 100" xml:space="preserve">
<path d="M38.3,66.5c-0.1-9.6,1.2-17.7,4-25.6c3.2-8.9,10-12.8,18.8-13.8c9.2-1.1,16.3,2.9,20.7,11.1c4.8,9,5.4,18.7,3.9,28.5
	c-1.3,8.2-4.5,15.5-9.9,21.8c-6.6,7.6-15,11.1-24.9,11.4c-2.1,0.1-3.6-1.4-4.8-2.9c-2.9-3.5-4.4-7.8-5.5-12.1
	C39,78.6,38.2,72,38.3,66.5z M27.1,29c-6.2,3.2-9.5,8.7-11.5,15c-3.6,11.7-2.7,23.3,2.2,34.5C21.1,86,26.1,92.1,33.4,96
	c2.7,1.5,5.5,2.6,8.9,3.1c-2.8-4.3-4.5-8.7-5.6-13.3c-2.4-9.8-3-19.7-1.9-29.7c1.1-10.1,3.3-19.8,10.9-27.5
	C39.3,26.6,33.2,25.9,27.1,29z M27.6,1.9c1.8,7.1,10.5,10.4,22.7,8.6c-0.1,0.3-0.1,0.5-0.2,0.7c-1.6,4.2-2.1,8.5-2.3,12.9
	c-0.1,1.8,1.3,1.8,2.3,1.9C51,26,52,25.6,52,24.1c0-2,0.1-4,0.5-5.9c0.7-4.3,2.3-8.2,4.8-11.8C58,5.2,58,3.9,56.7,3.2
	c-1.2-0.7-2.2-0.3-2.9,0.9c-0.8,1.2-1.5,2.4-2.4,3.8C45.9,0.9,33-2.3,27.6,1.9z"/>
</svg>
