<?xml version="1.0" encoding="utf-8"?>
<!-- Generator: Adobe Illustrator 25.2.3, SVG Export Plug-In . SVG Version: 6.00 Build 0)  -->
<svg version="1.2" baseProfile="tiny" id="Layer_1" xmlns="http://www.w3.org/2000/svg" xmlns:xlink="http://www.w3.org/1999/xlink"
	 x="0px" y="0px" viewBox="0 0 100 100" overflow="visible" xml:space="preserve">
<path d="M60.1,38.44l7.65,13.24c2.41,4.18-0.6,9.4-5.42,9.4H47.04c-4.82,0-7.84-5.22-5.42-9.4l7.65-13.24
	C51.67,34.27,57.69,34.27,60.1,38.44z"/>
<path d="M50.67,9.12c-1.51-2.61-0.38-6.02,2.45-7.06c14.94-5.53,32.13,0.34,40.36,14.6s4.72,32.08-7.53,42.26
	c-2.32,1.92-5.84,1.2-7.34-1.41L50.67,9.12z"/>
<path d="M21.4,73.5c-1.51,2.61-5.03,3.33-7.34,1.41C1.8,64.73-1.71,46.92,6.52,32.65s25.42-20.13,40.36-14.6
	c2.82,1.04,3.96,4.46,2.45,7.06L21.4,73.5z"/>
<path d="M91.88,66.69c3.01,0,5.4,2.68,4.89,5.65C94.09,88.05,80.42,100,63.95,100S33.8,88.05,31.12,72.35
	c-0.51-2.97,1.88-5.65,4.89-5.65H91.88z"/>
</svg>
