<?xml version="1.0" encoding="utf-8"?>
<!-- Generator: Adobe Illustrator 23.0.1, SVG Export Plug-In . SVG Version: 6.00 Build 0)  -->
<svg version="1.2" baseProfile="tiny" id="Layer_1" xmlns="http://www.w3.org/2000/svg" xmlns:xlink="http://www.w3.org/1999/xlink"
	 x="0px" y="0px" viewBox="0 0 100 100" xml:space="preserve">
<path fill="#231F20" d="M4.3,0.37C27.97,8.67,42.6,13.46,48.26,14.74c0.74,0.17,3.44,0.75,6.48,2.54c1.44,0.84,4.88,2.91,7.04,6.76
	c1,1.78,1.91,4.26,1.97,9.58c0.12,10.15-3.07,12.17-3.38,21.98c-0.03,0.79,0.26,4.58,0.85,12.12c0.5,6.45,1.13,14.09,1.13,14.09
	c2.21-0.65,5.68-1.41,9.86-1.13c3.85,0.26,5.39,1.2,11.27,2.82c8.92,2.45,13.53,2.51,13.52,3.38c-0.01,0.81-4.48,0.57-11.27,2.25
	c-6.04,1.5-7.24,2.86-16.91,6.48c-6.25,2.34-9.38,3.51-11.83,3.94c-7.81,1.39-9.8-1.31-21.69-2.82c0,0-4.18-0.53-27.05-0.28
	c0,0-1.96-2.65-5.64-7.61c2.17-1.18,4.11-1.85,5.64-2.25c6.62-1.76,10.68,0.07,20-0.28c2.85-0.11,5.12,0.82,6.48-0.56
	c0.39-0.4,1.3-1.54,0.85-5.35c-0.54-4.49-2.36-7.6-3.1-9.02c-2.93-5.63-2.7-12.58-2.25-26.48c0.06-1.81,0.19-4.65-0.85-8.17
	c-1.14-3.88-3.08-6.46-3.94-7.61C21.57,23.95,14.18,13.74,4.3,0.37z"/>
</svg>
