<?xml version="1.0" encoding="utf-8"?>
<!-- Generator: Adobe Illustrator 24.0.0, SVG Export Plug-In . SVG Version: 6.00 Build 0)  -->
<svg version="1.2" baseProfile="tiny" id="Layer_1" xmlns="http://www.w3.org/2000/svg" xmlns:xlink="http://www.w3.org/1999/xlink"
	 x="0px" y="0px" viewBox="0 0 100 100" xml:space="preserve">
<path d="M58.7,71.3c-6.7,0-13.4,0-20.2,0c-0.1-7.3,0.6-14.2,5.4-20c3.8-4.7,8-9,12-13.6c0.6-0.6,1.1-1.3,1.6-2
	c3.7-5.1,2.8-10.6-2.4-13.9c-4.9-3.2-11.2-1.5-14,3.8c-0.8,1.4-1.1,3-1.7,4.7c-6.4,0-12.9,0-19.6,0c-0.2-4.2,0.6-8.2,2.2-12
	C27.4,6,39.8-1.2,53.4,0.2c12.5,1.2,23.5,11.2,26.3,23.9c1.7,7.9,0,14.9-5.8,20.8c-3.6,3.7-7,7.5-10.7,11c-4,3.7-5.3,8.2-4.7,13.5
	C58.6,69.9,58.6,70.5,58.7,71.3z M61.5,88.2c0-6.6-5.7-12.2-12.3-12.1c-6.6,0.1-12,5.4-12,11.9c0,6.7,5.5,12.1,12.3,12.1
	C56.2,100,61.5,94.7,61.5,88.2z"/>
</svg>
