<?xml version="1.0" encoding="utf-8"?>
<!-- Generator: Adobe Illustrator 24.0.0, SVG Export Plug-In . SVG Version: 6.00 Build 0)  -->
<svg version="1.2" baseProfile="tiny" id="Layer_1" xmlns="http://www.w3.org/2000/svg" xmlns:xlink="http://www.w3.org/1999/xlink"
	 x="0px" y="0px" viewBox="0 0 100 100" xml:space="preserve">
<path d="M73.8,26.1c-0.1,5.2-3.9,11.8-9.4,17.5c-4.3,4.5-9,8.6-13.4,13c-4.3,4.2-4.5,5.9-2.5,11.5c0.5,1.2,0.1,2.8,0.1,4.2
	c-1.4-0.2-3,0.1-4.2-0.5c-6.4-3.3-11-7.9-9.8-15.8c0.3-2.2,1.6-4.6,3.1-6.2c3.5-3.5,7.4-6.6,11.2-9.8c4.6-3.8,8.6-7.8,10.1-13.9
	c1.1-4.6-0.5-10.5-4.3-12.8c-1.7-1-4.2-1.5-6.1-1.3c-3.6,0.5-4,2.1-1.9,5c2.1,2.9,2.5,6,0.6,9.1c-2.2,3.7-5.8,4.9-9.8,4.7
	c-4.9-0.3-8.3-3-10.1-7.4c-2-5-1.6-9.9,1.7-14.4c3.3-4.6,8.1-6.9,13.4-8.1c9.5-2.2,18-0.4,25.1,6.6C71.4,11.1,73.7,16.9,73.8,26.1z
	 M55.2,90.4c0.1-5.6-4.2-10-9.9-10c-5.5,0-9.8,4.3-9.9,9.8c0,5.5,4.3,9.9,9.7,9.9C50.7,100.1,55.1,95.8,55.2,90.4z"/>
</svg>
