<?xml version="1.0" encoding="utf-8"?>
<!-- Generator: Adobe Illustrator 24.0.0, SVG Export Plug-In . SVG Version: 6.00 Build 0)  -->
<svg version="1.2" baseProfile="tiny" id="Layer_1" xmlns="http://www.w3.org/2000/svg" xmlns:xlink="http://www.w3.org/1999/xlink"
	 x="0px" y="0px" viewBox="0 0 100 100" xml:space="preserve">
<path fill="#596F05" d="M96.1,15.4c3.7-1.2,3.9-1.1,3.9,3.3c-0.2,13.2-1.5,26.3-2.7,39.3c-0.3,3-0.8,6-0.7,9c0.1,5.6-3.2,8.7-7.6,11
	c-7.1,3.7-14.8,5.4-22.6,6.3c-17.6,2-35.1,0.8-52.4-2.7c-1.9-0.4-3.7-1-5.5-1.8c-4-1.7-6-4.6-6.3-9.2C1.3,53.9,0.8,37.2,0.3,20.5
	c0-1-1.2-2.7,1-3.1c3.6,0,6.1,2.5,8.6,4.5c4,3.1,8.2,6.1,12.1,9.5c4.9,4.3,10.3,8,15.2,12.3c1.2,1.4,2.9,2.1,4,3.5
	c0.7,0.9,2.1,1.7,0.8,3.1c-2.3,0.4-3.6-1.2-5.1-2.3c-9.5-7.6-19.2-15-28.7-22.6c-0.9-0.7-1.7-1.6-3.4-2c-0.1,5-0.3,9.8,0.1,14.6
	c0.6,7.4,0.8,14.8,1.1,22.3C6.2,70,8,72.6,17.5,74.7c16.1,3.6,32.5,4.4,48.9,2.5c6.6-0.8,13.1-2.6,19.2-5.6
	c4.7-2.4,7.6-5.8,7.8-11.6c0.5-12,2-24,2.4-36.1c0-1.1,0.2-2.2-0.2-3.5c-1.7,0.6-2.7,1.9-3.9,3C79.7,34.4,68,45.3,55.8,55.8
	C52,59,50.9,59.1,47.2,56c-1.9-1.6-4.7-2.5-5.1-5.5c0.8-1.4,1.7-0.8,2.7-0.3c1,0.6,1.8,1.4,2.8,2.1c2.5,1.6,5.1,1.7,7.4-0.1
	c2.8-2.3,5.8-4.4,8.2-7.2c4.4-4.1,9-8,13.1-12.4c5.8-4.8,11.2-10.2,17-15.1C94.2,16.7,95,15.8,96.1,15.4z"/>
<path fill="#6F8D02" d="M96.7,17.5c-6.9,5.9-12.9,11.5-19,17.1C69.9,41.8,61.9,48.8,54,56c-0.8,0.8-2,2.3-3.3,1.3
	c-2.9-2.2-6.3-3.9-8.3-7.3c2,0.2,2.9,2,4.4,3c2.9,1.8,5.9,2.3,8.5,0.2c3-2.4,6.2-4.5,8.5-7.7c0,0,0,0,0,0c4.5-3.9,9.1-7.7,13-12.3
	c4.2-2.7,7.4-6.5,11.1-9.8c2.8-2.6,6.4-4.5,8.2-8c-1.5-0.8-3-0.4-4.2,0.4c-6.2,3.7-12.5,7.3-18.4,11.5c-0.9,0.5-1.7,0.9-2.6,1.4
	c0,0,0,0,0,0c0,0,0,0,0,0c-0.6,0-1.3,0-1.9,0c-1.6-0.7-3.4-0.6-5.1-0.5c-7,0.2-14,0.2-21,0.4c-7.2,0.2-13.9-0.1-19.6-5.1
	c-0.1-0.1-0.2,0-0.3-0.1c-2.6-1.7-5.3-3.2-7.8-5c-4.4-3.1-9-3.7-13.8-1.1c3.3,1.8,6.4,3.9,9.3,6.2c3.6,2.9,7.3,5.5,11,8.3
	c0,0,0,0,0,0c4.6,4.6,10,8.1,14.9,12.3c1.6,2.3,4.5,3.2,5.8,5.8c-1.1-0.1-2-0.6-2.9-1.3C28.4,39.9,17.3,31.2,6.1,22.4
	c-0.6-0.5-1.1-1.6-2.1-1c-0.7,0.4-0.4,1.4-0.4,2.1c0.1,6.3,0.2,12.7,0.5,19C4.4,49.5,5,56.5,5,63.5c0,6.2,2.5,9.6,7.4,11
	c9.5,2.8,19.3,4.2,29.2,4.5c7.9,0.2,15.9,0.7,23.9-0.5c8-1.3,15.8-3,22.9-7.2c2.7-1.6,5.2-4,5.7-7.1c0.4-3.1,0.7-6.4,0.9-9.6
	c0.5-8.1,1.3-16.2,1.8-24.4C96.9,26.2,96.7,22.2,96.7,17.5z"/>
</svg>
