<?xml version="1.0" encoding="utf-8"?>
<!-- Generator: Adobe Illustrator 24.0.0, SVG Export Plug-In . SVG Version: 6.00 Build 0)  -->
<svg version="1.1" id="Layer_1" xmlns="http://www.w3.org/2000/svg" xmlns:xlink="http://www.w3.org/1999/xlink" x="0px" y="0px"
	 viewBox="0 0 100 100" style="enable-background:new 0 0 100 100;" xml:space="preserve">
<path fill="#fff" d="M93.4,90.6c-0.2,0-0.5-0.1-0.7,0c-0.3-0.1-0.7-0.1-1.1-0.1c-0.9,0.1-1.7,0.3-2.5,0.4c-0.3-0.2-0.7-0.3-1-0.3
	c-0.4,0-0.8,0-1.2,0c0,0-0.3-0.1-0.4-0.1c-0.3-0.1-0.1,0-0.3-0.1c-0.9-0.5-1.7-0.8-2.7-0.9c-1.9-0.2-3.8-0.2-5.7-0.3
	c-1.9,0-3.8,0-5.7,0h-0.1c-0.1-0.2-0.2-0.4-0.3-0.6c0,0,0,0,0,0c0,0,0,0,0,0c0,0,0,0,0,0c0,0,0,0,0,0c0,0,0,0,0,0c0,0,0-0.1,0-0.1
	c0-0.1,0-0.1,0-0.1c0,0,0-0.1,0-0.2c0-0.1,0-0.2,0-0.2c0-0.3,0-0.6,0-0.8c0-0.1,0-0.2,0-0.4c0,0,0.1-0.2,0.1-0.2
	c0,0,0.2-0.3,0.3-0.3c0.2-0.2,0.4-0.4,0.6-0.6c0.5-0.5,0.9-1,1.4-1.5c1.8-1.9,3.6-3.8,5-6c0.2-0.3,0.3-0.6,0.2-1c0,0,0,0,0,0
	c0.1-0.2,0.3-0.4,0.4-0.6c0.4,0,0.8-0.2,1-0.5c0.5-0.6,1.2-1.1,1.5-1.8c0.3-0.5,0.3-0.9,0.4-1.5c0-0.1,0.2-0.6,0.2-0.8
	c0.2-0.7,0.5-1.4,0.7-2.1c0.1-0.3,0.2-0.7,0.3-1c0-0.2,0.1-0.3,0.2-0.5c0,0,0.1-0.3,0.1-0.3c0.3-0.6,0.7-1.2,1.1-1.8
	c0.4-0.6,0.8-1.2,1.1-1.8c0.8-1.3,1.5-2.7,2.2-4c0.2-0.3,0.3-0.7,0.2-1.1c0,0,0.1-0.1,0.1-0.1c0.8-0.7,1-1.7,1-2.7v-0.1
	c0.1-0.2,0.1-0.5,0.1-0.7c0-0.1,0-0.2,0-0.4c0.1-0.3,0.2-0.5,0.3-0.9c0.2-0.4,0.1-0.8-0.1-1.2c0-2.6,0-5.2,0-7.7
	c0-1.4,0.1-2.7-0.4-4c-0.2-0.6-0.5-1.1-0.7-1.7c-0.1-0.3-0.2-0.5-0.3-0.8c0,0-0.1-0.3-0.1-0.4c0,0,0-0.2,0-0.2
	c0.1-0.4,0-0.8-0.1-1.2c0.2-0.5,0.1-1-0.1-1.5c0.1,0.2-0.1-0.4-0.1-0.3c0-0.3,0-0.5-0.1-0.8c-0.1-0.6-0.2-1.2-0.3-1.7
	c-0.3-1.1-0.7-2.2-1.3-3.2c-0.2-0.4-0.6-0.9-0.6-1.2c0,0.1,0,0.1,0-0.1c0-0.1,0-0.3,0-0.4c0-0.2,0-0.4,0-0.6
	c-0.1-1.2-0.3-2.4-0.6-3.5c-0.6-2.1-1.5-4.2-2.5-6.2c-1-1.9-2.1-3.9-3.9-5.1c0,0,0,0,0,0c-0.2-0.1-0.3-0.2-0.5-0.2l-0.1,0
	c-0.1-0.5-0.4-0.9-0.8-1.2c-2.6-1.9-5-4-7.6-5.9c-1.2-0.9-2.5-1.7-3.9-2.3c-1.5-0.5-3.1-0.7-4.7-1c-0.1,0-0.3,0-0.4,0
	c-0.1-0.1-0.2-0.1-0.4-0.1c-0.7-0.2-1.4-0.3-2.1-0.3c-0.3-0.2-0.6-0.4-1-0.5c-0.7-0.2-1.4-0.1-2.1,0c-0.1,0-0.2,0-0.3,0.1
	c-0.3,0-0.7-0.1-1-0.1c-2.2-0.2-4.5-0.1-6.7,0c-0.3,0-0.5,0.1-0.7,0.2c-0.2-0.1-0.4-0.1-0.7-0.1C44.4,1.2,42.6,1.3,41,2
	c-1.4,0.7-2.8,1.4-4.2,2c-0.4,0.1-0.7,0.4-0.9,0.7c-0.4-0.1-0.9,0-1.3,0.2c-1.3,0.6-2.6,1.3-3.9,1.8c-0.8,0.3-1.5,0.6-2.1,1.1
	c-0.6,0.5-1.1,1.3-1.3,2.1c0,0,0,0.1,0,0.1c-0.7,0.1-1.5,0.7-1.5,1.5c-0.1,0.1-0.3,0.2-0.4,0.3c-0.4,0.4-0.8,1-1.1,1.5
	c-0.3,0.6-0.5,1.2-0.7,1.8c-0.1,0.6-0.1,1.1-0.4,1.6c-0.1,0.4-0.1,0.8,0.1,1.1c-0.3,0.3-0.5,0.8-0.5,1.3v0.1c0,0.1,0,0.1-0.1,0.2
	c0-0.1-0.1,0.2-0.1,0.3c-0.2,0.4-0.4,0.7-0.6,1.1c-0.5,0.8-0.7,1.7-0.9,2.6c-0.4,2.1-0.8,4.1-1.2,6.2c-0.1,0.5,0,1,0.2,1.4
	c-0.1,0.2-0.2,0.3-0.2,0.5c-0.1,0.4-0.2,0.8-0.2,1.3c0,0.2,0,0.5,0.1,0.7c-0.1,0.2-0.1,0.4-0.1,0.6c-0.2,2.1-0.3,4.2,0.1,6.3
	c0.3,2,1,3.9,1.5,5.8c1.2,3.9,2.9,7.6,5.3,10.9c0.2,0.2,0.4,0.4,0.6,0.6c-0.1,0.4,0,0.8,0.2,1.1c0.1,0.2,0.3,0.4,0.4,0.5
	c-0.2,0.4-0.3,0.9-0.1,1.3c0.2,0.6,0.3,1.1,0.3,1.6c0,0.7,0,1.4,0.1,2.1c0,0.2,0.1,0.4,0.2,0.6c0,0.1,0,0.2,0,0.3
	c-0.2,1.3-0.4,2.6-0.5,3.9c0,0.6,0,1.3,0,1.9c0,0.6-0.1,1.1-0.3,1.7c-0.3,1.2-0.8,2.4-1.1,3.6c-0.2,0.7-0.3,1.4-0.3,2.1
	c0,0.1,0,0.2,0,0.3c0,0,0,0.2-0.1,0.3c0,0,0,0.1-0.1,0.2l-0.1,0.1c-0.4,0.4-0.6,1-0.5,1.5c-0.1,0-0.1,0.1-0.2,0.2
	c-0.3,0.3-0.5,0.7-0.6,1.1c0,0.1-0.1,0.6-0.1,0.5c-0.1,0.1-0.2,0.3-0.3,0.4c0,0,0,0.1-0.1,0.1c-0.1,0.2-0.3,0.3-0.4,0.5
	c-0.4,0.5-0.6,1-0.8,1.5c-0.3,0.7-0.7,1.3-1.4,1.8c-1,0.7-2,1.3-2.9,2.1c-0.1,0-0.1,0.1-0.1,0.2c-0.2,0-0.5,0-0.7,0
	c-1.2,0.3-2.3,0.8-3.4,1.3c-0.6-0.2-1.3-0.1-1.8,0.4c0,0,0,0,0,0C12.1,91,12,91,11.9,91c-0.1,0-0.1,0-0.2,0.1
	c-0.4,0.1-0.8,0.4-1,0.8c-0.6,0.2-1.2,0.4-1.8,0.6c-0.5,0.2-1,0.4-1.5,0.5c-0.4,0.1-0.6,0.1-1,0c-0.1,0-0.3,0-0.5,0
	c-0.2-0.1-0.5-0.2-0.7-0.2c-0.9,0-1.8,0.8-1.8,1.8c0,1,0.8,1.8,1.8,1.8c0.1,0,0.2,0.1,0.3,0.1c0.4,0.1,0.7,0.1,1.1,0.1
	c0.3,0.5,0.9,0.8,1.5,0.9c0.9,0.1,1.8,0,2.7-0.2c0.3,0.2,0.6,0.3,0.9,0.3c2.6,0.3,5.2,0.1,7.7,0.1c2.6,0,5.2-0.1,7.8-0.1
	c3.7,0,7.5-0.1,11.2-0.1c4.2,0.8,8.4,1.5,12.7,2c5,0.6,9.9,1.1,14.9,0.4c2.3-0.3,4.6-0.9,6.7-1.6c0.8,0,1.7-0.3,2.5-0.5
	c1-0.3,1.9-0.6,2.9-0.8c1.7-0.3,3.7-0.4,5.6-0.6c2-0.1,4.1-0.3,6.1-0.7c1.1-0.2,2.3-0.4,3.2-1.1c0,0,0.3-0.2,0.2-0.2
	c0.1-0.1,0.3-0.1,0.4-0.2c0.6-0.3,1-0.8,1.1-1.4C94.9,91.9,94.4,90.8,93.4,90.6z"/>
<path fill="#000" d="M90.5,90.2c-0.8,0-1.5-0.1-2.3-0.3c-0.6-0.1-1.1-0.4-1.6-0.6c-0.4-0.2-0.9-0.4-1.3-0.5
	c-1.2-0.1-2.3-0.3-3.5-0.3c-2.1,0-4.1-0.1-6.2,0c-1.1,0-2.2-0.2-3.2-0.6c-0.4-1.5,1.2-1.7,1.6-2.7c0.1,0,0.1,0,0.2,0
	c0.1,0.6,0.3,1.1,0.4,1.8c0.2-0.2,0.5-0.3,0.5-0.4c0-0.5-0.1-1.1-0.2-1.6c0-0.2-0.1-0.4-0.1-0.6c0.8,0.3,1.5,0.6,2.3,0.8
	c0.1-0.1,0.1-0.2,0.2-0.2c-0.1-0.2-0.2-0.6-0.4-0.7c-0.4-0.3-0.9-0.4-1.5-0.6c0.2-0.3,0.4-0.5,0.6-0.8c0.4,1.1,0.4,1.1,1.2,0.9
	c-0.2-0.7-0.5-1.3-0.8-2.1c0.3,0.1,0.6,0.1,0.7,0.2c0.5,0.8,1.3,0.5,2,0.5c0-0.3,0-0.4,0-0.7c-0.8,0.3-1.2-0.3-1.7-0.7
	c0.3-0.3,0.6-0.6,0.9-0.9c0,0.2,0.1,0.4,0.1,0.7c0.2,0,0.4,0,0.7,0c0-0.4,0.1-0.9-0.1-1.1c-0.3-0.5,0-0.8,0.2-1.2
	c0,0.3,0,0.7,0.1,1.1c0.2,0,0.4,0,0.7,0c0-0.6,0-1.1,0-1.5c0.7,0.1,1.3,0.3,2,0.4c-0.1-1.3-1-2.6,0.4-3.3c0.3,0.1,0.6,0.2,0.9,0.3
	c0-1.4,0-2.7,0-3.9c0.3-0.1,0.7-0.2,0.9-0.4c0.5-0.4,0.4-0.9,0.1-1.4c-0.3-0.7-0.2-1,0.3-1.5c0.6-0.6,1.2-1.3,1.2-2.2
	c0-0.1,0.2-0.3,0.2-0.4c0,0,0.1,0,0.2,0c0,0.3,0,0.7,0,1.1c0,0.5,0.3,0.7,0.8,0.5c0-0.2,0-0.5,0-0.7c-0.1-1-0.5-2.1,0.5-2.9
	c0.1-0.1,0.1-0.3,0.1-0.5c0.1-0.4,0.3-0.9,0.4-1.3c0,0.1,0.1,0.1,0.1,0.2c0.2,0.1,0.4,0.1,0.6,0.2c0-0.4,0.1-0.9,0.1-1.4
	c0.2-0.5,0.4-1.1,0.6-1.8c0,0.2,0,0.5,0.1,0.8c0.2,0,0.4,0,0.7,0c0-0.6,0-1.1,0-1.7c0-0.2,0-0.4,0.1-0.6c0.2-0.8,0.4-1.7,0.5-2.5
	c0.1-1.6,0-3.2,0.1-4.8c0-0.1,0-0.2,0.1-0.2c0.2-0.3,0.5-0.7,0.6-1c0.1-0.1,0-0.4-0.1-0.6c-0.1-0.2-0.2-0.3-0.2-0.5
	c-0.1-2.2-0.1-4.4-0.2-6.6c0-0.7-0.3-1.4-0.6-2.1c0-0.1-0.3-0.2-0.3-0.3c-0.4-0.9-0.9-1.8-1.3-2.7c0,0,0.1-0.1,0.1-0.2
	c0-0.9,0.2-1.8-0.2-2.7c-0.2-0.5-0.3-1.1-0.5-1.7c-0.2-0.6-0.3-1.3-0.6-1.7c-1.2-1.4-1.6-2.9-1.4-4.7c0-0.4-0.1-0.8-0.3-1.2
	c-0.1-0.5-0.3-0.9-0.4-1.4c-0.3-1.2-0.5-2.4-1.2-3.4c-0.1-0.1-0.1-0.2-0.2-0.3c-0.5-1-0.8-2-1.4-2.9c-0.7-1.1-1.6-2.1-2.5-3
	c-0.7-0.8-1.6-1.4-2.4-2c-1-0.8-2.1-1.7-3.1-2.5c-0.6-0.5-1.3-0.9-1.9-1.3c-1-0.7-1.9-1.6-2.9-2.3c-0.4-0.3-1.1-0.5-1.5-0.8
	c-1-0.9-2.3-1.2-3.5-1.6c-1.9-0.6-3.9-1-5.8-1.5c-1.6-0.4-3.2-0.7-4.9-0.6c-2.5,0.1-5,0.2-7.5,0.1c-2,0-4,0.1-5.9,0.8
	c-0.2,0.1-0.5,0-0.7,0.2C39.7,2,38.7,2,37.9,2.7c-0.8,0.7-1.8,1-2.7,1.5c-0.2,0.1-0.5,0.2-0.8,0.3c-0.9,0.3-1.8,0.6-2.7,1
	c-0.9,0.4-1.8,0.7-2.8,1.1c-0.2,0.1-0.4,0.1-0.5,0.2c-0.9,0.7-1.5,1.6-2.1,2.6C26.1,10,26,10.6,25.5,11c-0.4,0.3-0.7,0.6-1.1,0.9
	c-0.5,0.5-1.1,0.9-1,1.8c0,0.3-0.1,0.6-0.1,0.9C23.2,15,23,15.4,23,15.8c0,0.8-0.4,1.5-0.8,2.1c-0.4,0.6-0.9,1.3-1.1,2
	c-0.3,1-0.6,2.1-0.6,3.1c0,1.3-0.4,2.5-0.9,3.6c-0.1,0.3-0.4,0.6-0.4,1c-0.1,1.4,0.1,2.8-0.3,4.3c-0.3,1.2-0.1,2.5-0.2,3.7
	c0,0.2,0,0.4,0,0.6c0,0.9,0,1.7,0,2.6c0,0.6,0.3,1.2,0.3,1.7c-0.1,1.5,0.4,2.7,1.1,3.9c0.3,0.4,0.3,1,0.4,1.5c0,0.2,0,0.5,0.1,0.6
	c0.7,0.9,0.7,2.1,1.2,3.1c0.4,0.8,0.6,1.7,1,2.4c0.8,1.3,1.6,2.6,2.5,3.9c0.3,0.5,0.6,0.9,0.8,1.4c0.3,0.9,0.5,1.7,0.8,2.6
	c0.1,0.4,0.2,0.7,0.2,1.1c0,2.9,0,5.7,0,8.6c0,0.8-0.1,1.6-0.3,2.4c-0.2,0.6-0.7,1.2-0.8,1.8c-0.3,1.2-0.8,2.3-0.6,3.6
	c0,0.3-0.1,0.5-0.1,0.8c0,1.2-1.1,1.8-1.5,2.8c-0.3,1-1.2,1.8-1.4,2.9c0,0.1-0.1,0.3-0.2,0.4c-0.8,0.8-1.5,1.6-2.3,2.4
	c0,0.1-0.1,0.1-0.2,0.1c-0.9,0.1-1.3,0.9-1.8,1.4c-0.2,0.2-0.4,0.3-0.6,0.3c-0.9,0-1.7,0.2-2.5,0.6c-0.6,0.3-1.4,0.5-2.1,0.7
	c-1,0.3-2.1,0.6-2.9,1.4c-0.5,0.5-1.2,1-2.1,1c-1.1,0-2.3,0-3.4,0c0,0.4,0,0.6,0,1c1.4,0,2.7,0,4.1,0c0.1,0,0.2,0,0.3-0.1
	c0.8-0.5,1.8-0.8,2.4-1.6c0-0.1,0.1-0.1,0.2-0.1c0.9-0.3,1.8-0.6,2.7-0.9c0.4-0.1,0.8-0.3,1.2-0.5c0.6-0.2,1.1-0.4,1.7-0.5
	c1.2-0.1,2.3-0.1,3.5-0.2c0.2,0,0.4-0.3,0.6-0.4c-0.2-0.2-0.4-0.5-0.6-0.5c-0.5-0.1-1,0-1.5,0c0.3-0.2,0.5-0.5,0.7-0.7
	c0.4-0.3,0.9-0.5,1.3-0.8c0.5-0.4,0.9-0.9,1.4-1.4c0.2-0.2,0.5-0.4,0.6-0.7c0.7-1.2,1.3-2.6,2.1-3.8c0.9-1.4,1.3-2.8,1.4-4.5
	c0-0.9,0.3-1.9,0.9-2.9c0.5-0.9,0.8-2,0.8-3c0.1-3.3,0-6.7,0-10c0-0.2,0-0.5-0.1-0.7c-0.2-0.8-0.5-1.6-0.7-2.4
	c-0.2-0.6-0.2-1.3-0.8-1.8c-0.3-0.2-0.6-0.6-0.5-0.9c0.1-0.6-0.3-0.7-0.5-1.1c-0.3-0.4-0.6-0.9-0.9-1.3c-0.2-0.3-0.3-0.5-0.4-0.8
	c-0.1-0.2-0.4-0.3-0.5-0.6c-0.3-0.7-0.6-1.4-0.9-2.2c-0.3-0.8-0.5-1.6-0.8-2.4c-0.1-0.4-0.3-0.8-0.4-1.2c-0.2-0.6-0.3-1.2-0.6-1.8
	c-0.5-1-1.1-1.9-0.9-3.1c0-0.4-0.1-0.7-0.1-1.1c-0.1-0.9-0.2-1.7-0.3-2.6c0-0.9,0.1-1.8,0.1-2.7c0-0.2,0-0.3,0-0.5
	c0.1-1.2,0.5-2.5,0.4-3.7c0-0.6,0-1.2,0-1.8c0-0.1,0-0.3,0-0.4c0.5-0.7,0.8-1.5,0.9-2.4c0.2-1,0.5-2,0.5-3c0.1-1.5,0.6-2.8,1.5-4.1
	c0.4-0.6,0.8-1.3,0.8-2.1c0-0.4,0.2-0.8,0.2-1.2c0.1-0.3,0.2-0.6,0.1-0.9c-0.1-0.7,0.3-1.2,0.8-1.5c1.4-0.9,2-2.4,2.8-3.8
	c0.3-0.5,0.9-1,1.4-1.3c0.7-0.4,1.5-0.6,2.2-0.9c1-0.4,2-0.8,3-1.2C35.1,5.4,35.6,5.2,36,5c0.4-0.2,0.8-0.6,1.3-0.8
	c1.1-0.6,2.2-1,3.2-1.7c0.7-0.5,1.6-0.5,2.3-0.8c1.1-0.4,2.3-0.3,3.5-0.3c1.2-0.1,2.3-0.1,3.5-0.1c3.4,0,6.8-0.2,10.1,0.7
	c1.3,0.3,2.6,0.7,3.9,1c0.8,0.2,1.4,0.6,2.2,0.8c0.9,0.3,1.6,0.6,2.4,1.1c1.3,0.8,2.6,1.6,3.7,2.7c0.3,0.3,0.7,0.6,1.1,0.9
	c0.5,0.3,1.1,0.6,1.6,1c0.5,0.4,1,0.9,1.5,1.3c1.2,0.9,2.4,1.8,3.5,2.7c1.5,1.4,2.6,3.2,3.5,5.1c0.4,0.9,0.9,1.7,1.2,2.6
	c0.3,1,0.4,2,0.8,2.9c0.6,1.3,0.1,2.6,0.4,3.9c-0.3-0.1-0.5-0.3-0.8-0.5c-0.2-0.2-0.4-0.3-0.6-0.5c-0.1-0.1-0.2-0.1-0.2-0.2
	c-0.1-0.5-0.5-0.6-0.8-0.6c-1.9,0-3.8-0.1-5.7,0.5c-0.2,0.1-0.6,0-0.7,0.2c-0.8,0.6-1.1,1.4-0.8,2.5c0.2,0,0.4,0,0.6,0
	c0-0.2,0-0.4,0-0.5c0-0.3,0.7-1.3,1-1.3c0.5-0.1,1.1-0.3,1.6-0.4c1.1-0.1,2.2-0.1,3.3-0.1c0.4,0,0.9,0.1,0.9,0.5
	c0.3,0.3,0.5,0.5,0.7,0.7c0.2,0.2,0.4,0.4,0.6,0.5c0.5,0.3,1.3,0.4,1.6,0.8c0.5,0.6,0.9,1.4,1.2,2.1c0.2,0.5,0.3,1,0.4,1.5
	c0.2,0.8,0.3,1.6,0.5,2.4c-0.3,0.1-0.5,0.1-0.6,0.1c0.2,0.6,0.4,1.1,0.7,1.7c-0.1,0-0.1,0.1-0.2,0.1c-0.2,0-0.4,0-0.6,0
	c-3.9,0.2-7.8-0.4-11.7,0.4c-1.1,0.2-1.4,0.4-1.3,1.4c0,0.5,0,1.1,0,1.6c0,0.5-0.2,0.6-0.7,0.3c-0.5-0.3-0.9-0.6-1.4-0.9
	c-1.4-0.8-2.8-1.2-4.4-1.2c-1.1,0-2.1,0.4-3,0.8c0,0-0.1,0-0.1-0.1c-0.1-0.2-0.1-0.3-0.2-0.5c-0.5-1.1-1-2.2-2.3-2.6
	c-0.6-0.2-1.2-0.3-1.7-0.8c-0.1-0.1-0.4-0.1-0.6-0.1c-0.3,0-0.6-0.1-0.8-0.1c-0.6-0.1-1.2-0.3-1.8-0.3c-3.1,0-6.2,0-9.2,0
	c-0.2,0-0.3,0-0.5,0c-0.8,0.1-1.6,0.3-2.4,0.4c-0.9,0.1-1.2,0.3-1.2,1.2c0,0.5-0.3,0.7-0.7,0.7c-0.6,0.1-1.1,0.1-1.7,0.2
	c-1,0-2.1,0-3.1,0c-0.2,0-0.4,0-0.5-0.1c-0.4-0.4-0.9-0.3-1.4-0.4c-0.3,0-0.7,0-1-0.2c-1.2-0.5-2.5-0.7-3.9-0.7
	c-0.3,0-0.7,0-0.9-0.2c-0.7-0.6-1.5-0.3-2.3-0.4c-0.8,0-1.7,0.1-2.5,0c-1.2-0.1-2,0.5-2.9,1.1c-0.2,0.1-0.3,0.5-0.4,0.7
	c-0.1,1.2-0.1,2.3-0.2,3.5c0,0.7,0.3,1.1,1,1.3c0.2,0.1,0.3,0.2,0.5,0.3c0.3,0.1,0.6,0.5,0.8,0.4c0.3-0.2,0.5-0.5,0.6-0.9
	c0.1-0.7-0.6-0.9-1-1.3c-0.2-0.1-0.3-0.4-0.3-0.6c0-0.5,0.1-0.9,0.1-1.4c0-1,0.8-1.7,1.8-1.7c1.1,0,2.2,0,3.2,0c0.2,0,0.3,0,0.5,0.1
	c0.5,0.1,1,0.4,1.6,0.4c1.6,0,3.1,0.3,4.6,0.8c0.6,0.2,1.1,0.4,1.7,0.4c1.5,0.1,3,0,4.4,0c0.5,0,1-0.1,1.6-0.2c0,0.3,0,0.5,0,0.8
	c0,2.5,0,4.9,0,7.4c0,0.3,0.1,0.7,0.3,0.9c0.6,0.5,1.3,1,2.2,1c0.3,0,0.6,0,0.8,0.2c0.7,0.4,1.4,0.7,2.2,0.7
	c1.3,0.1,2.6,0.4,3.9,0.5c2.4,0.1,4.8,0,7.2,0c0.3,0,0.5,0,0.8-0.1c0.8-0.1,1.6-0.3,2.4-0.5c0.3-0.1,0.6-0.3,0.7-0.5
	c0.2-0.5,0.2-1,0.3-1.5c0.1-1.1,0.3-2.2,0.4-3.3c0.1-0.7,0.2-1.3,0.2-2c0-0.7,0.4-1.2,0.9-1.5c0.5-0.3,1.1-0.5,1.6-0.6
	c1.1-0.2,2.2,0.1,3.2,0.6c1,0.5,2,1.1,2.9,1.7c0.1,0.1,0.1,0.4,0.1,0.6c0,0.4-0.2,0.8-0.2,1.2c0,1.5,0,3.1,0,4.6
	c0,0.9,0.6,1.5,1.5,1.5c1.2,0,2.4,0,3.7,0c0.2,0,0.4,0,0.5,0c0.7,0.6,1.6,0.3,2.3,0.5c1.2,0.3,2.3-0.3,3.5-0.5
	c0.6-0.1,1.2-0.3,1.8-0.3c0.4,0,0.8,0.2,1.2,0.2c0.3,0,0.7,0,1-0.1c0.2-0.1,0.4-0.3,0.6-0.5c0.1,0,0.2,0.1,0.2,0.1
	c0,0.4-0.1,0.8-0.1,1.2c0,1,0,2,0,3c0,0.3-0.2,0.5-0.3,0.9c-0.3-0.3-0.5-0.6-0.7-0.8c-0.6-0.7-1.4-1.3-1.7-2.2
	c-0.1-0.3-0.4-0.6-0.9-0.3c0.1,1.6,1.4,2.4,2.4,3.6c-0.6,0-1.1,0-1.6,0c0,0.3,0,0.4,0.1,0.7c0.5,0,0.9,0,1.3,0
	c0.4,0,0.8-0.1,0.9,0.2c-0.4,0.8-0.7,1.5-1,2.1c-0.3-0.1-0.8-0.1-1.4-0.2c0.1,0.4,0.2,0.6,0.3,0.7c0.5,0.4,0.6,0.9,0.2,1.4
	c-0.5,0.6-0.9,1.3-0.9,2.1c-0.2-0.1-0.5-0.1-0.7-0.2c-0.1,0.6-0.1,1.2-0.3,1.6c-0.3,0.7-0.6,1.4-0.9,2.1c-0.1,0.3-0.3,0.5-0.4,0.7
	c0,0-0.1,0-0.2-0.1c-0.2-1-0.5-2-0.7-2.9c-0.3,0-0.5,0-0.7,0c0,0.3,0,0.5,0,0.7c0.1,0.4,0.2,0.9,0.3,1.3c0.1,0.3,0.1,0.6,0.2,0.9
	c0.2,0.4,0.2,0.8,0,1.2c-0.4,0.8-0.7,1.5-1,2.4c-0.6,0-1.3,0-1.9,0c0,0.2,0,0.4,0,0.7c0.7,0,1.3,0,2.1,0c-0.5,1,0.1,2.2-0.6,3
	c-0.1,0-0.1,0-0.2,0c0-0.7,0-1.4,0-2.2c-0.5,0.1-1,0.1-1.6,0.2c0.2,0.4,0.3,0.6,0.5,0.9c0.1,0.2,0.2,0.3,0.2,0.5c0,0.6,0,1.1,0,1.6
	c-0.3,0.2-0.6,0.3-0.9,0.5c0-0.3-0.1-0.5-0.1-0.7c-0.3,0-0.5,0-0.8,0c0.1,0.6,0.1,1,0.2,1.6c-0.7,0-1.4,0-2.1,0
	c-0.2,0.9,0.4,0.8,0.8,0.8c0.2,0.8-0.3,1.2-1.7,1.4c0,0.4,0,0.9,0,1.4c-0.5-0.6-1-0.9-1.7-0.7c-0.3,0.6,0.2,0.7,0.5,0.8
	c0.5,0.3,0.5,0.7,0.4,1.1c0,0.2-0.2,0.6-0.3,0.6c-0.6,0-0.8,0.4-1,0.8c-0.3,0-0.5,0-0.8-0.1c-0.2,0.5,0,0.8,0.5,0.9
	c-0.1,0.3-0.2,0.5-0.3,0.7c-0.3,0.3-0.7,0.6-1,0.8c-0.2-0.1-0.4-0.2-0.8-0.3c0.2,0.9-0.1,1.3-0.7,1.6c0,0-0.1-0.1-0.1-0.1
	c-0.3-0.7-0.7-1.3-1.4-1.6c-0.4-0.2-0.8-0.3-1.1,0.1c-0.1,0.1-0.3,0.2-0.4,0.2c-0.4,0-0.7,0-1.1,0c-0.2,0-0.4,0.1-0.6,0.2
	c-0.4-0.7-0.7-1.6-1.9-1.1c0,0.2,0,0.3,0,0.5c0.2,0,0.4,0,0.6,0.1c0.4,0.3,0.7,1.9,0.4,2.3c-0.1,0.1-0.2,0.2-0.3,0.2
	c-1,0-2-0.1-3-0.1c-0.4-0.9,0.2-1.4,0.5-2c0.1-0.3,0.2-0.4,0.2-0.7c-0.4,0-0.7,0-0.9,0c-0.2,0.4-0.4,0.8-0.5,1.2
	c-0.1,0.4-0.1,0.8-0.1,1.2c-0.3,0-0.6,0-0.9,0c-0.3-0.7-0.5-1.3-0.7-2c-0.1-0.4-0.4-0.6-0.9-0.3c0.2,0.8,0.5,1.5,0.7,2.3
	c-0.5,0-1,0-1.5,0c-0.2-0.4-0.3-0.8-0.5-1.2c-0.2-0.4-0.5-0.7,0-1.1c0.1-0.1,0-0.3,0-0.5c-1-0.2-1.1-0.1-1.3,0.6
	c-0.1,0.3-0.3,0.6-0.4,0.9c-0.1-0.7-0.2-1.3-0.1-2c0-0.3,0.1-0.8,0.3-0.9c0.4-0.2,0.3-0.4,0.3-0.6c-0.5-0.2-0.9-0.4-1.4-0.6
	c-0.1,0.7-0.1,1.3-0.2,1.9c-0.1,0.6-0.4,1.1-0.6,1.6c-0.2-0.1-0.4-0.2-0.5-0.3c-1-0.8-1-1.1-0.1-2c0.1-0.1,0.1-0.4,0.2-0.7
	c-0.4,0-0.7,0-1.1,0c0.2-0.3,0.4-0.4,0.5-0.6c0.1-0.2,0.1-0.5,0.2-0.8c-0.4,0.1-0.7,0.1-1,0.2c-0.2-0.8-0.4-0.9-1-0.7
	c-0.2,0.8,0.6,1.5,0.1,2.2c-0.4-0.3-0.7-0.6-1-0.9c-0.1-0.1-0.1-0.2-0.1-0.3c-0.2-0.5-0.4-1.1-0.7-1.5c-0.2-0.3-0.4-1.4-0.2-1.8
	c0.2-0.3,0.3-0.6,0.4-1c-0.5-0.1-0.8-0.2-1.2-0.3c-0.3,0-0.4,0-0.4,0.4c0,0.3-0.1,0.6-0.1,1.1c-0.3-0.3-0.5-0.4-0.7-0.6
	c-0.3-0.3-0.5-0.7-0.8-1c-0.3-0.3-0.3-0.5-0.1-0.8c0.3-0.6,0.6-1.2,0.4-2c-1-0.1-0.6,1-1.1,1.3c-0.1-0.4-0.1-0.8-0.2-1.1
	c0-0.1,0-0.2,0.1-0.3c0.1-0.2,0.2-0.4,0.4-0.7c-0.7,0-1.1,0-1.6,0c-0.8-0.9-0.5-2.3-1.1-3.3c-0.1,0-0.3,0-0.6,0
	c0,0.4,0.1,0.8,0.1,1.2c-0.5-0.6-1-1-0.9-1.9c0.1-1,0-2,0-2.9c0-0.5-0.2-0.7-0.7-0.5c0,0.9,0,1.8,0,2.9c-0.2-0.3-0.3-0.5-0.4-0.7
	c-0.1-0.2-0.1-0.5-0.2-0.6c-0.5-0.6-0.5-1.2,0.2-1.7c0.6-0.3,0.8-0.8,0.6-1.5c-0.3-0.1-0.5,0-0.7,0.3c-0.2,0.4-0.7,0.6-1.2,0.9
	c-0.3-0.8-0.6-1.4-0.9-2.1c-0.1-0.2-0.7-0.1-0.4-0.6c0.2-0.3,0.7-0.6,1.1-0.7c0.6-0.2,0.8-0.4,0.7-1.2c-0.9,0-1.6,0.7-2.4,0.9
	c0-0.8-0.1-1.6-0.1-2.3c0.2,0,0.4-0.1,0.6-0.1c0-0.2,0-0.4,0-0.6c-0.3,0-0.5,0-0.7,0c-0.1,0-0.3-0.2-0.3-0.3
	c0.2-0.6,0.5-1.3,0.7-1.9c0.1-0.3,0.3-0.6,0.4-0.9c-0.1,0-0.2-0.1-0.3-0.1c-1.3,0.2-1,1.6-1.6,2.4c-0.1-0.5-0.2-0.9-0.3-1.2
	c-0.2-0.5-0.2-0.9,0.6-0.9c-0.2-0.4-0.3-0.6-0.5-0.9c0.5-0.5,0.5-1.4,1.5-1.5c0-0.2,0-0.4,0-0.6c-0.4,0-0.7,0-1,0c0,0,0-0.1,0-0.1
	c0.4-0.3,0.8-0.6,1.3-0.9c0-0.1,0-0.2,0-0.5c-0.5,0-0.9,0.1-1.1,0.1c-0.3-0.3-0.5-0.7-0.7-0.7c-0.5,0-0.5,0.5-0.5,0.9
	c0,0.4,0,0.8-0.4,1.1c-0.6,0.4-1.2,0.9-1.7,1.3c-0.1,0.1-0.4,0.1-0.5,0c-0.7-0.4-1.4-0.8-2.1-1.2c-0.5-0.3-0.8-0.8-1.6-0.5
	c0.1,0.3,0.1,0.6,0.3,0.7c0.3,0.3,0.7,0.6,1.2,0.8c1.3,0.7,2.7,1.3,4.1,2c-0.1,0.3-0.1,0.6-0.2,0.8c0.2,0.2,0.5,0.2,0.5,0.4
	c0.3,0.8,0.6,1.7,0.9,2.5c-0.9,0.2-2,0.4-3,0.7c0,0.2,0,0.4,0,0.7c0.9-0.2,1.8-0.4,2.8-0.6c-0.3,1-0.9,1.7-0.7,2.6
	c0.4,0.1,0.6,0.1,0.8-0.3c0.2-0.5,0.4-1,0.6-1.6c0.1,0.2,0.1,0.3,0.1,0.3c0.1,0.8-0.3,1.7,0.5,2.3c0,0,0,0.1,0,0.1
	c0,0.8,0,1.6,0,2.4c-0.8,0.1-1.6,0.2-2.3,0.2c-0.5,0-0.7,0.2-0.5,0.7c0.6,0,1.2-0.1,1.8-0.2c0.5-0.1,1-0.1,1.2,0.5
	c0.3,0.8,0.5,1.6,0.6,2.5c0.1,1.2,0,2.5-0.1,3.8c0,0.5-0.2,1-0.4,1.5c-0.1,0.4-0.4,0.7-0.6,1c-0.1,0.1,0,0.3,0,0.5
	c0.1,0,0.3,0,0.4-0.1c0.7-0.7,1.1-1.6,1.1-2.7c0-0.9,0.1-1.8,0.1-2.7c0.2,0,0.4-0.1,0.6-0.1c0,0.3,0,0.6,0.1,0.9c0.1,0,0.2,0,0.3,0
	s0.2,0,0.3-0.1c0.1-1.1,0.1-1.1,0.8-1.2c1.2,0.7,0.6,1.9,0.8,2.9c0.2,0,0.4,0,0.6,0c0-0.4,0-0.8,0.1-1.1c0.1,0,0.2,0,0.2,0
	c0,0.3,0.1,0.6,0,0.9c-0.3,0.5-0.6,0.9-0.9,1.3c-0.6,0.5-0.6,1.1-0.4,2c0.9-0.3,1.8-0.6,2.8-1c0,0.5,0,0.9,0,1.4c0.3,0,0.5,0,0.7,0
	c0-0.3,0-0.6,0-1c0.2,0.2,0.3,0.4,0.5,0.6c0.2,0.4,0.4,0.7,0.1,1.1c-0.6,0.7-0.9,1.6-0.8,2.6c0.2,0,0.4,0,0.6,0
	c0.2-0.5,0.4-0.9,0.5-1.4c0.1,0,0.2,0,0.3,0c0,0.6,0,1.2,0,1.9c0,0.7,0.2,0.9,1,0.6c-0.1-0.3-0.2-0.7-0.3-1c0.5-0.1,1.1-0.2,1.6-0.4
	c0.8,0.9,1,2.1,0.8,3.4c0.3,0,0.4,0,0.6,0c0-0.2,0.1-0.4,0.2-0.7c0.5,0.5,0.9,0.9,1.2,1.3c-0.1,0.8-1.3,0.8-1.2,1.7
	c0.8,0.3,1.2-0.3,1.6-0.6c0.2,0.2,0.3,0.4,0.5,0.4c0.5,0,0.7,0.3,1,0.6c0.2,0.2,0.4,0.4,0.7,0.6c0.3,0.2,0.3,0.3,0.2,0.7
	c-0.2,0.6-0.2,1.1-0.3,1.7c0.6,0.2,0.9,0,0.9-0.6c0-0.3,0.2-0.6,0.2-0.8c1,0.1,0.6,0.9,0.8,1.4c0.2-0.1,0.5-0.2,0.6-0.3
	c0.6-0.4,1.7-0.2,2,0.3c0.2,0.4,0.4,0.8,0.7,1.1c0.2,0.2,0.5,0.3,0.7,0.4c0.1-0.1,0.1-0.1,0.2-0.2c-0.2-0.5-0.3-1.1-0.5-1.6
	c0.4,0,0.7,0,1.1,0c0,0.9,0,1.7,0,2.5c0.2,0,0.4,0,0.7,0c0-0.7,0-1.5,0-2.2c0,0,0.1,0,0.1,0c0.1,0.2,0.3,0.3,0.4,0.5
	c-0.4,0.4-0.6,1.1-0.3,1.4c0.2,0,0.3,0,0.5,0c0.2-0.4,0.4-0.8,0.6-1.1c0.2,0,0.5-0.1,0.7-0.1c0-0.1,0-0.1,0-0.2
	c-0.2-0.2-0.5-0.3-0.7-0.5c1,0.1,2,0.1,3,0.2c0,0.4-0.1,0.8-0.1,1.3c0.3,0,0.5,0,0.6,0c0.1-0.4,0.3-0.9,0.5-1.4
	c0.5,0.1,1,0.2,1.5,0.3c0.2,0,0.3,0,0.5,0c0.4-0.1,0.8-0.2,1.3-0.3c0,0.5,0,0.8,0.1,1.2c0.2,0,0.4,0,0.5,0c0.1-0.3,0.2-0.5,0.3-0.6
	c0.4-0.3,1.4,0,1.7,0.4c0.1,0.1,0.6,0.2,0.6,0.2c0.2-0.6,0.6-0.2,0.9-0.2c0.3,0,0.6,0.2,0.9,0.2c3.5,0,7-0.1,10.5,0.3
	c0.2,0,0.4,0,0.5,0.1c1.2,0.4,2.4,1,3.7,1c1.3,0,2.7,0,4.1,0c0-0.2,0-0.4,0-0.7C92.1,90.2,91.3,90.3,90.5,90.2z M63.5,43.8
	c0,1.2,0,2.4-0.4,3.5c-0.1,0.3,0,0.7,0,1.2c-0.4,0.1-0.7,0.1-1.1,0.2c-0.2,0-0.4,0-0.5,0.1c-0.7,0.5-1.5,0.4-2.2,0.4
	c-1.6,0-3.2,0-4.8,0c-1,0-2.1,0-3.1-0.2c-0.8-0.1-1.5-0.3-2.3-0.4c-0.1,0-0.2-0.1-0.3-0.1c-0.4-0.6-1.1-0.5-1.7-0.6
	c-0.5-0.1-1.1-0.2-1.7-0.4c0.2-3.3-0.3-6.6,0.5-10c0.4,0,0.7-0.1,1.1-0.1c3.2-0.5,6.5-0.2,9.7-0.3c1,0,2,0.3,3,0.4c0,0,0,0,0.1,0
	c0.6,0.3,1.3,0.6,2,0.9c1.2,0.5,1.7,1.4,1.7,2.7C63.5,41.9,63.5,42.9,63.5,43.8z M75.7,42.8c0-0.2,0.2-0.4,0.3-0.4
	c0.8-0.2,1.5-0.3,2.3-0.4c0.1,1,0.2,1.7,0.2,2.5c-1,0-2.1,0-3.2,0C75.6,43.8,75.6,43.3,75.7,42.8z M89.6,48.7c-1,0.1-2,0.3-3,0.4
	c-1,0.1-1.9,0.3-2.9,0.4c-0.2,0-0.3,0.1-0.5,0.2c-0.4,0.3-0.7,0.3-1.1-0.1c-0.2-0.2-0.6-0.3-0.9-0.3c-1.7,0-3.4,0-5.2,0
	c-0.2,0-0.4,0-0.7,0c0-1.3,0-2.6,0-4c1.4,0.5,2.8-0.2,4.1,0.6c0.7,0.4,1.7,0.5,2.6,0.6c1,0.1,1.2-0.1,1.2-1.1
	c0.1-0.8,0.1-1.5,0.1-2.3c0-0.7,0.1-1.4-0.7-1.9c0,0,0.1-0.1,0.1-0.1c0.3,0,0.6,0.1,0.9,0c0.2-0.1,0.3-0.3,0.5-0.5
	c-0.2-0.2-0.3-0.4-0.5-0.4c-1.4,0-2.7-0.2-4.1,0.4c-0.7,0.3-1.5,0.5-2.4,0.5c-0.4,0-0.7,0.1-1.2,0.1c0-0.7,0-1.3,0-1.8
	c2.5-0.8,5.1-0.5,7.6-0.5c1.4,0,2.7,0,4.1,0c0.7,0,1,0.6,0.8,1.3c-0.2,0.6-0.4,1.2-0.5,1.8C88,42.7,88,43.3,88,44
	c0,0.9,0,1.8,0.7,2.5c0.3,0.3,0.3,0.8,0.4,1.3c0.1,0,0.3,0,0.5,0.1C89.6,48.2,89.6,48.4,89.6,48.7z M80.1,45c0.8-0.3,2,0.5,2.2-1
	c0.1,2.1,0,1.6-1.6,1.3C80.4,45.3,80.3,45.2,80.1,45z M89.9,46.2c-0.9-0.8-1.1-1.5-0.7-2.5c0.1-0.2,0.1-0.5,0-0.8
	c-0.3-0.8-0.1-1.4,0.3-2.1C89.9,41.3,90.1,43.9,89.9,46.2z M34.9,54.5c-0.3-0.2-0.6-0.3-1-0.5c0.4-0.3,0.6-0.5,1-0.8
	C34.9,53.6,34.9,54,34.9,54.5z M38.2,67.3c-0.1,0-0.2,0-0.3,0c-0.1-0.4-0.3-0.7-0.3-1.1c0-0.1,0.1-0.4,0.2-0.4
	c0.1,0,0.5,0.1,0.5,0.2C38.3,66.5,38.2,66.9,38.2,67.3z M39.7,69.1c-0.1-0.5-0.7-0.9-0.5-1.6C40.2,68.5,40.3,68.9,39.7,69.1z
	 M42.7,74.1c-0.1,0.1-0.2,0.2-0.3,0.2c-0.1,0.1-0.3,0.1-0.5,0.2c0.4-0.6,0.8-1.1,1.1-1.6C43.4,73.6,43.3,73.8,42.7,74.1z M46,79
	c0-0.4,0-0.7,0-1c0,0,0.1,0,0.1-0.1c0.1,0.3,0.3,0.5,0.4,0.8C46.4,78.8,46.3,78.9,46,79z M56.8,86.9c-0.2,0-0.5,0-0.6-0.2
	c-0.1-0.2,0-0.4,0-0.6c0.1,0,0.1,0,0.2,0c0.1,0.2,0.3,0.5,0.4,0.7C56.9,86.8,56.9,86.9,56.8,86.9z M67.7,87.4
	c-0.8-0.1-0.8-1-1.2-1.6c0.6,0,1.1-0.1,1.5,0.4c0.4,0.4,1,0.5,1.5,0.7C69,87.9,68.3,87.5,67.7,87.4z M58.1,68.5
	c-0.3,0.6-0.7,1.2-0.8,1.8c-0.2,1-0.1,2.1-0.2,3.1c0,0.5,0,0.9,0.4,1.3c0.2,0.2,0.3,0.6,0.4,0.9c0.2,0.7,0.3,1.5,0.8,1.9
	c0.6,0.5,0.6,1.3,1.2,1.7c0.5,0.3,0.7,1.1,1,1.7c0.1,0.3,0.2,0.6,0.3,0.8c0.3,0.7,1,0.7,1.6,1c0.3,0.1,0.5,0.4,0.8,0.4
	c0.4,0,0.9-0.2,1.3-0.2c1.2,0,2.2-0.2,3.2-0.8c0.4-0.2,0.7-0.5,1.1-0.6c1.3-0.4,2.6-0.9,3.5-2c0.4-0.5,0.8-1.1,1.2-1.7
	c0.3-0.5,0.7-0.9,1-1.4c0.2-0.4,0.3-0.9,0.6-1.2c1-1.1,1.1-2.4,1.2-3.7c0-0.3,0-0.6,0-0.9c0-0.5,0-1,0-1.5c0-0.4-0.1-0.8-0.4-1
	c-0.6-0.5-1.3-0.9-1.9-1.4c-0.8-0.7-1.7-0.9-2.7-0.8c-0.6,0-1.2,0-1.8-0.2c-0.5-0.1-1-0.3-1.5-0.5c-0.6-0.3-1.2-0.6-2-0.6
	c-0.6,0-1.2,0-1.9,0c-0.2,0-0.4,0-0.5,0.1c-1.1,0.8-2.6,1-3.7,1.9C59.6,67.2,58.6,67.6,58.1,68.5z M71.8,66.7
	c0.5,0.1,0.9,0.3,1.4,0.4c0,0.6,0,1.2,0,1.8c-0.5,0-0.9,0-1.4,0C71.8,68.3,71.8,67.6,71.8,66.7z M68.9,66.6c0.6,0.1,1.1,0.1,1.5,0.2
	c0.1,0,0.3,0.2,0.3,0.3c0,0.4,0.1,0.8,0,1.2c-0.1,0.6-1.1,1-1.6,0.7c-0.1-0.1-0.2-0.2-0.2-0.3C68.9,67.9,68.9,67.3,68.9,66.6z
	 M65.7,65.6c1.6-0.2,2.6,0.3,2.3,2.7c-0.8,0-1.5,0-2.3,0C65.7,67.3,65.7,66.5,65.7,65.6z M64.7,65.5c0,0.9,0,1.8,0,2.8
	c-0.6,0-1.1,0-1.6,0c-0.1,0-0.3-0.3-0.4-0.5c-0.1-0.3-0.1-0.7-0.1-1.1C63.3,66.5,63.7,65.5,64.7,65.5z M61.6,67.1
	c0,0.5,0.1,1,0.1,1.5c0,0.1-0.2,0.3-0.4,0.3c-0.1,0-0.3,0-0.3-0.1c-0.2-0.3-0.4-0.6-0.7-1C60.7,67.6,61.2,67.4,61.6,67.1z
	 M74.8,60.4c-0.3,0.4-0.5,0.8-0.5,1.3c0,0.3-0.1,0.7-0.2,1.1c-0.8-0.4-1.4-0.9-2.2-0.7c-0.2,0.1-0.4,0.3-0.6,0.4
	c0.2,0.2,0.3,0.5,0.5,0.5c0.7,0,1.1,0.3,1.6,0.7c0.5,0.3,0.9,0.3,1.2-0.1c0.4-0.4,0.7-0.9,0.7-1.5c0-0.3,0.1-0.7,0.3-1
	c0.5-1,1.2-1.9,1.5-2.9c0.2-0.5,0.4-1.2-0.3-1.8c-1.1-0.9-1.9-2.1-3-3c-0.7-0.6-0.8-1.3-1.2-2c-0.4-0.8-0.4-1.6-0.4-2.5
	c0-0.2-0.3-0.4-0.5-0.6c-0.2,0.2-0.4,0.3-0.5,0.5c-0.1,1.1,0,2.3,0.4,3.3c0.1,0.2,0.2,0.4,0.4,0.7c0.1,0.3,0.2,0.5,0.4,0.8
	c0.2,0.3,0.4,0.4,0.7,0.7c0.9,0.9,1.8,1.9,2.7,2.8c0.3,0.3,0.4,0.6,0.3,0.8C75.8,58.6,75.4,59.6,74.8,60.4z M56.6,11.5
	c-0.2,0-0.3,0-0.5,0c-0.6-0.3-1.1-0.6-1.7-0.8c-1-0.4-2.1-0.4-3.1-0.9c-0.5-0.3-1.2-0.3-1.9-0.3C47.7,9.5,45.8,9,44,9.9
	c0,0.3-0.1,0.8-0.1,1.2c0.7,0.1,0.7,0.1,0.9-0.6c0.2,0,0.5,0,0.6-0.1c0.4-0.5,0.9-0.3,1.4-0.3c1,0.1,1.9,0,2.9,0.2
	c0.8,0.2,1.5,0.5,2.2,0.6c1,0.2,2,0.5,2.9,0.8c0.3,0.1,0.6,0.4,0.9,0.4c1,0.1,2.1,0.3,3.1,0.3c2.7,0,5.3,0,8,0c0.2,0,0.4,0,0.6,0
	c0.6,0,1.1,0.1,1.7,0.1c0-0.3,0-0.5,0-0.6c-0.5-0.1-1-0.2-1.5-0.2C63.9,11.7,60.3,11.8,56.6,11.5z M70.6,20.5
	c-0.5,0-0.9,0.1-1.4,0.2c-1.4,0.5-2.8,0.3-4.2,0.1c-0.8-0.1-1.6-0.5-2.5-0.8c-0.2-0.1-0.5,0-0.6-0.1c-0.5-0.2-1-0.5-1.5-0.7
	c-0.7-0.3-1.3-0.5-2-0.8c-0.3-0.1-0.6-0.2-0.9-0.4c-0.7-0.4-1.4-0.9-2.3-0.8c-1.7,0.1-3.4,0-5.2,0c-0.2,0-0.4,0-0.7,0
	c0,0.3,0,0.5,0,0.7c1.9,0,3.7,0,5.6,0c0.4,0,0.9,0.1,1.2,0.3c0.5,0.5,1,0.6,1.6,0.8c0.7,0.2,1.4,0.6,2.1,0.9c0.5,0.2,1,0.6,1.5,0.7
	c1.3,0.3,2.5,0.7,3.8,0.8c1.3,0.1,2.7,0,4.1,0c0.3,0,0.6-0.2,0.8-0.2c1.3-0.1,2.5-0.1,3.8-0.2c0.5,0,0.6-0.2,0.4-0.7
	C73.1,20.4,71.9,20.4,70.6,20.5z M42.7,27.1c-0.3,0.2-0.5,0.5-0.7,0.7c-0.2,0.2-0.3,0.5-0.4,0.6c-0.6,0.2-0.9,0.8-1.2,1.3
	c-0.2,0.3-0.4,0.6-0.6,1c-0.2,0.4-0.3,0.7-0.4,1.1c0.1,0.1,0.1,0.1,0.2,0.2c0.2-0.1,0.5-0.1,0.6-0.2c0.3-0.5,0.6-1,0.9-1.5
	c0.2-0.3,0.3-0.7,0.6-0.8c0.6-0.3,0.9-0.8,1.3-1.2c0.8-0.7,1.8-1.2,2.7-1.6c0.6-0.3,1.2-0.4,1.8-0.4c2,0,4-0.1,6.1,0
	c0.6,0,1.4-0.1,1.8,0.6c0.5,0.8,1.4,0.8,2.1,1.1c0.3,0.2,0.6,0.3,0.9,0.4c0.2,0.1,0.4,0.2,0.6,0.3c0.2-1,0.1-1.2-0.5-1.4
	c-0.5-0.2-0.9-0.3-1.4-0.4c-0.5-0.1-0.9-0.3-1.2-0.8c-0.1-0.2-0.4-0.4-0.6-0.5c-0.6-0.1-1.1-0.1-1.7-0.1c-1.8,0-3.6,0-5.4,0
	c-1.9-0.1-3.6,0.4-5.1,1.5C42.9,26.9,42.8,27,42.7,27.1z M37.5,82.1c-1,0.3-2.1,0.5-2.9,1c-0.7,0.4-1.2,1.3-1.8,2
	c-0.6,0.8-1,1.7-1.6,2.5c-0.5,0.7-1,1.3-2,1.1c-0.1,0-0.4,0.3-0.4,0.5c0,0.2,0.3,0.4,0.4,0.5c0.2,0.1,0.5,0,0.7,0c0,0,0,0.1,0,0.1
	c0.4-0.1,0.8-0.1,1.1-0.4c0.6-0.6,1.2-1.2,1.7-1.9c0.5-0.7,0.8-1.5,1.2-2.2c0.7-1.1,1.8-1.6,3-2c0.3-0.1,0.7-0.2,0.9-0.4
	c0.1-0.1,0.3-0.4,0.2-0.5C38,82.3,37.7,82.1,37.5,82.1z M57.8,94.1c-0.4,0-0.7,0.1-1.1,0.3c-0.8,0.4-1.2,1.2-1.6,1.9
	c-0.1,0.2-0.3,0.3-0.5,0.3c-0.7,0-1.5,0-2.2,0c-0.7,0-0.8-0.2-1-0.9c-0.1-0.4-0.6-0.9-0.9-1c-0.4-0.1-0.7-0.3-1-0.5
	c-0.1-0.1-0.2-0.3-0.4-0.3c-0.9-0.4-1.9-0.7-3-0.6c-0.3,0-0.6,0.3-1,0.4c0,0.1,0,0.2,0.1,0.3c0.2,0,0.4,0.1,0.5,0
	c0.9-0.4,1.8-0.2,2.7,0.2c0.6,0.2,1,0.6,1.6,0.9c0.5,0.2,0.9,0.5,0.9,1.1c0,0.6,0.5,0.9,1.1,0.9c0.9,0,1.8,0,2.8,0
	c0.5,0,0.8-0.2,0.9-0.7c0.5-1.4,1.3-2,2.8-2c0.5,0,1,0,1.6,0c0.2,0,0.3-0.2,0.5-0.3c-0.1-0.1-0.3-0.3-0.4-0.3
	C59.4,94.1,58.6,94.1,57.8,94.1z M60.6,58.7c0.8,0.1,1.5-0.2,2.2-0.5c0.2-0.1,0.4-0.3,0.4-0.5c0-0.2-0.3-0.4-0.5-0.4
	c-0.2-0.1-0.4,0-0.6,0.1c-0.5,0.1-1,0.3-1.5,0.3c-0.4,0-0.8,0.1-1,0.5c-0.2,0.4-0.3,0.8-0.5,1.2c0,0,0.1,0,0.2,0
	c-0.3,1.1,0.5,1.9,1,2.6c0.6,1,1.7,1.2,2.8,1.1c0.4,0,0.7-0.1,0.7-0.5c0-0.2-0.4-0.4-0.7-0.4c-0.4-0.1-0.8-0.1-1.2-0.2
	c-0.9-0.2-1-1-1.3-1.6c-0.2-0.4-0.2-0.9-0.3-1.3C60.2,58.9,60.5,58.6,60.6,58.7z M53.5,65.6c0.4-0.2,0.9-0.4,1.4-0.4
	c0.8-0.1,1.3-0.6,1.2-1.3c-0.3,0.1-0.7,0.1-1,0.2c-0.2,0.1-0.4,0.3-0.6,0.4c-0.4,0.2-0.9,0.3-1.3,0.4c-0.4,0.1-0.6,0.4-0.6,0.8
	c0,1.3,0,2.6,0,4c0,0.3,0.1,0.6,0.3,0.8c0.5,0.5,0.6,1.1,0.5,1.8c0,0.2,0,0.5,0,0.7c0.3,0,0.5,0,0.7,0c0-0.8,0-1.5,0-2.2
	c0-0.2-0.2-0.4-0.3-0.5c-0.2-0.3-0.5-0.7-0.5-1c-0.1-1,0-1.9,0-2.9C53.3,66,53.4,65.7,53.5,65.6z M79.3,67.3c0-0.3-0.1-0.4-0.5-0.6
	c-0.6-0.2-1.2-0.3-1.5-0.9c-0.1-0.2-0.6-0.2-1-0.1c-0.1,0-0.2,0.3-0.3,0.5c0.8,0.5,1.5,1,2.3,1.4c-0.1,1.4-0.1,2.9-0.2,4.4
	c0.5,0.2,0.7,0,0.7-0.4c0-0.3,0-0.5,0-0.8C79.1,69.7,79.2,68.5,79.3,67.3z M61.3,29.6c0,0.5-0.2,1.1,0,1.3c0.4,0.6,1.1,0.9,1.6,1.4
	c0.2,0.2,0.4,0.3,0.5,0.5c0.2,0.6,0.4,1.2,0.6,1.9c0.1,0,0.3,0,0.6,0c0-0.9,0.1-1.8-0.4-2.5c-0.4-0.5-0.8-1-1.4-1.3
	c-0.6-0.3-0.9-0.7-0.9-1.3C61.7,29.6,61.5,29.6,61.3,29.6z M72.1,33.5c0,0.2-0.2,0.4-0.2,0.6c-0.1,0.2-0.1,0.5-0.2,0.7
	c0.8,0.2,1.1-0.1,1.2-0.8c0-0.2,0-0.4,0.1-0.6c0.2-0.4,0.5-0.8,0.8-1.1c0.2-0.2,0.5-0.4,0.8-0.5c0.5-0.2,0.7-0.4,0.5-1.1
	c-0.6,0.1-1.3,0.1-1.6,0.5C72.8,31.9,72.2,32.6,72.1,33.5z M85.7,58.9c0.4,0.3,0.6,0.7,0.8,1.1c0.2,0.3,0.3,0.5,0.7,0.3
	c0.2-0.8-0.1-1.6-0.6-1.9c-0.6-0.3-0.7-0.7-0.7-1.3c0-0.1,0-0.2-0.1-0.3c-0.2,0-0.4,0-0.6,0c0,0.4,0,0.8,0,1.1
	C85.2,58.4,85.4,58.7,85.7,58.9z M82.4,63.1c0.3-0.1,0.6,0,0.6-0.2c0.2-0.5,0.6-0.3,1-0.2c0.4,0,0.7,0.2,1.1,0.2
	c0.6,0.1,0.6-0.2,0.4-0.8c-1-0.1-2-0.2-3-0.3C82.4,62.3,82.4,62.6,82.4,63.1z M66.2,62.4c0-0.1,0-0.1,0.1-0.2
	c0.6-0.1,1.2-0.1,1.8-0.2c0.2,0,0.3-0.3,0.4-0.5c0-0.1-0.2-0.4-0.3-0.4c-0.8,0-1.5-0.3-2.2,0.3c-0.1,0.1-0.3,0.4-0.3,0.5
	C65.8,62.2,66.1,62.3,66.2,62.4z M49.5,79c0.6,0,1.1,0,1.7,0c0-0.3,0-0.5,0-0.8C49.8,77.9,49.3,78.2,49.5,79z M59.9,41.9
	c-0.5-0.3-1-0.5-1.5-0.8c-1.1-0.5-2.2-1-3.2-1.6c-0.5-0.3-1-0.5-1.5-0.5c-1.2,0-2.4,0-3.6,0c-0.2,0-0.4,0-0.6-0.1
	c-0.2,0-1.9,0.1-2,0.3c-0.1,0.2-0.1,0.5,0,0.6c0,0.1,0.3,0.2,0.5,0.3c-0.2,0.3-0.3,0.5-0.5,0.8c-0.5,0.9-0.3,1.7,0.6,2.3
	c0.4,0.3,0.7,0.6,1,0.9c0.5,0.6,1.1,0.9,1.9,0.9c1.6-0.1,3.1-0.1,4.7-0.1c1.1,0,2.2-0.1,3.3-0.1c0.5,0,0.7-0.3,0.7-0.8
	c0-0.3,0-0.5,0-0.6c0.3-0.3,0.7-0.5,0.6-0.7C60.5,42.3,60.2,42.1,59.9,41.9z M52,43.9c-1,0.3-1.5,0.1-2.2-0.6
	c-0.3-0.4-0.7-0.7-1.1-0.9c-0.4-0.3-0.5-0.5-0.2-0.9s0.4-0.8,0.7-1.2c0.1-0.1,0.2-0.3,0.3-0.3c0.9,0,1.8,0,2.8,0
	c0,0.1,0,0.1,0.1,0.2c-1.1,0.2-0.8,1.1-1,1.8C51.2,42.7,51.2,43.4,52,43.9z M58.8,43.7c-0.4,0-1,0.1-1.5,0.2
	c0.1-0.6,0.2-1.2,0.3-1.9c0.5,0.2,1.1,0.4,1.6,0.6C59.1,43,59,43.3,58.8,43.7z"/>
</svg>
