<?xml version="1.0" encoding="utf-8"?>
<!-- Generator: Adobe Illustrator 23.0.1, SVG Export Plug-In . SVG Version: 6.00 Build 0)  -->
<svg version="1.2" baseProfile="tiny" id="Layer_1" xmlns="http://www.w3.org/2000/svg" xmlns:xlink="http://www.w3.org/1999/xlink"
	 x="0px" y="0px" viewBox="0 0 100 100" xml:space="preserve">
<path fill="#231F20" d="M46.19,99.29c-4.29,0-8.5-0.56-12.48-1.69c-3.43-0.97-20.89-6.72-28.09-24.29
	c-2.25-5.49-7.66-28.91,6.97-43.19c10.4-10.15,30.44-12.56,43.77-5.26c12.58,6.89,18.54,25.33,12.5,38.69
	c-3.23,7.14-9.16,12.01-16.69,13.71c-7.34,1.66-15.17-0.08-20.43-4.53c-5.32-4.51-7.59-10.27-6.57-16.68c0.77-4.81,3-8.3,6.63-10.38
	c4.78-2.73,12.06-2.11,16.15,4.43l-4.29,2.68c-2.44-3.91-6.56-4.33-9.35-2.73c-2.27,1.3-3.63,3.53-4.16,6.8
	c-0.74,4.63,0.89,8.67,4.84,12.02c4.07,3.45,10.22,4.77,16.05,3.46c5.95-1.34,10.63-5.2,13.2-10.87
	c4.94-10.93-0.07-26.56-10.32-32.17c-11.35-6.21-29.01-4.13-37.81,4.45C1.87,47.65,10.2,71.17,10.3,71.4
	c6.31,15.4,21.76,20.48,24.79,21.34c19.31,5.48,46.43-4.65,54.47-27.95c7.13-20.68-3.77-41.58-18.23-51.54
	C55.17,2.13,37.08,5.57,31.92,6.89l-1.25-4.9C36.35,0.54,56.28-3.25,74.2,9.1c16.03,11.04,28.1,34.29,20.14,57.35
	c-4.15,12.03-13.15,21.84-25.36,27.63C61.72,97.52,53.83,99.29,46.19,99.29z"/>
</svg>
