<?xml version="1.0" encoding="utf-8"?>
<!-- Generator: Adobe Illustrator 24.0.0, SVG Export Plug-In . SVG Version: 6.00 Build 0)  -->
<svg version="1.2" baseProfile="tiny" id="Layer_1" xmlns="http://www.w3.org/2000/svg" xmlns:xlink="http://www.w3.org/1999/xlink"
	 x="0px" y="0px" viewBox="0 0 100 100" xml:space="preserve">
<path fill="#f00" d="M45.4,18.8c3.2,0,6.3,0,9.5,0c3.8,0.6,7.7,1.1,11.5,1.7c2,0.3,3.9,1,5.8,1.5c-0.5,0.8-0.9,1.1-1.3,1.3
	c-3.6,2.2-7.3,4.2-10.8,6.5c-3.6,2.4-6.5,5.5-8.5,9.4c-2.3,4.6-1.1,8.6,3.3,11.4c2,1.2,4.1,2.4,6.3,3.2c9.8,3.6,20,4.9,30.3,6.1
	c1.9,0.2,3.8,0.4,6.2,0.6c-1.9,2.4-3.3,4.6-5.1,6.2C86,72.6,78.4,76.6,70,78.6c-4.8,1.1-9.8,1.7-14.7,2.6c-3.4,0-6.8,0-10.2,0
	c0.6-0.3,1.2-0.7,1.9-0.8c5.5-1,10.9-2.2,15.8-5.1c4.4-2.6,6-6.2,0.9-9.8c-3.8-2.7-7.8-5.1-11.8-7.5c-2.4-1.4-4.9-2.6-7.4-3.9
	c-0.7-0.5-1.3-1-2-1.4c-4.3-3-8.9-5.6-12.9-9.1c-4.7-4.1-4.8-8.4-0.7-13.2C33.3,25,39.1,21.4,45.4,18.8z"/>
<path fill="#00f" d="M0,53c0-2,0-4,0-6c1.8-8.7,7.4-14.4,15-19.2c-0.3,0.7-0.3,1-0.4,1.2c-1.8,3.4-1.3,6.4,1.5,9c1.4,1.3,2.9,2.6,4.6,3.5
	c7.8,4.4,15.6,8.6,23.4,12.9c1.6,1.1,3.1,2.3,4.7,3.4c3,2.1,3.9,5.1,2.2,8.3c-1,1.9-2.5,3.8-4.1,5.2c-4.2,3.6-9.2,5.6-14.3,7.3
	c-0.8,0.2-1.7,0.1-2.6-0.1C24.5,77,19.3,75,14.6,72C7.4,67.4,1.8,61.7,0,53z M100,47c-0.9-3.7-2.2-7.1-4.6-10.2
	c-4.4-5.7-10.3-9.5-16.8-12.4c-0.4-0.2-1.1-0.2-1.4,0.1c-5.4,4.2-10.4,8.8-12.6,15.4C62,47.2,63.7,50.3,70,53.4
	c0.4,0.2,0.8,0.3,1.1,0.5c8.2,3.2,16.8,4.3,25.4,5.4c0.6,0.1,1.5-0.6,1.8-1.2c0.7-1.6,1.1-3.3,1.6-5C100,51,100,49,100,47z"/>
</svg>
