<?xml version="1.0" encoding="utf-8"?>
<!-- Generator: Adobe Illustrator 23.0.1, SVG Export Plug-In . SVG Version: 6.00 Build 0)  -->
<svg version="1.2" baseProfile="tiny" id="Layer_1" xmlns="http://www.w3.org/2000/svg" xmlns:xlink="http://www.w3.org/1999/xlink"
	 x="0px" y="0px" viewBox="0 0 100 100" xml:space="preserve">
<g>
	<path d="M9.53,70.87l-9.62-0.44l0.14-3l9.62,0.44L9.53,70.87z M10.6,57.79l-8.18-2.71l-0.94,2.85l8.18,2.71L10.6,57.79z
		 M16.34,48.79l-8.07-5.03l-1.59,2.55l8.07,5.03L16.34,48.79z M23.35,41.19l-7.14-7.01l-2.1,2.14l7.14,7.01L23.35,41.19z
		 M31.15,35.34l-4.76-8.86l-2.64,1.42l4.76,8.86L31.15,35.34z M41.47,31.98l-2.25-8.99l-2.91,0.73l2.25,8.99L41.47,31.98z
		 M52.66,22.16h-3v9.46h3V22.16z M66.16,25.57l-2.83-1l-3.04,8.6l2.83,1L66.16,25.57z M78.14,30.24l-2.45-1.73l-5.95,8.4l2.45,1.73
		L78.14,30.24z M87.17,38.9l-1.96-2.28l-7.54,6.48l1.96,2.28L87.17,38.9z M93.9,48.94l-1.12-2.78L83.25,50l1.12,2.78L93.9,48.94z
		 M97.45,60.66l-0.78-2.9l-9.79,2.62l0.78,2.9L97.45,60.66z M100.01,71.61l-0.06-3l-10.78,0.23l0.06,3L100.01,71.61z"/>
	<path d="M17.55,67.22c0,1.47,0.12,2.9,0.35,4.31h61.49c0.23-1.41,0.35-2.84,0.35-4.31c0-15.86-13.92-28.71-31.1-28.71
		S17.55,51.36,17.55,67.22z"/>
</g>
</svg>
