<?xml version="1.0" encoding="utf-8"?>
<!-- Generator: Adobe Illustrator 24.0.0, SVG Export Plug-In . SVG Version: 6.00 Build 0)  -->
<svg version="1.2" baseProfile="tiny" id="Layer_1" xmlns="http://www.w3.org/2000/svg" xmlns:xlink="http://www.w3.org/1999/xlink"
	 x="0px" y="0px" viewBox="0 0 100 100" xml:space="preserve">
<path fill="#020200" d="M50.1,100.1c-8.1,0-14.6-6.3-14.6-14c0-6.7,4.9-12.3,11.5-13.7V58.3l-30.4-0.1L50.2-0.1l33.1,58.5L53,58.3
	v14.1c6.7,1.3,11.7,7,11.7,13.7C64.7,93.8,58.2,100.1,50.1,100.1z M50.1,78.1c-4.7,0-8.6,3.6-8.6,8s3.9,8,8.6,8s8.6-3.6,8.6-8
	S54.9,78.1,50.1,78.1z M27,52.2l46.1,0.2L50.2,12L27,52.2z"/>
<path fill="#EF0F20" d="M50.1,53.1H25.4l12.4-20.7l12.4-20.7l12.4,20.7L75,53.1H50.1z"/>
</svg>
