<?xml version="1.0" encoding="utf-8"?>
<!-- Generator: Adobe Illustrator 24.0.0, SVG Export Plug-In . SVG Version: 6.00 Build 0)  -->
<svg version="1.2" baseProfile="tiny" id="Layer_1" xmlns="http://www.w3.org/2000/svg" xmlns:xlink="http://www.w3.org/1999/xlink"
	 x="0px" y="0px" viewBox="0 0 100 100" xml:space="preserve">
<path d="M40.4,66.3c0-0.8-0.1-1.4-0.1-2.1c-0.8,0-1.6,0-2.4,0c-0.1,0.7-0.2,1.4-0.3,2.2c-0.9,0-1.7,0-2.7,0
	c-0.1-0.7-0.1-1.4-0.2-2.3c-1.2,0-2.5,0-3.7,0c-3.4,0-6.8,0-10.2,0c-3.8,0-6.7-1.6-8.4-5c-1.7-3.3-1.3-6.4,0.9-9.4
	c0.1-0.1,0.2-0.3,0.4-0.7C9,48.9,4.5,48.3,0,50.7c0-2.3,0-4,0-5.9c1,0.1,1.8,0.3,2.6,0.4C4.4,45.5,6.1,46,7.8,46
	c8.3,0.1,16.7,0,25,0c0.6,0,1.2,0,1.9,0c0.1-0.9,0.1-1.5,0.1-2.3c0.9,0,1.8,0,2.7,0c0.1,0.7,0.1,1.4,0.2,2.2c0.8,0,1.5,0,2.4,0
	c0.1-0.7,0.1-1.4,0.2-2.2c0.9,0,1.7,0,2.7,0c0.1,0.7,0.1,1.4,0.2,2.3c0.8,0,1.6,0,2.4,0c0-0.8,0.1-1.4,0.1-2.2c0.9,0,1.8,0,2.7,0
	c0.1,0.7,0.1,1.4,0.2,2.2c0.3,0.1,0.5,0.2,0.8,0.2c8.3-0.1,16.6-0.1,24.8-0.4c6-0.3,11.9-1.6,17.3-4.3c3-1.5,5.9-3.2,6.9-6.8
	c0.1-0.3,0.7-0.4,1.3-0.8c0,9.3,0,18.2,0,27.5c-0.6-0.3-1.2-0.5-1.3-0.8c-1-3.6-3.9-5.3-6.9-6.8c-4.8-2.4-10.1-3.6-15.4-4.1
	c-2.6-0.3-5.2-0.4-8.3-0.7c2.3,2.6,2.8,5.3,2.2,8.2c-0.8,4-4.3,6.9-8.6,7c-3.6,0.1-7.3,0-10.9,0c-0.6,0-1.3,0-1.9,0
	c-0.1,0.8-0.2,1.6-0.3,2.3c-0.9,0-1.7,0-2.7,0c-0.1-0.7-0.1-1.4-0.2-2.2c-0.8,0-1.6,0-2.4,0c-0.1,0.7-0.1,1.3-0.2,2.2
	C42.3,66.3,41.4,66.3,40.4,66.3z M34.7,61.1c0-4.1,0-8.1,0-12.2c-3.4,0-6.7,0-10.1,0c-1.8,0-3.6,0-5.3,0.2c-3.1,0.5-5.1,3-5.1,6
	c0,3,2.2,5.7,5.2,5.9C24.6,61.2,29.6,61.1,34.7,61.1z M48.9,61.1c0.8,0,1.5,0,2.2,0c3.8,0,7.6,0.1,11.4-0.1c2.2-0.2,4-1.5,4.8-3.7
	c1.6-4.3-1.3-8.3-6.2-8.4c-3.2-0.1-6.4,0-9.7,0c-0.8,0-1.7,0-2.6,0C48.9,53,48.9,56.9,48.9,61.1z M40.2,61.1c0-4.1,0-8.1,0-12.1
	c-0.9,0-1.6,0-2.3,0c0,4.1,0,8.1,0,12.1C38.7,61.1,39.4,61.1,40.2,61.1z M43.4,48.9c0,4.1,0,8,0,12.1c0.9,0,1.6,0,2.4,0
	c0-4.1,0-8.1,0-12.1C44.9,48.9,44.2,48.9,43.4,48.9z"/>
</svg>
