<?xml version="1.0" encoding="utf-8"?>
<!-- Generator: Adobe Illustrator 23.0.1, SVG Export Plug-In . SVG Version: 6.00 Build 0)  -->
<svg version="1.2" baseProfile="tiny" id="Layer_1" xmlns="http://www.w3.org/2000/svg" xmlns:xlink="http://www.w3.org/1999/xlink"
	 x="0px" y="0px" viewBox="0 0 100 100" xml:space="preserve">
<g>
	<path d="M31.14,88.23c-0.71,0.28-4.41-5.34-5.5-12.23c-0.16-1.01-0.39-2.54-0.31-4.59c0.04-0.97,0.3-5.43,3.36-10.7
		c1.35-2.32,3.01-4.07,6.27-7.49c4.75-4.97,6.28-5.74,9.63-9.48c2.96-3.31,4.87-5.03,6.11-8.1c0.4-0.99,0.85-2.79,1.22-4.74
		c0.12-0.65,0.46-2.48,0.61-4.74c0.16-2.36,0.13-5.5-0.61-10.09C50.32,6.16,46.61,0.56,47.5,0.04c1.01-0.6,6.25,6.43,8.41,9.32
		c2.75,3.69,5.04,6.8,7.49,11.46c2.96,5.65,4.67,8.92,4.95,11.98c0,0.02,0.12,1.3,0.4,1.32c0.57,0.04,0.81-5.22,1.99-5.35
		c1.07-0.12,2.36,4.1,2.6,4.89c0.69,2.28,1.73,5.7,1.22,10.09c-0.54,4.67-2.54,7.8-5.04,11.62c-3.83,5.84-8.05,9.59-11.46,12.53
		c-1.16,1-2.94,2.74-5.66,4.43c-3.56,2.21-6.26,2.77-6.88,2.9c-3.09,0.65-5.19,0.28-5.81,0.15c-1.58-0.32-3.71-0.75-4.4-2.41
		c-0.31-0.75-0.34-1.81,0.12-2.64c0.79-1.41,2.49-1.29,2.6-2.14c0.09-0.71-1.02-1.7-2.14-1.83c-2.42-0.28-4.48,3.48-4.74,3.97
		c-0.86,1.61-1.33,3.51-1.19,7.65C30.18,84.66,31.67,88.02,31.14,88.23z"/>
	<path d="M18.3,68.36c-1.13,0.14-2.47-3.66-2.9-4.89c-0.77-2.17-1.63-4.61-1.38-7.95c0.3-4.04,2.04-6.85,2.75-7.95
		c1.32-2.05,3.07-3.51,6.57-6.42c1.94-1.61,2.38-1.82,7.64-5.96c2.42-1.91,2.86-2.28,3.36-2.75c1.37-1.27,3.61-3.33,5.2-6.11
		c2.44-4.26,1.99-7.79,2.75-7.8c0.82-0.01,1.6,4.07,1.83,7.18c0.17,2.32,0.37,4.49-0.31,7.18c-0.83,3.32-2.54,5.47-4.59,8.1
		c-1.33,1.71-2.52,2.87-4.89,5.2c-2.6,2.55-3.47,3.15-7.18,6.73c-2.96,2.85-3.55,3.57-4.13,4.43c-1.47,2.19-2.32,4.48-2.75,5.66
		C18.98,66.58,19.04,68.26,18.3,68.36z M49.94,92.97c0.52-1.02,2.06-3.82,4.89-6.42c2.53-2.32,4.94-3.43,8.1-4.89
		c3.31-1.52,3.63-1.24,7.8-3.06c3.83-1.66,5.74-2.5,7.49-3.97c3.22-2.72,4.64-5.9,5.2-7.18c1.57-3.62,1.67-6.71,1.68-7.49
		c0.06-4.01-1.18-6.91-1.83-8.41c-0.39-0.89-2.7-6.14-4.13-5.81c-1.7,0.39,1,7.94-3.21,14.67c-1.65,2.64-3.71,4.13-6.73,6.27
		c-3.96,2.81-6,2.96-12.07,6.42c-6.26,3.56-7.57,4.68-8.71,5.96c-0.61,0.68-5.29,5.97-4.89,12.84c0.24,4.08,2.25,8.23,3.52,8.1
		C48.05,99.9,47.79,97.16,49.94,92.97z"/>
</g>
</svg>
