<?xml version="1.0" encoding="utf-8"?>
<!-- Generator: Adobe Illustrator 25.2.3, SVG Export Plug-In . SVG Version: 6.00 Build 0)  -->
<svg version="1.2" baseProfile="tiny" id="Layer_1" xmlns="http://www.w3.org/2000/svg" xmlns:xlink="http://www.w3.org/1999/xlink"
	 x="0px" y="0px" viewBox="0 0 100 100" overflow="visible" xml:space="preserve">
<path d="M19.32,10.57l1.76,2.32c-0.73,0.54-1.47,1.08-2.17,1.67c-1.74,1.43-3.4,2.98-4.9,4.68c-0.39,0.41-0.75,0.85-1.11,1.29
	l-0.55,0.66c-0.19,0.21-0.35,0.45-0.52,0.67c-0.34,0.46-0.69,0.9-1.02,1.37l-0.96,1.41c-1.24,1.91-2.34,3.91-3.3,5.99
	c-0.94,2.09-1.72,4.25-2.35,6.45l-0.44,1.67c-0.14,0.56-0.24,1.12-0.36,1.69c-0.06,0.28-0.12,0.56-0.17,0.85L3.1,42.12l-0.14,0.85
	L2.9,43.4l-0.05,0.43l-0.18,1.72c-0.05,0.57-0.06,1.15-0.1,1.73c-0.01,0.29-0.04,0.58-0.04,0.87c-0.01,0.29-0.01,0.58-0.01,0.87
	c0,0.58,0,1.16,0.02,1.74c0.07,2.32,0.32,4.63,0.74,6.92c-0.55-2.26-0.93-4.57-1.14-6.89c-0.05-0.58-0.09-1.16-0.12-1.75
	C2.01,48.73,2,48.44,1.99,48.15c-0.01-0.29,0-0.59-0.01-0.88c0-0.59-0.01-1.17,0-1.76l0.08-1.76l0.02-0.44l0.04-0.44L2.22,42
	l0.09-0.88c0.03-0.29,0.08-0.58,0.12-0.87c0.09-0.58,0.17-1.16,0.27-1.74l0.35-1.73c0.52-2.3,1.2-4.57,2.05-6.78
	c0.87-2.2,1.9-4.34,3.08-6.41l0.92-1.53c0.31-0.5,0.66-0.99,0.98-1.49c0.17-0.24,0.32-0.5,0.51-0.74l0.53-0.72
	c0.35-0.48,0.7-0.96,1.09-1.42c1.48-1.87,3.13-3.61,4.9-5.23C17.81,11.8,18.56,11.18,19.32,10.57z M51.3,4.85l0.75-4.76
	c-0.59-0.04-1.17-0.06-1.76-0.08c-2.45-0.04-4.89,0.1-7.3,0.4c-2.42,0.33-4.8,0.83-7.14,1.5c-2.33,0.68-4.6,1.55-6.79,2.56
	l-1.63,0.79l-1.59,0.87l-0.4,0.22c-0.13,0.07-0.26,0.16-0.39,0.23l-0.77,0.47l-0.77,0.47c-0.25,0.16-0.5,0.34-0.75,0.5l-0.75,0.51
	c-0.24,0.16-0.48,0.32-0.7,0.5l1.85,2.44c0.18-0.12,0.37-0.23,0.56-0.34l0.72-0.43c0.24-0.14,0.48-0.29,0.72-0.43l0.74-0.4l0.74-0.4
	c0.12-0.07,0.24-0.14,0.37-0.2l0.38-0.18l1.52-0.72l1.55-0.65c2.08-0.82,4.21-1.5,6.38-2c2.17-0.49,4.37-0.82,6.58-1
	c2.21-0.14,4.43-0.15,6.64,0.01C50.48,4.76,50.89,4.8,51.3,4.85z M62.85,7.72c2.03,0.82,3.98,1.81,5.85,2.91l1.39,0.86l1.35,0.92
	l0.34,0.23c0.11,0.08,0.22,0.16,0.33,0.24l0.65,0.49l0.65,0.49c0.21,0.17,0.42,0.35,0.63,0.52l0.62,0.52
	c0.21,0.17,0.42,0.34,0.61,0.53l1.19,1.1c0.76,0.77,1.54,1.52,2.24,2.34c0.57,0.64,1.13,1.3,1.66,1.98l5.32-4.33
	c-0.68-0.77-1.4-1.53-2.13-2.26c-0.87-0.89-1.81-1.72-2.74-2.55l-1.44-1.18c-0.24-0.2-0.49-0.39-0.74-0.57L77.88,9.4
	c-0.25-0.18-0.5-0.37-0.75-0.55l-0.77-0.52l-0.77-0.52c-0.13-0.08-0.26-0.17-0.39-0.26l-0.4-0.24L73.2,6.35l-1.63-0.88
	c-2.2-1.13-4.48-2.12-6.81-2.92c-2.34-0.78-4.73-1.39-7.15-1.83c-1.01-0.17-2.03-0.31-3.04-0.42l-0.77,4.9
	c0.94,0.15,1.87,0.33,2.79,0.54C58.72,6.25,60.81,6.91,62.85,7.72z M72.32,80c-1.66,1.2-3.42,2.25-5.24,3.16
	c-1.82,0.91-3.69,1.71-5.62,2.32c-1.93,0.61-3.89,1.11-5.88,1.42c-1.99,0.31-4,0.47-6.01,0.51l0.5,12.6
	c2.64-0.19,5.26-0.56,7.84-1.11c2.58-0.57,5.1-1.35,7.56-2.29c2.46-0.93,4.82-2.1,7.09-3.4c2.27-1.31,4.44-2.78,6.46-4.42
	c1.75-1.4,3.4-2.91,4.94-4.52l-7.44-7.67C75.2,77.81,73.8,78.95,72.32,80z M89.05,51.86c-0.11,0.87-0.24,1.73-0.4,2.59l-0.32,1.54
	c-0.12,0.51-0.26,1.01-0.39,1.52c-0.12,0.51-0.28,1-0.44,1.5l-0.23,0.75c-0.07,0.25-0.17,0.49-0.26,0.74
	c-1.89,5.32-4.89,10.21-8.71,14.29l7.36,7.59c4.78-5.52,8.34-12.05,10.36-19c1.03-3.53,1.67-7.16,1.9-10.8L89.05,51.86z M95.4,33.28
	c-0.83-2.39-1.82-4.72-2.98-6.95l-0.9-1.66c-0.31-0.55-0.65-1.08-0.97-1.62c-0.17-0.26-0.32-0.54-0.5-0.8l-0.53-0.78
	c-0.35-0.52-0.7-1.04-1.08-1.54c-0.37-0.51-0.75-1.01-1.13-1.5l-5.44,4.42c0.26,0.37,0.51,0.74,0.75,1.12
	c0.31,0.44,0.57,0.91,0.85,1.37l0.41,0.69c0.14,0.23,0.26,0.47,0.39,0.7c0.25,0.47,0.51,0.94,0.75,1.42l0.69,1.45
	c0.87,1.95,1.59,3.96,2.18,6c0.55,2.05,0.96,4.14,1.22,6.24c0.24,2.1,0.31,4.22,0.26,6.33c-0.01,0.39-0.03,0.78-0.06,1.16l8.73,0.7
	C98.1,44.35,97.22,38.65,95.4,33.28z"/>
</svg>
