<?xml version="1.0" encoding="utf-8"?>
<!-- Generator: Adobe Illustrator 25.2.3, SVG Export Plug-In . SVG Version: 6.00 Build 0)  -->
<svg version="1.2" baseProfile="tiny" id="Layer_1" xmlns="http://www.w3.org/2000/svg" xmlns:xlink="http://www.w3.org/1999/xlink"
	 x="0px" y="0px" viewBox="0 0 100 100" overflow="visible" xml:space="preserve">
<path d="M79.28,100l-5.64-3.13l1.67-3.76l-8.03-4.46c-2.1-1.17-4.56-1.51-6.9-0.97c-0.86,0.2-1.92,0.44-3.21,0.73
	c-1.67,0.37-3.35,0.5-4.87,0.51c-3.68,0.03-7.18-1.51-9.68-4.21c-3.25-3.51-8.15-8.91-11.36-12.89c-5.17-6.4-14.43-24.09-18.37-31.3
	c-3.95-7.21-2.18-12.79-2.18-12.79l36.47,27.76l-26.4-38.11c0.58-0.25,1.18-0.44,1.79-0.57c6.35-1.36,12.54,3.2,17.69,6.25
	c4.26,2.53,8.46,5.19,12.54,8c3.78,2.6,11.08,8.17,11.08,8.17c0.79,0.62,1.58,1.25,2.37,1.87c-3.18-7.17-7.38-15.29-12.95-23.82
	C48.96,10.64,44.55,4.9,40.38,0c0,0,17.88,12.1,25.06,20.13c4.39,4.91,8.58,10,12.62,15.2c2.55,3.28,5.61,6.71,7.4,10.5
	c0.42,0.89,0.78,1.85,1.09,2.84c1.38,4.45,1.59,9.19,0.84,13.79c-0.99,6.03-2.58,15.88-2.92,19.24c-0.5,4.98,5.23,8.47,5.23,8.47
	L79.28,100z"/>
</svg>
