<?xml version="1.0" encoding="utf-8"?>
<!-- Generator: Adobe Illustrator 23.0.1, SVG Export Plug-In . SVG Version: 6.00 Build 0)  -->
<svg version="1.2" baseProfile="tiny" id="Layer_1" xmlns="http://www.w3.org/2000/svg" xmlns:xlink="http://www.w3.org/1999/xlink"
	 x="0px" y="0px" viewBox="0 0 100 100" xml:space="preserve">
<path fill="none" stroke="#000000" stroke-width="2" stroke-miterlimit="10" d="M0.06,68.02c2-0.36,4.98-1.1,8.29-2.72
	c4.24-2.08,7.11-4.73,10.1-7.51c4.48-4.16,4.2-4.99,7.42-7.3c4.37-3.14,9.4-4.87,9.97-4.02c0.3,0.45-0.86,1.27-2.07,3.63
	c-1.52,2.97-2.27,6.73-1.46,7.17c0.81,0.44,2.81-2.71,6.48-6.61c2.65-2.81,7.83-8.24,15.28-12.18c3.62-1.92,7.99-4.22,14.12-4.4
	c5.08-0.15,8.91,1.19,11.79,2.2c0.78,0.27,7.68,2.74,7.38,4.27c-0.14,0.71-1.69,0.63-5.05,1.42c-3.82,0.9-7.68,1.83-10.49,4.79
	c-0.68,0.72-1.95,2.09-2.59,4.27c-1.13,3.88,0.68,7.13,1.04,7.77c0.64,1.15,0.96,1.73,1.55,1.81c1.39,0.2,2.27-2.62,5.83-6.87
	c1.03-1.23,2-2.37,3.5-3.63c1.23-1.03,3.59-2.96,6.99-3.89c3.74-1.02,7.44-0.47,7.51,0.13c0.07,0.51-2.53,0.52-4.66,2.72
	c-1.84,1.9-2.15,4.22-2.2,4.66c-0.26,2.2,0.46,3.94,0.91,4.79c1.21,2.3,3.19,3.37,5.57,4.66c1.93,1.04,3.65,1.62,4.79,1.94"/>
</svg>
