<?xml version="1.0" encoding="utf-8"?>
<!-- Generator: Adobe Illustrator 24.0.0, SVG Export Plug-In . SVG Version: 6.00 Build 0)  -->
<svg version="1.2" baseProfile="tiny" id="Layer_1" xmlns="http://www.w3.org/2000/svg" xmlns:xlink="http://www.w3.org/1999/xlink"
	 x="0px" y="0px" viewBox="0 0 100 100" xml:space="preserve">
<path fill="#020200" d="M76.6,75c-7.9,0-14.9-2.1-21.4-4.1c-11.2-3.5-20.9-6.4-34.7,0.3c-2.4,1.2-5.4,0.2-6.6-2.2
	c-1.2-2.4-0.2-5.4,2.2-6.6c17.3-8.5,30.4-4.5,42-0.9c11.2,3.5,20.9,6.5,34.7-0.3c2.4-1.2,5.4-0.2,6.6,2.2c1.2,2.4,0.2,5.4-2.2,6.6
	C89.6,73.6,82.8,75,76.6,75z M69.6,58.8c-7.9,0-14.9-2.1-21.4-4.1C37,51.2,27.3,48.2,13.5,55c-2.4,1.2-5.4,0.2-6.6-2.2
	c-1.2-2.4-0.2-5.4,2.2-6.6c17.3-8.5,30.4-4.5,42-0.9C62.3,48.8,72,51.8,85.8,45c2.4-1.2,5.4-0.2,6.6,2.2c1.2,2.4,0.2,5.4-2.2,6.6
	C82.6,57.5,75.8,58.8,69.6,58.8z M63.3,42.7c-7.9,0-14.9-2.1-21.4-4.1C30.7,35.1,21,32.1,7.2,38.9c-2.4,1.2-5.4,0.2-6.6-2.2
	c-1.2-2.4-0.2-5.4,2.2-6.6c17.3-8.5,30.4-4.5,42-0.9c11.2,3.5,20.9,6.4,34.7-0.3c2.4-1.2,5.4-0.2,6.6,2.2c1.2,2.4,0.2,5.4-2.2,6.6
	C76.3,41.4,69.5,42.7,63.3,42.7z"/>
</svg>
