<?xml version="1.0" encoding="utf-8"?>
<!-- Generator: Adobe Illustrator 24.0.0, SVG Export Plug-In . SVG Version: 6.00 Build 0)  -->
<svg version="1.2" baseProfile="tiny" id="Layer_1" xmlns="http://www.w3.org/2000/svg" xmlns:xlink="http://www.w3.org/1999/xlink"
	 x="0px" y="0px" viewBox="0 0 100 100" xml:space="preserve">
<path fill="#FFD7D7" d="M95.8,93.7c-1.8-1.1-3.8-1.8-5.9-2.1c-2.6-0.3-5.3,0-8,0.2c-2.7,0.1-5.4,0-7.8-1.3c-0.8-0.5-1.6-1.1-2-2
	c-0.4-0.9,0.1-2.9,0.1-2.9l0.3,0c0,0,2.5-0.2,4.8-0.6c0.5-0.1,1-0.3,1.4-0.7c0.4-0.4,0.9-0.7,1.4-1c0.8-0.5,1.5-1.1,2.1-1.7
	c0.7-0.6,1.3-1.3,1.9-2c1.9-2.4,3.2-6.6,4.4-9c1.2-2.4,3-2.5,3.7-5.6c0.5-2.3,2.6-6.2,3.2-10.9c0.6-4.6-2.1-6.3-2.3-8.7
	c-0.1-1.8,1-6.4,1.2-6.9c0.1-0.5,0.3-1,0.1-2.8c-0.2-2-0.7-2.6-1.3-3.2c-0.6-0.6-1.4-1.1-2.1-3c-0.4-1.1-0.5-2.2-0.6-3.3
	c-0.1-1.1-0.3-2.2-0.9-3.1c-0.9-1.3-1.6-2.7-2.4-4.2c-0.7-1.4-1.5-2.8-2.4-4.1c-2.1-3-4.9-5.2-8.1-7C73.7,6,70.2,4.7,66.8,3.5
	c-2.8-1-5.7-1.9-8.5-2.4s-5.8-0.6-8.7,0c-2.3,0.5-6.2,1.1-8.3,2.3c-2.1,1.2-3.9,2.1-6,3.1c-1.1,0.5-3.1,0.6-4.2,1.2
	s-1.6,1.6-2.5,2.4c-0.9,0.8-1.5,2.1-2.2,3.1c-0.7,1-0.4,2.6-1,3.7c-1.5,2.8-1.9,5.6-2.7,8.6c-0.8,3-1.3,6.2-1.4,9.3
	c0,0.8,0,1.7,0,2.5c0.1,0.8-1,2.2-0.8,3c0.3,0.9,0.6,2.8,0.9,3.7s1.1,2.3,1.3,3.2c0.2,1.4,0.9,1.5,0.7,3c-0.2,1.5,1.6,2.3,1.9,3.7
	c0.2,0.8,1.8,3,2.2,3.7c0.4,0.7,1.1,1.3,1.5,2c1.2,1.8-0.2,4.3,0.6,6.3c0.8,2-0.3,2.4-0.3,4.6c0,1.3-0.2,2.8-0.4,4.1
	c-0.2,1.3-1,1.8-1.3,3c-0.6,2.7-1.5,5.4-2.7,7.9c-1.2,2.7-1.5,3-3.9,4.7c-1.2,0.8-4.3,1.4-5.6,1.9s-9.7,2.4-11.1,2.8v5.1h92v-5.7
	L95.8,93.7z"/>
<path fill="#000000" d="M72.5,86c-0.2,0.9-0.2,1.6,0,2.1c0.3,0.7,0.8,1.2,1.7,1.7c2.4,1.3,5.2,1.3,7.5,1.2c0.7,0,1.4-0.1,2.1-0.1c2-0.1,4-0.3,6,0
	c2.2,0.3,4.2,1,6.1,2.2l-0.5,0.8c-1.7-1.1-3.7-1.8-5.7-2c-1.9-0.2-3.9-0.1-5.8,0c-0.7,0.1-1.4,0.1-2.1,0.1c-2.4,0.1-5.4,0.1-8-1.4
	c-1.1-0.6-1.8-1.3-2.2-2.2c-0.3-0.7-0.3-1.5-0.1-2.4c-1.3,0.1-2.6,0.1-4.7-0.1c-1.4-0.1-2.7-0.3-4-0.7c-1.3-0.4-2.6-0.9-3.7-1.7
	c-0.4-0.2-0.8-0.5-1.2-0.8c-0.7-0.4-1.3-0.8-2-1.3c-1.4-1-2.3-1.8-2.9-2.6c-1.3-1.9-3.5-3.6-5.5-5.2L47,73.4
	c-2.4-1.9-4.6-3.7-5.8-6.1c-0.4-0.7-0.9-1.8-1.4-2.9c-0.5-1.1-1-2.2-1.3-3c-0.5-1.5-0.9-3.1-1.2-4.7c-0.3-1.6-0.4-3.2-0.5-4.8l1,0
	c0,1.6,0.2,3.1,0.5,4.7c0.2,1.5,0.6,3.1,1.1,4.5c0.3,0.7,0.7,1.8,1.2,2.9c0.5,1.1,1,2.1,1.4,2.8c1.2,2.2,3.3,4,5.6,5.7l0.5,0.4
	c2.1,1.6,4.3,3.3,5.7,5.4c0.5,0.7,1.3,1.5,2.6,2.4c0.6,0.4,1.3,0.9,2,1.3c0.4,0.3,0.8,0.5,1.2,0.8c1.1,0.7,2.2,1.2,3.5,1.6
	c1.2,0.4,2.5,0.6,3.8,0.7c2.4,0.1,3.8,0.1,5.2,0c1.3-0.1,2.5-0.3,4.4-0.6l0.8-0.1c0.4-0.1,0.9-0.3,1.2-0.6c0.4-0.4,0.9-0.7,1.4-1.1
	c0.7-0.5,1.4-1,2.1-1.6c0.7-0.6,1.3-1.3,1.9-2c1.3-1.5,2.2-4,3.1-6.1c0.4-1.1,0.8-2,1.2-2.8c0.5-1.1,1.2-1.7,1.8-2.3
	c0.8-0.8,1.5-1.5,1.9-3.1c0.2-0.9,0.6-1.9,1-3.1c0.8-2.1,1.8-4.8,2.2-7.8c0.3-2.7-0.5-4.4-1.3-5.8c-0.5-0.9-0.9-1.8-1-2.8
	c-0.2-2,1.1-6.8,1.2-7c0.1-0.5,0.2-0.9,0.1-2.7c-0.2-1.8-0.6-2.3-1.1-2.8c-0.1-0.1-0.1-0.1-0.2-0.2c-0.6-0.5-1.3-1.2-2-3
	c-0.4-1-0.5-2-0.6-3c0-0.1,0-0.3,0-0.4c-0.1-1-0.2-2-0.8-2.9c-0.9-1.4-1.7-2.8-2.4-4.2c-0.7-1.4-1.5-2.8-2.4-4.1
	C82.6,12.3,80,10,76.5,8c-3.3-1.9-6.9-3.2-10-4.3C64,2.9,61,1.9,58,1.4c-3.2-0.6-5.9-0.6-8.5,0c-0.4,0.1-0.8,0.2-1.2,0.2
	c-2.2,0.4-5.3,1-7,2c-2.2,1.2-4,2.2-6,3.1C34.7,7,34,7.2,33.2,7.3c-0.8,0.1-1.6,0.3-2,0.6c-0.6,0.3-1,0.8-1.4,1.3
	c-0.3,0.4-0.6,0.7-1,1c-0.5,0.5-1,1.2-1.4,1.9c-0.2,0.4-0.5,0.8-0.7,1.2c-0.3,0.4-0.4,1.1-0.5,1.7c-0.1,0.7-0.2,1.3-0.5,1.9
	c-1.1,2-1.5,3.9-2,6c-0.2,0.8-0.4,1.6-0.6,2.4c-0.8,3-1.3,6.1-1.4,9.2c0,0.8,0,1.7,0,2.5c0,0.5-0.2,1.1-0.4,1.6
	c-0.2,0.5-0.4,1-0.4,1.3c0.1,0.4,0.2,0.9,0.3,1.4c0.2,0.8,0.4,1.7,0.6,2.2c0.1,0.2,0.2,0.4,0.3,0.7c0.4,0.8,0.9,1.9,1,2.6
	c0.1,0.5,0.2,0.8,0.4,1.1c0.2,0.5,0.4,1,0.3,2c-0.1,0.6,0.3,1.1,0.8,1.7c0.4,0.5,0.9,1.1,1.1,1.9c0.1,0.4,0.9,1.6,1.4,2.4
	c0.3,0.5,0.6,0.9,0.7,1.2c0.2,0.3,0.5,0.7,0.8,1c0.3,0.3,0.5,0.6,0.7,0.9c0.7,1.1,0.6,2.4,0.5,3.6c-0.1,1-0.2,1.9,0.2,2.8
	c0.6,1.3,0.3,2.1,0.1,2.9c-0.2,0.5-0.3,1-0.3,1.9c0,1.3-0.2,2.8-0.4,4.2c-0.1,0.8-0.4,1.3-0.7,1.8c-0.2,0.4-0.5,0.8-0.6,1.3
	c-0.6,2.7-1.6,5.4-2.7,8c-1.3,2.7-1.6,3.2-4.1,4.9c-0.9,0.6-2.6,1.1-4.1,1.5c-0.6,0.2-1.2,0.3-1.6,0.5c-1,0.4-5.8,1.5-9,2.3
	c-1,0.2-1.8,0.4-2.1,0.5l-0.2-1C4.2,94.2,5,94,6,93.7c3-0.7,8-1.9,8.9-2.3c0.4-0.1,1-0.3,1.7-0.5c1.4-0.4,3.1-0.9,3.8-1.4
	c2.4-1.6,2.5-1.9,3.7-4.5c1.1-2.5,2-5.1,2.7-7.8c0.2-0.7,0.4-1.1,0.7-1.6c0.3-0.5,0.5-0.9,0.6-1.4c0.2-1.3,0.5-2.8,0.4-4
	c0-1,0.2-1.7,0.4-2.2c0.2-0.7,0.4-1.2,0-2.2c-0.4-1.1-0.3-2.2-0.2-3.2c0.1-1.1,0.2-2.2-0.3-3c-0.2-0.3-0.4-0.5-0.6-0.8
	c-0.3-0.4-0.6-0.7-0.9-1.2c-0.1-0.2-0.4-0.6-0.7-1.1c-0.8-1.2-1.4-2.2-1.5-2.7c-0.1-0.5-0.5-1-0.9-1.4c-0.5-0.7-1.2-1.4-1-2.5
	c0.1-0.7,0-1-0.2-1.4c-0.1-0.3-0.3-0.7-0.4-1.4c-0.1-0.6-0.6-1.6-0.9-2.4c-0.1-0.3-0.2-0.5-0.3-0.7c-0.2-0.6-0.4-1.5-0.6-2.4
	c-0.1-0.5-0.2-1-0.3-1.4c-0.2-0.6,0.1-1.3,0.4-2c0.2-0.4,0.4-0.9,0.4-1.2c-0.1-0.9-0.1-1.7,0-2.6c0.1-3.2,0.6-6.4,1.4-9.4
	c0.2-0.8,0.4-1.6,0.6-2.4c0.5-2.2,1-4.2,2.1-6.3c0.2-0.4,0.3-1,0.4-1.6c0.1-0.8,0.2-1.5,0.7-2.2c0.2-0.3,0.5-0.7,0.7-1.1
	c0.5-0.8,0.9-1.5,1.6-2.1c0.3-0.3,0.6-0.6,0.9-1C29.5,8,30,7.4,30.7,7c0.6-0.4,1.5-0.5,2.3-0.7c0.7-0.1,1.4-0.3,1.8-0.5
	c2-1,3.8-1.9,6-3.1c1.8-1,5-1.6,7.3-2.1c0.4-0.1,0.8-0.2,1.2-0.2c2.7-0.6,5.6-0.6,8.9,0c3.1,0.5,6.1,1.5,8.6,2.4
	C70,3.9,73.6,5.3,77,7.2c3.6,2,6.3,4.4,8.2,7.2c0.9,1.3,1.7,2.8,2.4,4.2c0.7,1.4,1.5,2.8,2.3,4.1c0.7,1.1,0.9,2.2,1,3.3
	c0,0.1,0,0.3,0,0.4c0.1,1,0.2,1.9,0.5,2.7c0.6,1.6,1.2,2.1,1.8,2.6c0.1,0.1,0.1,0.1,0.2,0.2c0.7,0.6,1.2,1.3,1.4,3.5
	c0.2,1.8,0.1,2.4-0.1,3c-0.5,1.7-1.3,5.3-1.2,6.7c0.1,0.8,0.5,1.5,0.9,2.4c0.8,1.5,1.8,3.3,1.4,6.4c-0.4,3.1-1.4,5.8-2.2,8
	c-0.4,1.2-0.8,2.2-1,2.9c-0.4,1.9-1.3,2.8-2.1,3.6c-0.6,0.6-1.1,1.1-1.6,2.1c-0.4,0.8-0.8,1.7-1.2,2.8c-0.9,2.2-1.9,4.7-3.2,6.3
	c-0.6,0.7-1.3,1.4-2,2c-0.7,0.7-1.4,1.3-2.2,1.8c-0.5,0.3-0.9,0.6-1.3,1c-0.5,0.4-1.1,0.7-1.7,0.8l-0.8,0.1
	C74.9,85.7,73.7,85.9,72.5,86z M80.4,61.6c0.5-0.6,1.1-1.2,1.2-2.1c0.2-1.5-1.1-2.6-2.2-3.5c-1.5-1.2-3.2-3.2-3.2-5.6l-1,0
	c0,2.7,1.9,5,3.6,6.4c0.9,0.8,1.9,1.6,1.8,2.6c-0.1,0.6-0.5,1.1-1,1.6c-0.6,0.6-1.2,1.3-1.2,2.2c0,0.2,0,0.4,0,0.5
	c0,0.3,0,0.6-0.1,0.7c-0.1,0.1-0.4,0.1-0.7,0c-0.1-0.1-0.3-0.1-0.4-0.2c-0.3-0.1-0.6-0.3-0.9-0.4l-0.2,1c0.2,0,0.4,0.2,0.6,0.3
	c0.1,0.1,0.3,0.2,0.5,0.2c0.3,0.1,0.6,0.2,0.8,0.2c0.4,0,0.7-0.1,1-0.4c0.4-0.4,0.4-1,0.3-1.4c0-0.1,0-0.3,0-0.4
	C79.4,62.6,79.9,62.1,80.4,61.6z M71.6,63.7l0.2-1c-0.9-0.2-1.8,0-2.6,0.4l0.4,0.9C70.2,63.7,70.9,63.6,71.6,63.7z M62.4,62.1
	c0.3,0.7,0.9,1.3,1.7,1.8c0.4,0.2,0.8,0.4,1.2,0.6c0.3,0.1,0.6,0.3,0.9,0.4l0.4-0.9c-0.3-0.2-0.6-0.3-0.9-0.4
	c-0.4-0.2-0.7-0.3-1.1-0.5c-0.5-0.3-1-0.7-1.3-1.3c-0.2-0.5-0.1-1.1,0.4-1.4c0.2-0.1,0.6-0.2,0.9-0.2c0.2,0,0.4,0,0.6-0.1
	c0.5-0.1,1-0.4,1.2-0.8c0.2-0.3,0.2-0.6,0.2-0.9l-1,0.2c0,0,0,0.1,0,0.2c-0.1,0.2-0.4,0.3-0.6,0.4c-0.2,0-0.3,0-0.5,0.1
	c-0.4,0-0.9,0.1-1.3,0.4C62.4,60,62.1,61.1,62.4,62.1z M80.4,23.2c-1.2-0.3-2.4-0.3-3.6-0.2l-5.8,0.2c-0.9,0-1.8,0.1-2.7-0.2
	c-0.4-0.1-0.9-0.3-1.3-0.6c-0.3-0.2-0.7-0.3-1.1-0.5c-1.9-0.7-3.9-0.5-5.7-0.3L48,23l0.1,1l12.2-1.2c1.7-0.2,3.6-0.4,5.3,0.3
	c0.3,0.1,0.7,0.3,1,0.4c0.5,0.2,1,0.5,1.5,0.6c1,0.3,2.1,0.2,3,0.2l5.8-0.2c1.1,0,2.2-0.1,3.3,0.2c1.1,0.3,1.9,1,2.2,1.8l0.9-0.4
	C82.9,24.5,81.8,23.6,80.4,23.2z M43.4,28.8l-0.2,1c4,0.9,7.9-0.4,11.8-1.6c1.1-0.4,2.2-0.7,3.3-1c1.8-0.5,4.1-1,6.4-0.5
	c0.9,0.2,1.7,0.5,2.5,0.9c1.1,0.5,2.3,1,3.6,1.1c0.7,0.1,1.3,0,2,0c0.3,0,0.5,0,0.8,0c2.9-0.1,5.7,0.8,8.3,1.5l0.3-0.9
	c-2.6-0.8-5.6-1.6-8.6-1.6c-0.3,0-0.6,0-0.8,0c-0.6,0-1.2,0.1-1.8,0c-1.1-0.1-2.2-0.6-3.3-1c-0.9-0.4-1.8-0.7-2.7-1
	c-2.4-0.6-4.9,0-6.9,0.5c-1.1,0.3-2.2,0.7-3.3,1C50.9,28.4,47.1,29.7,43.4,28.8z M51.9,33.8c3-1.4,6.2-1.8,9.5-1.3l0.2-1
	c-3.4-0.6-6.9-0.1-10,1.3c-0.2,0.1-0.5,0.2-0.7,0.3c-1.1,0.5-2.1,1-3.1,0.9l-0.1,1c0.1,0,0.2,0,0.2,0c1.2,0,2.3-0.5,3.4-1
	C51.4,34,51.7,33.9,51.9,33.8z M79.2,31.8c-1.4,0.3-2.4,0.8-2.9,1.7l0.9,0.5c0.4-0.8,1.4-1.1,2.2-1.2c2.7-0.4,5.5,0.4,7.5,2.3
	l0.7-0.7C85.3,32.3,82.2,31.3,79.2,31.8z M65.9,38.4c0.1-0.6-0.1-1.3-0.5-1.8c-0.5-0.5-1.1-0.8-1.8-0.7l0.1,1c0.3,0,0.6,0.1,0.9,0.4
	c0.3,0.3,0.4,0.6,0.3,0.9L65.9,38.4z M77.3,36.3c-0.7,1-1,2.2-0.7,3.4l1-0.2c-0.2-0.9,0-1.9,0.5-2.6L77.3,36.3z M67.5,72.7
	c1,0.2,2.1,0.4,3.1,0.5c1.4,0.1,2.8,0.1,4.2,0c1.6-0.1,3.4-0.1,5,0.1l0.2-1c-1.7-0.3-3.5-0.2-5.2-0.1c-1.4,0.1-2.7,0.1-4.1,0
	c-1-0.1-2-0.3-3-0.5c-2.4-0.5-4.9-0.9-7.3,0l0.4,0.9C62.9,71.8,65.1,72.3,67.5,72.7z M40.2,68.9c-0.3-0.5-0.7-0.7-1.3-0.7l0,1
	c0,0,0,0,0,0c0.2,0,0.3,0.1,0.4,0.2c0.1,0.2,0.2,0.5,0.2,0.8l0,0c0.5,3,0.3,5.1-0.7,6.6l0.8,0.5c1.5-2.3,1.2-5.3,0.8-7.3
	C40.5,69.6,40.4,69.2,40.2,68.9z M36.6,85.3c-0.4,0.2-0.7,0.4-1,0.7l0,0c-0.3,0.3-0.5,0.6-0.7,0.9c-0.3,0.4-0.6,0.8-0.9,1.2
	c-0.5,0.7-1,1.3-1.6,1.8c-0.5,0.5-1.2,0.8-2,0.9l0.1,1c1-0.1,1.9-0.5,2.6-1.1c0.6-0.6,1.2-1.3,1.7-2c0.3-0.4,0.6-0.8,0.9-1.3
	c0.2-0.3,0.4-0.6,0.6-0.8c0.2-0.2,0.5-0.4,0.8-0.6c1-0.6,2-1.1,3-1.5l-0.4-0.9C38.7,84.2,37.6,84.7,36.6,85.3z M63.1,87.5l-1,0
	c0,1.9,1.2,3.5,3.1,4l0.2-1C64,90.2,63.1,88.9,63.1,87.5z M60.1,95.3c-0.3,0-0.6,0.1-0.9,0.3l-0.1,0c-0.2,0.2-0.3,0.4-0.4,0.6
	c-0.1,0.3-0.2,0.6-0.3,0.8c-0.1,0.3-0.2,0.6-0.3,0.9c-0.2,0.4-0.5,0.8-1,0.8c-0.2,0-0.4,0-0.6-0.1L54.4,98l0,0c0,0-0.1,0-0.1,0
	c0-0.1,0-0.2,0-0.3c0-0.2,0-0.4-0.1-0.6c-0.2-0.8-1-1-1.4-1.2c-0.3-0.1-0.6-0.2-0.9-0.4c-0.7-0.3-1.4-0.6-2.2-0.6c0,0,0,0,0,0
	c-0.5-0.4-1.2-0.4-1.8-0.2l0.3,0.9c0.3-0.1,0.7-0.1,1,0.2l0.2,0.1l0.2,0c0.6,0,1.3,0.2,2,0.5c0.3,0.1,0.6,0.3,1,0.4
	c0.3,0.1,0.7,0.3,0.8,0.5c0,0.1,0,0.2,0,0.3c0,0.3,0,0.7,0.4,1l0,0c0.1,0.1,0.3,0.2,0.5,0.2l2.2,0.7c0.3,0.1,0.6,0.2,0.9,0.2l0,0
	l0,0c0.8,0,1.5-0.6,1.9-1.4c0.2-0.4,0.3-0.7,0.4-1.1c0.1-0.3,0.2-0.5,0.3-0.8l0,0c0-0.1,0-0.1,0.1-0.2c0.1,0,0.2-0.1,0.3-0.1l0,0
	l0,0c1.1-0.1,2.2,0.2,3.3,0.7l0.4-0.9C62.7,95.5,61.4,95.2,60.1,95.3z M49.9,43.9l0-0.1c0.1-1.2,0.3-2.8,1.4-3.5
	c1-0.6,2.3-0.8,3.4-0.5l0,0c0.4,0.1,0.8,0.3,1.2,0.4c0.1,0,0.2,0,0.3,0l0,0l1.4,0.4c0.1,0,0.3,0.1,0.4,0.1c1.7,0.3,3.4,0.7,4.7,1.9
	c0.6,0.6,0.8,1.2,0.7,1.8c-0.1,0.6-0.7,1-1.1,1.3c-0.7,0.4-1.6,0.6-2.4,0.6c-0.1,0-0.2,0-0.3,0c0,0-0.1,0-0.1,0l-4-0.1
	c-0.1,0-0.2,0-0.3,0c-0.8,0-1.6,0-2.5-0.3l-0.1,0C51.4,45.6,49.8,45,49.9,43.9z M62,43.4c-0.3-0.3-0.6-0.5-1-0.7
	c0,0.2,0.1,0.3,0.1,0.5l0,1.5l0,0.1c0,0.2,0,0.3-0.1,0.5c0.3-0.1,0.5-0.2,0.8-0.3c0.3-0.2,0.6-0.4,0.6-0.6
	C62.4,43.9,62.1,43.5,62,43.4z M50.9,44c0,0.1,0.1,0.4,1.7,0.9l0.2,0.1c0.4,0.1,0.7,0.2,1,0.2c-0.1-0.2-0.1-0.4-0.1-0.7V44
	c0-0.9,0.2-1.7,0.4-2.5l0,0c0.1-0.2,0.2-0.4,0.4-0.6c0,0,0,0,0,0c-0.9-0.3-1.8-0.1-2.6,0.4c-0.7,0.4-0.8,1.8-0.9,2.7L50.9,44z
	 M82,47.4c-0.8,0.1-1.7,0.1-2.6-0.1l0,0c-0.1,0-0.1,0-0.2,0c-0.6-0.2-1.1-0.6-1.4-1.1c-0.3-0.6-0.4-1.2-0.2-1.8l0,0
	c0.3-0.6,0.7-1.1,1.2-1.5c1.8-1.3,6.3-2.5,8.2-0.1c0.7,0.9,0.9,2.1,1.1,3.3c0.1,1.2-0.3,1.7-0.7,2c-0.3,0.2-0.7,0.3-1.1,0.3
	c-0.7,0-1.5-0.3-2.1-0.6C83.6,47.3,82.8,47.4,82,47.4L82,47.4z M87.1,46.1c0-0.2,0-0.3-0.1-0.5c-0.1,0.1-0.2,0.1-0.3,0.2
	c-0.5,0.2-0.9,0.5-1.1,1c-0.1,0.1-0.2,0.2-0.3,0.3c0.6,0.2,1.2,0.2,1.5,0C87.1,47,87.2,46.6,87.1,46.1z M82,46.5c0.1,0,0.2,0,0.3,0
	c-0.1-0.2-0.1-0.5-0.1-0.7l0.3-1.8c0.1-0.6,0.3-1.3,0.5-1.6c-1.3,0.2-2.7,0.7-3.4,1.2l0,0c-0.4,0.2-0.7,0.6-0.9,1
	c-0.1,0.4-0.1,0.7,0.1,1c0.2,0.3,0.5,0.6,0.8,0.7c0,0,0,0,0.1,0C80.3,46.5,81.1,46.5,82,46.5L82,46.5z"/>
</svg>
