<?xml version="1.0" encoding="utf-8"?>
<!-- Generator: Adobe Illustrator 24.0.0, SVG Export Plug-In . SVG Version: 6.00 Build 0)  -->
<svg version="1.2" baseProfile="tiny" id="Layer_1" xmlns="http://www.w3.org/2000/svg" xmlns:xlink="http://www.w3.org/1999/xlink"
	 x="0px" y="0px" viewBox="0 0 100 100" xml:space="preserve">
<path fill="#F9FF00" d="M4.4,60c-0.2,1.1-0.5,2.2-0.7,3.3c-0.9,6.4,3.2,9.1,7.5,10.4c5.5,1.6,11.1,1.1,16.7,0.2
	c12.7-2.1,24.4-6.9,35.5-13.2c8.3-4.7,16-10.2,22.4-17.3c2.9-3.2,5.3-6.6,6.6-10.9c1.5-5.2-0.5-9.4-5.6-11.4
	c-0.5-0.2-1.1-0.4-1.9-0.7c4.2-0.6,10.5,1.4,12.9,4.3c2.6,3.2,2.6,6.7,1.3,10.4c-2.5,6.7-7.1,11.8-12.3,16.4
	c-9.3,8.4-19.9,14.7-31.2,20c-0.5,0.2-0.9,0.6-1.3,0.9c0.1,0.2,0.1,0.4,0.2,0.6c3.6-0.4,7.1-0.8,10.7-1.4c0.6-0.1,0.9-1.7,1.3-2.7
	c0.5-1.5,0.4-1.6,2.4-1.9c-0.3,1.3-0.6,2.6-1,4.3c1.4-0.3,2.5-0.5,3.6-0.8c2.4-0.8,4.6-1.5,6.7-3.3c2.1-1.7,2.9-3.7,3.6-5.9
	c0.8-2.5,2.8-3.5,5-5.1c-0.9,5.4-2.8,9.9-5.6,14.1c-5.4,8.1-12.9,13.4-22.3,15.6c-10,2.3-19.5,0.9-28.3-4.6
	c-1.2-0.8-2.3-0.9-3.7-0.7c-6.2,0.9-12.3,1.3-18.5-0.4C3.2,78.8-0.2,75,0,70.5C0.2,66.5,1.9,63.1,4.4,60z M50.8,82.8
	c5.3,1.5,12.8-3.1,13.6-9.2c-0.4,0-0.8-0.1-1.2,0c-3.3,0.3-6.6,0.6-9.9,0.8c-1.4,0.1-2.2,0.5-2.1,2c0.1,1-0.1,2.1-0.3,3.1
	c-0.3,2.4-0.3,2.4,2.3,2.8C52.2,82.6,51.5,82.7,50.8,82.8z M47.3,82.5c2,0.1,2.2-1,2-2.6c-0.1-1.2-0.1-2.3-0.2-3.5
	c-0.1-1.7-0.5-2-2.1-1.4c-2.5,0.8-4.9,1.7-7.4,2.5c-1.3,0.4-1.4,0.9-0.6,2c1.9,2.5,4.8,3.2,7.6,3.9c0.8,0.2,1.7,0,2.6,0
	c0-0.2,0-0.3,0-0.5C48.6,82.8,48,82.6,47.3,82.5z M61.6,80.8c3.7,0.2,13-6.5,13.4-9.9c-2.6,0.7-5.3,1.4-7.9,2.2
	c-0.2,0.1-0.5,0.3-0.6,0.6C64.9,76,63.3,78.4,61.6,80.8z M34.6,79.1c-0.1,0.2-0.1,0.4-0.2,0.6c1.5,0.5,3.1,1,5.1,1.7
	C37.6,78.3,37,78.1,34.6,79.1z"/>
<path fill="#003DFF" d="M57.5,56.6c-0.3,0.2-0.6,0.6-1,0.7c-1.3,0.4-2.7,0.5-4,1.1c-1.1,0.5-2,1.5-3.2,2.4c-0.1-2.4-1.5-2.4-3.2-2.5
	c-3.8-0.1-7.6-0.4-11.4-0.7c-1.2-0.1-1.7,0.3-1.7,1.5c0.1,2.3,0,4.5,0,6.8C33,65.9,32.9,66,32.7,66c-0.3-0.7-0.7-1.4-0.8-2.1
	c-0.2-1.6-0.3-3.3-0.3-4.9c0-1.8-0.9-2.4-2.5-2.8c-2.6-0.7-5.2-1.4-7.7-2.2c-1.3-0.4-1.9-0.2-1.9,1.2c0,1.2,0.1,2.3,0.1,3.5
	c-0.9-2.5,0.7-6-3.4-7.6c-0.1,1.2-0.3,2.3-0.1,3.4c0.8,4.4,2.1,8.6,4.5,12.4c0.2,0.3,0.4,0.6,0.6,0.9c-2.7,0.5-3.4,0.1-4.6-2.3
	c-3.2-6.6-4.3-13.7-3.1-20.8c2.5-15,11.1-25.1,25.6-30c5.3-1.8,10.8-2,16.1-1.2c12.7,1.8,21.9,8.9,28,20.2c1,1.8,0,2.8-1.3,4
	c-0.6-1.2-1-2.4-1.6-3.4c-0.3-0.5-1.4-1.1-1.6-0.9c-0.8,0.5-2.1,1.1-1.5,2.5c0.5,1.1,1,2.1,1.2,3.3c-0.5-1-0.9-1.9-1.4-2.9
	c-0.4-0.8-0.9-1.1-2-0.7c-2.2,0.9-4.5,1.6-6.8,2.2c-1.2,0.3-1.4,0.9-1.2,1.9c0.5,2,1.1,4.1,1.5,6.1c0.3,1.6,1,3.3-0.8,4.8
	c-0.3-2.1-0.6-4-1-5.9c-0.3-1.7-0.6-3.3-1.2-4.9c-0.2-0.6-1.1-1.2-1.7-1.2c-3.7,0.1-7.5,0.5-11.2,0.7c-1.1,0.1-1.5,0.7-1.5,1.7
	c0,4.5,0.1,9,0,13.5c0,1.1,0.5,1.6,1.6,1.6c1.6,0,3.1,0,4.7,0C57.5,56.3,57.5,56.5,57.5,56.6z M40,25.5c0.1,0.1,0.3,0.2,0.4,0.3
	c-1.2,2.9-2.5,5.8-3.7,8.7c-0.6,1.4-0.2,2.3,1.2,2.4c3.2,0.3,6.4,0.5,9.6,0.7c1.5,0.1,2.1-0.5,2.1-2c0-2.9,0-5.9,0.1-8.8
	c0.1-2.9,0.2-2.9-2.6-3.3c-0.6-0.1-1.2-0.1-1.8-0.1c-2.5,0.2-4.8-0.4-7.1-1.3c-0.9-0.4-2-0.5-2.6-1.2c-1.1-1.1-2.1-1.1-3.2-0.3
	c-3.6,2.3-6.8,5-9.4,8.4c-0.5,0.7-1.3,1.4-0.4,2.3c0.8,0.9,1.6,1.9,2.5,1.3c0.8,0.7,1.4,1.4,2.1,1.7c1.8,0.7,3.7,1.1,5.5,1.6
	c2,0.5,2.3,0.3,3.1-1.7C37.1,31.3,38.6,28.5,40,25.5z M59.9,25.4c0.2-0.1,0.4-0.2,0.6-0.3c1.7,3.3,3.3,6.6,5.1,9.9
	c0.3,0.5,1,1.1,1.3,1.1C70.4,35.3,74,34.4,77,32c0.9-0.8,1.1-1.5,0.3-2.5c-2.8-3.7-6.2-6.7-10.2-9c-0.5-0.3-1.3-0.4-1.7-0.1
	c-2.9,2.1-6.2,2.9-9.7,3c-1.2,0-2.4,0.2-3.7,0.3c-1.2,0.1-1.6,0.6-1.6,1.8c0.2,3.5,0.4,7,0.6,10.5c0.1,1.2,0.6,1.7,1.7,1.6
	c3.4-0.3,6.8-0.5,10.3-0.8c1.2-0.1,1.6-0.8,1.1-2c-1-2.3-1.9-4.6-3-6.9C60.8,27.1,60.3,26.3,59.9,25.4z M49.5,47.4
	C49.5,47.4,49.5,47.4,49.5,47.4c0-2.1,0-4.2,0-6.3c0-1.1-0.4-1.7-1.6-1.8c-3.6-0.2-7.2-0.5-10.8-0.7c-1-0.1-1.6,0.3-1.8,1.4
	c-0.2,1.3-0.6,2.5-0.8,3.8c-0.5,3.3-0.9,6.6-1.3,9.8c-0.1,1.1,0.3,1.8,1.5,1.9c4.1,0.2,8.3,0.5,12.4,0.8c1.7,0.1,2.3-0.7,2.3-2.3
	C49.4,51.8,49.5,49.6,49.5,47.4z M19.6,50.6c0.2,0.2,0.6,0.8,1.2,1c2.7,0.9,5.4,1.8,8.1,2.5c2.5,0.7,2.6,0.5,2.9-2.1
	c0.6-4.2,1.4-8.4,2.1-12.6c0.1-0.5-0.4-1.4-0.8-1.5c-2.6-0.8-5.2-1.6-7.9-2.2c-0.5-0.1-1.5,0.3-1.7,0.7
	C21.4,40.7,20.1,45.3,19.6,50.6z M50.2,21.7c0.4,0.2,0.9,0.8,1.4,0.8c2.7-0.2,5.4-0.4,8.1-0.9c1.1-0.2,2.1-0.9,3.1-1.5
	c0.8-0.5,0.9-1.4-0.1-1.8c-2.4-0.8-4.9-1.9-7.4-2.1c-5.9-0.5-11.9-0.7-17.6,1.9c-0.4,0.2-1.1,0.6-1.1,0.9c0.1,0.5,0.5,1.2,0.9,1.3
	c2.6,0.8,5.2,1.6,7.8,2.2c1.1,0.2,2.2,0.2,3.3,0C49.4,22.4,49.9,21.9,50.2,21.7z M16,47.1c-0.2,0.9,0.4,1.9,1.5,2.8
	c1,0.7,1.7,0.6,1.8-0.7c0.3-4.2,1.6-8.3,3.4-12c0.9-1.8,0.4-2.8-0.9-3.9c-0.7-0.6-1.2-0.6-1.7,0.3C18,37.6,16.4,41.9,16,47.1z"/>
</svg>
