<?xml version="1.0" encoding="utf-8"?>
<!-- Generator: Adobe Illustrator 24.0.0, SVG Export Plug-In . SVG Version: 6.00 Build 0)  -->
<svg version="1.2" baseProfile="tiny" id="Layer_1" xmlns="http://www.w3.org/2000/svg" xmlns:xlink="http://www.w3.org/1999/xlink"
	 x="0px" y="0px" viewBox="0 0 100 100" xml:space="preserve">
<path id="path3067" fill="#010101" d="M43.9,25.9c-1.7-0.7-3.7-1.8-6.1-3.1c-2.4-1.3-4.8-2.7-7.2-4c-2.4-1.3-4.5-2.4-6.3-3.3
	c-1.8-0.9-3.4-1.5-4.9-1.8c-1.3-0.3-2.6-0.4-3.7-0.4c-2.9,0-4.3,1.3-4.3,3.9c0,0.8,0.1,1.7,0.3,2.5c0.2,0.9,0.5,1.9,0.8,3.1
	c0.4,1.2,0.7,2.2,0.9,3.1c0.7,2.6,1.5,4.7,2.2,6c0.7,1.4,1.7,2.5,2.9,3.4c1.2,0.9,3.1,1.8,5.7,2.8v12.2c-1.4-0.7-3.6-1.7-6.5-3
	c-2.9-1.2-5.3-2.6-7.2-4c-1.9-1.4-3.7-3.5-5.3-6.3c-1.6-2.8-3-6.5-4.1-11.1C0.4,22.6,0,19.4,0,16.2c0-5.1,1.3-8.9,4-11.4
	c2.7-2.5,6.3-3.7,10.8-3.7c1.5,0,3,0.1,4.6,0.3c3.8,0.6,7.2,1.5,10,2.5c2.8,1,5.4,2.2,7.7,3.6c2.3,1.4,5.1,3.3,8.3,5.6h9
	c3.3-2.4,6-4.2,8.3-5.6c2.3-1.4,4.9-2.6,7.7-3.6c2.9-1,6.2-1.9,10-2.5c1.5-0.2,3.1-0.3,4.6-0.3c2.9,0,5.5,0.5,7.7,1.6
	c2.2,1,4,2.7,5.2,4.9c1.2,2.2,1.8,5.1,1.8,8.6c0,3.2-0.4,6.4-1.3,9.6c-1.1,4.6-2.5,8.3-4,11.1c-1.6,2.8-3.3,4.9-5.2,6.3
	c-1.9,1.4-4.3,2.7-7.2,4c-2.9,1.2-5.1,2.2-6.5,3V38c2.6-1,4.5-1.9,5.7-2.8c1.2-0.9,2.2-2,2.9-3.4c0.7-1.4,1.4-3.4,2.2-6
	c1.4-4.4,2-7.3,2-8.8c0-2.6-1.4-3.9-4.3-3.9c-1.2,0-2.4,0.1-3.7,0.4c-1.6,0.4-3.5,1.1-5.7,2.3c-2.2,1.1-5.4,2.9-9.6,5.2
	c-4.2,2.4-7.3,3.9-9.2,4.8v73H43.9V25.9z"/>
</svg>
