<?xml version="1.0" encoding="utf-8"?>
<!-- Generator: Adobe Illustrator 24.0.0, SVG Export Plug-In . SVG Version: 6.00 Build 0)  -->
<svg version="1.2" baseProfile="tiny" id="Layer_1" xmlns="http://www.w3.org/2000/svg" xmlns:xlink="http://www.w3.org/1999/xlink"
	 x="0px" y="0px" viewBox="0 0 100 100" xml:space="preserve">
<path id="path3058" fill="#010101" d="M0,69.1h100V81H0V69.1z M37.5,56.6H0V44h25c0-3.1,0.7-6.1,2.1-9.1c1.4-3,3.3-5.7,5.7-8.1
	c2.4-2.4,5.1-4.3,8.1-5.7c3-1.4,6-2.1,9.1-2.1c3.1,0,6.1,0.7,9.2,2.1c3.1,1.4,5.7,3.3,8.1,5.6c2.3,2.3,4.2,5,5.6,8.1
	c1.4,3.1,2.1,6.1,2.1,9.2h25v12.6H62.5V44c0-2-0.6-4-1.8-5.9c-1.2-1.9-2.8-3.5-4.7-4.7c-1.9-1.2-3.9-1.8-5.9-1.8
	c-2.1,0-4.1,0.6-6,1.8c-1.9,1.2-3.5,2.8-4.7,4.7c-1.2,1.9-1.8,3.9-1.8,5.9V56.6z"/>
</svg>
