<?xml version="1.0" encoding="utf-8"?>
<!-- Generator: Adobe Illustrator 24.0.0, SVG Export Plug-In . SVG Version: 6.00 Build 0)  -->
<svg version="1.2" baseProfile="tiny" id="Layer_1" xmlns="http://www.w3.org/2000/svg" xmlns:xlink="http://www.w3.org/1999/xlink"
	 x="0px" y="0px" viewBox="0 0 100 100" xml:space="preserve">
<path id="path3064" fill="#010101" d="M63,20.7v58.7c0,6.9,2.1,10.3,6.3,10.3c2.3,0,3.8-1,4.6-3c0.8-2,1.1-4.6,1.1-7.9L68.1,83V72.4
	l12.1-7.3l12.1,8.7V83l-6.9-4.2c0,3.5-0.6,6.9-1.9,10.2c-1.3,3.3-3.1,5.9-5.6,8c-2.4,2-5.3,3-8.6,3c-3.3,0-6.2-1-8.8-2.9
	c-2.5-2-4.5-4.5-5.9-7.7c-1.4-3.2-2.1-6.5-2.1-10V20.7c0-4.2-0.5-6.9-1.6-8.3c-1.1-1.4-2.5-2-4.1-2c-2.6,0-4.3,0.9-5.1,2.7
	c-0.8,1.8-1.2,4.3-1.2,7.6v62.1H30.2V20.7c0-4.2-0.5-7-1.6-8.3c-1.1-1.3-2.5-2-4.1-2c-4.2,0-6.3,3.4-6.3,10.3v62.1H7.8V20.7
	c0-3.5,0.7-6.8,2.1-10c1.4-3.2,3.3-5.8,5.8-7.7C18.2,1,21.1,0,24.4,0c4.6,0,8.2,1.8,11,5.4C38.6,1.8,42.4,0,46.8,0
	c3.3,0,6.2,1,8.6,2.9c2.4,1.9,4.3,4.5,5.6,7.7C62.3,13.8,63,17.2,63,20.7L63,20.7z"/>
</svg>
