<?xml version="1.0" encoding="utf-8"?>
<!-- Generator: Adobe Illustrator 24.0.0, SVG Export Plug-In . SVG Version: 6.00 Build 0)  -->
<svg version="1.2" baseProfile="tiny" id="Layer_1" xmlns="http://www.w3.org/2000/svg" xmlns:xlink="http://www.w3.org/1999/xlink"
	 x="0px" y="0px" viewBox="0 0 100 100" xml:space="preserve">
<path id="path3082" fill="#010101" d="M12.5,33.4c0,2,0.6,4,1.8,5.9c1.2,1.9,2.8,3.5,4.7,4.7c1.9,1.2,3.9,1.8,5.9,1.8
	c2.1,0,4.1-0.6,6-1.8c1.9-1.2,3.5-2.8,4.7-4.7c1.2-1.9,1.8-3.9,1.8-5.9c0-2.1-0.6-4.1-1.8-6c-1.2-1.9-2.8-3.5-4.7-4.7
	c-1.9-1.2-3.9-1.8-6-1.8c-2,0-4,0.6-5.9,1.8c-1.9,1.2-3.5,2.8-4.7,4.7C13.1,29.2,12.5,31.2,12.5,33.4z M87.5,66.7c0-2-0.6-4-1.8-6
	c-1.2-1.9-2.8-3.5-4.7-4.7c-1.9-1.2-3.9-1.8-6-1.8c-2.1,0-4.1,0.6-6,1.8c-1.9,1.2-3.5,2.8-4.7,4.7c-1.2,1.9-1.8,3.9-1.8,6
	c0,2,0.6,4,1.8,5.9c1.2,1.9,2.8,3.5,4.7,4.7c1.9,1.2,3.9,1.8,6,1.8c2.1,0,4.1-0.6,6-1.8c1.9-1.2,3.5-2.8,4.7-4.7
	C86.9,70.7,87.5,68.7,87.5,66.7z M44.3,18.7C48.1,23.1,50,28,50,33.4c0,3-0.7,6-2.1,9c-1.4,3-3.3,5.7-5.7,8.1
	c-2.4,2.4-5.2,4.4-8.2,5.8c-3,1.4-6,2.1-9.1,2.1c-4.3,0-8.4-1.2-12.2-3.6c-3.8-2.4-6.9-5.5-9.2-9.4C1.2,41.5,0,37.5,0,33.4
	c0-8,3.4-14.5,10.3-19.7C17.2,8.5,30.5,5.9,50,5.8c8.1,0,15.2,0.6,21.3,1.9c6.1,1.3,11.5,3.1,16.2,5.6c4.7,2.4,8.8,5.4,12.4,8.9
	v12.5c-2.8-2.6-5.6-4.9-8.7-6.9c-3-2-6.4-3.7-10.1-5.1c-3.7-1.4-7.8-2.5-12.4-3.3c-4.6-0.8-9.7-1.1-15.4-1.1
	C50.7,18.3,47.6,18.4,44.3,18.7z M100,66.7c0,3.6-0.6,6.9-1.9,10.1c-1.3,3.1-3.6,6-7.1,8.6c-3.5,2.6-8.6,4.7-15.3,6.4
	C69,93.4,60.5,94.2,50,94.2c-6.1,0-11.7-0.4-16.8-1.2c-5.1-0.8-9.6-1.8-13.5-3.2c-3.9-1.4-7.5-3.1-10.7-5c-3.2-2-6.2-4.3-9-7V65.3
	c3.6,3.4,7.5,6.3,11.9,8.7c4.4,2.4,9.4,4.3,15.1,5.7c5.7,1.4,12.2,2,19.5,2c2.9,0,5.9-0.1,9.2-0.3c-1.7-2.1-3.1-4.5-4.1-7
	c-1-2.6-1.5-5.1-1.5-7.7c0-3.1,0.7-6.1,2.1-9.1c1.4-3,3.3-5.7,5.7-8.1c2.4-2.4,5.1-4.3,8.1-5.7c3-1.4,6-2.1,9-2.1
	c3.2,0,6.3,0.7,9.4,2.1c3.1,1.4,5.8,3.3,8.1,5.7c2.3,2.4,4.1,5.1,5.5,8.1C99.3,60.6,100,63.6,100,66.7L100,66.7z"/>
</svg>
