<?xml version="1.0" encoding="utf-8"?>
<!-- Generator: Adobe Illustrator 24.0.0, SVG Export Plug-In . SVG Version: 6.00 Build 0)  -->
<svg version="1.2" baseProfile="tiny" id="Layer_1" xmlns="http://www.w3.org/2000/svg" xmlns:xlink="http://www.w3.org/1999/xlink"
	 x="0px" y="0px" viewBox="0 0 100 100" xml:space="preserve">
<path id="path3073" fill="#010101" d="M27,54c-1.8,0-3.4,0.5-5.1,1.5c-1.6,1-3,2.4-4,4c-1,1.6-1.5,3.3-1.5,5c0,1.8,0.5,3.4,1.5,5.1
	c1,1.6,2.3,3,4,4c1.6,1,3.3,1.5,5.1,1.5c1.8,0,3.4-0.5,5.1-1.5c1.6-1,3-2.4,4-4c1-1.6,1.5-3.3,1.5-5.1c0-1.7-0.5-3.4-1.5-5
	c-1-1.6-2.3-3-4-4C30.5,54.5,28.8,54,27,54z M45.7,64.5c0,2.5-0.5,4.8-1.5,7c-1,2.2-2.3,4.2-4,5.9c-1.7,1.7-3.7,3-6,4
	C32,82.5,29.6,83,27,83c-3.3,0-6.3-0.8-9.1-2.5c-2.8-1.7-5.1-3.9-6.8-6.8c-1.7-2.8-2.5-5.9-2.5-9.1c0-2.5,0.5-4.9,1.5-7.2
	c1-2.3,2.4-4.3,4.2-6c1.8-1.7,3.8-3.1,6.1-4c2.3-1,4.7-1.5,7.2-1.5c1.6,0,3.2,0.2,4.6,0.6c-1.2-2.5-2.2-4.5-2.9-6
	c-0.7-1.5-1.5-3.3-2.5-5.3c-0.9-2.1-1.7-4.1-2.2-5.9c-0.5-1.8-0.8-3.4-0.8-4.9c0-0.3,0.1-1,0.2-1.9C26.8,7.5,35.5,0,50.1,0
	c5.3,0,10.1,0.3,14.2,0.8c4.1,0.6,7.8,1.7,11.2,3.5c3.3,1.8,6,4.4,8,8c2,3.6,3,8.3,3,14.2c-0.1,5.6-0.9,10.4-2.4,14.6
	c-1.5,4.1-3.3,7.9-5.5,11.4c-2.2,3.5-4.5,7.1-6.8,11c-2.4,3.9-4,7.6-4.8,11.1c-1,4.1-1.5,7.2-1.5,9.4c0,3.2,1,5.1,3,6
	c1.6,0.6,3,0.9,4.3,0.9c1.2,0,2.2-0.2,3.2-0.7c1-0.4,2-1.1,3.1-2c1.1-0.9,2.1-1.8,3-2.9c1-1,2-2.1,3.1-3.3l6.2,6.9
	c-3.8,4-7.2,6.8-10.4,8.5c-3.1,1.7-6.2,2.6-9.1,2.6c-2.4,0-4.9-0.5-7.4-1.5c-5.8-2.2-8.8-7.2-8.8-15c0-3.3,0.6-7.3,1.8-12.1
	c0.8-3,1.9-5.9,3.3-8.6c1.4-2.7,3.7-6.6,6.7-11.8c3-5.1,5.2-9.3,6.7-12.5c1.4-3.2,2.2-6.2,2.4-9.1c0.1-0.7,0.1-1.6,0.1-2.9
	c0-4.8-1-8.4-2.9-10.8c-1.9-2.4-4.7-3.9-8.2-4.7c-3.6-0.8-8.7-1.3-15.5-1.6c-3.6,0-6.6,0.5-8.8,1.6c-2.3,1.1-4,2.6-5.1,4.6
	c-1.1,2-1.9,4.5-2.2,7.4c0,2.2,0.5,4.6,1.4,7c0.9,2.5,2.3,5.9,4.3,10.2c1.9,4.3,3.4,8.2,4.5,11.6c1.1,3.4,1.6,6.7,1.6,9.9
	C45.8,63.1,45.7,64,45.7,64.5L45.7,64.5z"/>
</svg>
