<?xml version="1.0" encoding="utf-8"?>
<!-- Generator: Adobe Illustrator 24.0.0, SVG Export Plug-In . SVG Version: 6.00 Build 0)  -->
<svg version="1.2" baseProfile="tiny" id="Layer_1" xmlns="http://www.w3.org/2000/svg" xmlns:xlink="http://www.w3.org/1999/xlink"
	 x="0px" y="0px" viewBox="0 0 100 100" xml:space="preserve">
<path id="path3049" fill="#010101" d="M59.1,43.2c0.2-5,0.7-9.6,1.7-13.5c1-4,2.4-7.6,4.2-11c1.8-3.4,4.1-6.5,6.8-9.4
	c2.7-2.9,6.1-6,10.1-9.3h14.8C92.5,3.5,89,6.6,86.2,9.5c-2.8,2.9-5.3,5.9-7.3,9.2c-2.1,3.3-3.7,6.9-4.9,10.8
	c-1.2,3.9-2,8.5-2.3,13.7h20.9v13.1H71.6c0.3,6.6,1.5,12.4,3.5,17.4c2,5,4.7,9.5,8.2,13.5c3.5,4,7.9,8.3,13.3,12.8H81.9
	c-5.2-4.4-9.5-8.6-12.7-12.6c-3.2-4-5.7-8.5-7.3-13.5c-1.7-5-2.6-10.8-2.7-17.7H40.8c-0.2,6.8-1.1,12.7-2.7,17.7
	c-1.7,5-4.1,9.4-7.3,13.5c-3.2,4-7.5,8.2-12.7,12.6H3.3c5.6-4.6,10.1-8.9,13.5-12.9c3.4-4,6.1-8.4,8.1-13.4c2-5,3.1-10.8,3.4-17.5
	H7.5V43.2h20.8c-0.4-6.7-1.5-12.4-3.5-17.3c-2-4.8-4.7-9.3-8.1-13.3C13.2,8.7,8.8,4.4,3.3,0H18c4,3.3,7.4,6.4,10.1,9.3
	c2.7,2.9,5,6.1,6.8,9.4c1.8,3.3,3.2,7,4.2,10.9c1,4,1.5,8.5,1.7,13.5H59.1z"/>
</svg>
