<?xml version="1.0" encoding="utf-8"?>
<!-- Generator: Adobe Illustrator 24.0.0, SVG Export Plug-In . SVG Version: 6.00 Build 0)  -->
<svg version="1.2" baseProfile="tiny" id="Layer_1" xmlns="http://www.w3.org/2000/svg" xmlns:xlink="http://www.w3.org/1999/xlink"
	 x="0px" y="0px" viewBox="0 0 100 100" xml:space="preserve">
<path id="path3079" fill="#010101" d="M69.1,31.3c2.7,1.8,5.2,3.9,7.4,6.2c2.3,2.4,4.2,4.9,5.8,7.6c1.6,2.7,2.8,5.5,3.7,8.4
	c0.9,2.9,1.4,5.9,1.4,9c0,4.5-1,9-3.1,13.6c-2.1,4.5-4.9,8.6-8.6,12.2c-3.6,3.6-7.7,6.5-12.2,8.6C59,99,54.4,100,49.9,100
	c-4.5,0-9-1-13.5-3.1c-4.5-2.1-8.6-4.9-12.2-8.6c-3.7-3.6-6.6-7.7-8.6-12.2c-2.1-4.5-3.1-9-3.1-13.6c0-4,0.8-7.9,2.3-11.8
	c1.5-3.9,3.7-7.5,6.5-10.9c2.8-3.4,5.9-6.2,9.4-8.6c-2.7-1.9-5.2-4-7.3-6.2c-2.2-2.3-4.1-4.8-5.7-7.5c-1.7-2.8-2.9-5.6-3.8-8.7
	c-0.9-3-1.4-6-1.4-8.8h12.5c0,3.4,1,7,3.1,11c2.1,4,5.1,7.3,8.9,10c3.8,2.7,8.2,4,12.9,4c3.7,0,7.1-0.8,10.2-2.4
	c3.1-1.6,5.8-3.7,8.1-6.4c2.3-2.7,4-5.4,5.1-8.2c1.1-2.8,1.7-5.5,1.7-8.1h12.5c0,3-0.5,6-1.4,8.9c-0.9,2.9-2.1,5.7-3.7,8.4
	c-1.6,2.7-3.5,5.2-5.8,7.6C74.3,27.3,71.8,29.4,69.1,31.3z M24.9,62.5c0,3,0.7,6,2.1,9c1.4,3,3.3,5.7,5.8,8.2
	c2.5,2.5,5.2,4.4,8.2,5.8c3,1.4,5.9,2.1,9,2.1c3.1,0,6.1-0.7,9.1-2.1c3-1.4,5.7-3.3,8.1-5.7c2.4-2.4,4.3-5.1,5.7-8.1
	c1.4-3,2.1-6,2.1-9c0-2.5-0.6-5.2-1.7-8.1c-1.1-2.9-2.8-5.6-5.1-8.2c-2.2-2.6-4.9-4.7-8-6.3c-3.1-1.6-6.5-2.4-10.2-2.4
	c-4.8,0-9.1,1.3-12.9,4c-3.8,2.7-6.8,6-8.9,10C25.9,55.5,24.9,59.2,24.9,62.5L24.9,62.5z"/>
</svg>
