<?xml version="1.0" encoding="utf-8"?>
<!-- Generator: Adobe Illustrator 24.0.0, SVG Export Plug-In . SVG Version: 6.00 Build 0)  -->
<svg version="1.2" baseProfile="tiny" id="Layer_1" xmlns="http://www.w3.org/2000/svg" xmlns:xlink="http://www.w3.org/1999/xlink"
	 x="0px" y="0px" viewBox="0 0 100 100" xml:space="preserve">
<path id="path3052" fill="#010101" d="M78.5,29c1.3-0.2,2.6-0.7,3.7-1.6c1.1-0.8,2.1-1.9,2.8-3.2c0.7-1.3,1-2.6,1-3.9
	c0-1.5-0.4-2.9-1.3-4.3c-0.8-1.3-1.9-2.4-3.3-3.3c-1.3-0.8-2.8-1.3-4.3-1.3c-2.1,0-4.2,0.9-6,2.8c-1.9,1.9-2.8,3.9-2.8,6.2
	c0,2,0.8,3.9,2.3,5.5c1.5,1.7,3.3,2.7,5.3,3H78.5z M70,40.3h-5.8L39.7,97.4H28.4L0.1,18.2h12.1L34,80.7L55.8,29h3.3
	c-1.3-2.7-2-5.6-2-8.5c0-3.6,1-7,2.9-10.1c1.9-3.2,4.5-5.7,7.7-7.6C70.9,0.9,74.3,0,78,0c3.5,0,6.7,0.9,9.7,2.8
	c3,1.8,5.4,4.3,7.2,7.5c1.8,3.1,2.7,6.5,2.7,10.1c0,2.8-0.6,5.5-1.7,8c-1.1,2.5-2.7,4.7-4.8,6.6c-2.1,1.9-4.3,3.3-6.8,4.2
	c2.5,2,4.6,4.2,6.2,6.5c1.6,2.3,3.4,5.2,5.3,8.6c1.3,2.5,2.4,5.1,3.1,7.9c0.7,2.7,1.1,5.5,1.1,8.3c0,5.3-1.4,10.3-4.2,14.8
	c-2.8,4.5-7.1,8.2-12.9,10.8c-5.8,2.7-12.9,4-21.2,4V89.2c5.7,0,10.5-0.9,14.5-2.5c3.9-1.7,6.9-3.9,8.8-6.8c1.9-2.9,2.9-6.1,2.9-9.8
	c0-5-1.7-10.3-5.1-15.9c-1.7-2.8-3.5-5.1-5.2-7C75.6,45.4,73.2,43.1,70,40.3z"/>
</svg>
