<?xml version="1.0" encoding="utf-8"?>
<!-- Generator: Adobe Illustrator 24.0.0, SVG Export Plug-In . SVG Version: 6.00 Build 0)  -->
<svg version="1.2" baseProfile="tiny" id="Layer_1" xmlns="http://www.w3.org/2000/svg" xmlns:xlink="http://www.w3.org/1999/xlink"
	 x="0px" y="0px" viewBox="0 0 100 100" xml:space="preserve">
<path id="path3076" fill="#010101" d="M72.5,87.9c-2.6,4.5-5.7,8.5-9.1,12.1L56,92.6c4.2-2.9,8-7.9,11.1-14.9
	c-3.3-7.6-5.8-16.2-7.5-25.8c-1.7-9.6-2.9-20-3.6-31.2c0-4.2-0.5-6.9-1.6-8.3c-1.1-1.4-2.5-2-4.1-2c-2.7,0-4.4,0.9-5.1,2.7
	c-0.8,1.8-1.2,4.3-1.2,7.6v62.1H33.6V20.7c0-4.2-0.5-7-1.6-8.3c-1.1-1.3-2.5-2-4.1-2c-4.2,0-6.3,3.4-6.3,10.3v62.1H11.2V20.7
	c0-3.5,0.7-6.8,2.1-10c1.4-3.2,3.3-5.8,5.8-7.7C21.6,1,24.5,0,27.9,0c4.6,0,8.2,1.8,11,5.4C42,1.8,45.8,0,50.3,0
	c4.6,0,8.2,1.8,11,5.4C64.4,1.8,68.2,0,72.7,0c3.3,0,6.2,1,8.6,2.9c2.4,2,4.3,4.5,5.6,7.7c1.3,3.2,1.9,6.5,1.9,10
	c-0.3,5.1-0.7,10.2-1.3,15.2c-0.6,5.1-1.3,10-2.2,14.7c-0.9,4.7-1.9,9.3-3.2,13.9c-1.3,4.5-2.8,8.9-4.7,13.2c3.4,7,7.2,12,11.3,14.9
	l-7.4,7.4C77.9,96.4,74.9,92.4,72.5,87.9z M72.3,63.1c1.1-4.2,2.1-8.6,2.9-13.3c0.8-4.7,1.5-9.5,2-14.3c0.5-4.9,0.9-9.8,1.1-14.8
	c0-3.2-0.4-5.7-1.1-7.6c-0.8-1.8-2.3-2.8-4.6-2.8c-2.7,0-4.4,0.9-5.1,2.7c-0.8,1.8-1.2,4.3-1.2,7.6C67.2,36.4,69.2,50.6,72.3,63.1z"
	/>
</svg>
