<?xml version="1.0" encoding="utf-8"?>
<!-- Generator: Adobe Illustrator 24.0.0, SVG Export Plug-In . SVG Version: 6.00 Build 0)  -->
<svg version="1.2" baseProfile="tiny" id="Layer_1" xmlns="http://www.w3.org/2000/svg" xmlns:xlink="http://www.w3.org/1999/xlink"
	 x="0px" y="0px" viewBox="0 0 600 200" xml:space="preserve">
<g>
	<rect x="0.2" y="0.5" fill="#FFFFFF" width="599" height="199"/>
	<path d="M598.7,1v198H0.7V1H598.7 M599.7,0h-600v200h600V0L599.7,0z"/>
</g>
<line fill="none" stroke="#000000" stroke-miterlimit="10" x1="-0.3" y1="66" x2="599.7" y2="67"/>
<line fill="none" stroke="#000000" stroke-miterlimit="10" x1="-1.3" y1="133" x2="598.7" y2="134"/>
<line fill="none" stroke="#000000" stroke-miterlimit="10" x1="-0.3" y1="200" x2="599.7" y2="0"/>
<line fill="none" stroke="#000000" stroke-miterlimit="10" x1="298.7" y1="0.3" x2="301.2" y2="199.8"/>
<line fill="none" stroke="#000000" stroke-miterlimit="10" x1="0" y1="100" x2="599.7" y2="100"/>
<path d="M49.6,19c16,0,29,13,29,29s-13,29-29,29s-29-13-29-29S33.6,19,49.6,19 M49.6,18c-16.6,0-30,13.4-30,30s13.4,30,30,30
	s30-13.4,30-30S66.1,18,49.6,18L49.6,18z"/>
</svg>
