<?xml version="1.0" encoding="utf-8"?>
<!-- Generator: Adobe Illustrator 24.0.0, SVG Export Plug-In . SVG Version: 6.00 Build 0)  -->
<svg version="1.2" baseProfile="tiny" id="Layer_1" xmlns="http://www.w3.org/2000/svg" xmlns:xlink="http://www.w3.org/1999/xlink"
	 x="0px" y="0px" viewBox="0 0 600 400" xml:space="preserve">
<g>
	<g>
		<rect x="1.5" y="1.5" fill="#FFFFFF" width="597" height="397"/>
		<path fill="#DCDCDC" d="M598,2v396H2V2H598 M599,1H1v398h598V1L599,1z"/>
	</g>
	<path fill="#FFFFFF" stroke="#DCDCDC" d="M598,2v396H2V2H598 M600,0H0v400h600V0L600,0z"/>
</g>
<line fill="none" stroke="#DCDCDC" stroke-width="2" stroke-miterlimit="10" x1="0" y1="132" x2="600" y2="134"/>
<line fill="none" stroke="#DCDCDC" stroke-width="2" stroke-miterlimit="10" x1="-1" y1="266" x2="599" y2="268"/>
<line fill="none" stroke="#DCDCDC" stroke-width="2" stroke-miterlimit="10" x1="0" y1="400" x2="600" y2="0"/>
<path fill="none" stroke="#DCDCDC" d="M1.8,3.5L342.2,200L1.8,396.5V3.5 M-0.2,0v400l346.4-200L-0.2,0L-0.2,0z"/>
</svg>
