<?xml version="1.0" encoding="utf-8"?>
<!-- Generator: Adobe Illustrator 24.0.0, SVG Export Plug-In . SVG Version: 6.00 Build 0)  -->
<svg version="1.2" baseProfile="tiny" id="Layer_1" xmlns="http://www.w3.org/2000/svg" xmlns:xlink="http://www.w3.org/1999/xlink"
	 x="0px" y="0px" viewBox="0 0 600 200" xml:space="preserve">
<g>
	<rect x="0.4" y="1" fill="#FFFFFF" width="599" height="198.5"/>
	<path d="M598.9,1.5V199H0.9V1.5H598.9 M599.9,0.5h-600V200h600V0.5L599.9,0.5z"/>
</g>
<line fill="none" stroke="#000000" stroke-miterlimit="10" x1="1.9" y1="100.3" x2="599.9" y2="100.3"/>
<path d="M298.6,35.5c13.2,0,24,10.8,24,24s-10.8,24-24,24s-24-10.8-24-24S285.4,35.5,298.6,35.5 M298.6,34.5c-13.8,0-25,11.2-25,25
	c0,13.8,11.2,25,25,25c13.8,0,25-11.2,25-25C323.6,45.7,312.4,34.5,298.6,34.5L298.6,34.5z"/>
<line fill="none" stroke="#000000" stroke-miterlimit="10" x1="600.4" y1="166.3" x2="0.4" y2="-33.1"/>
<line fill="none" stroke="#000000" stroke-miterlimit="10" x1="498.4" y1="199.8" x2="-101.6" y2="0.3"/>
<line fill="none" stroke="#000000" stroke-miterlimit="10" x1="-0.1" y1="51.6" x2="599.9" y2="49.1"/>
<line fill="none" stroke="#000000" stroke-miterlimit="10" x1="-1.1" y1="151.1" x2="598.9" y2="148.6"/>
</svg>
