<?xml version="1.0" encoding="utf-8"?>
<!-- Generator: Adobe Illustrator 24.0.0, SVG Export Plug-In . SVG Version: 6.00 Build 0)  -->
<svg version="1.2" baseProfile="tiny" xmlns="http://www.w3.org/2000/svg" xmlns:xlink="http://www.w3.org/1999/xlink" x="0px"
	 y="0px" viewBox="0 0 600 200" xml:space="preserve">
<g id="Layer_1">
	<g>
		<rect x="0.5" y="0.5" fill="#FFFFFF" width="599" height="199"/>
		<path d="M599,1v198H1V1H599 M600,0H0v200h600V0L600,0z"/>
	</g>
</g>
<g id="Layer_2">
	<line fill="none" stroke="#000000" stroke-miterlimit="10" x1="-0.6" y1="66" x2="599.4" y2="67"/>
	<line fill="none" stroke="#000000" stroke-miterlimit="10" x1="298.4" y1="0.3" x2="300.9" y2="199.8"/>
	<line fill="none" stroke="#000000" stroke-miterlimit="10" x1="1.4" y1="100" x2="599.4" y2="100"/>
	<path d="M298.4,1c54.6,0,99,44.4,99,99s-44.4,99-99,99s-99-44.4-99-99S243.8,1,298.4,1 M298.4,0c-55.2,0-100,44.8-100,100
		s44.8,100,100,100s100-44.8,100-100S353.6,0,298.4,0L298.4,0z"/>
	<line fill="none" stroke="#000000" stroke-miterlimit="10" x1="1.4" y1="1" x2="597.4" y2="199"/>
</g>
</svg>
